SplineFontDB: 3.0
FontName: aghtex_mathbm
FullName: aghtex_mathbm
FamilyName: aghtex_mathbm
Weight: Medium
Copyright: Copyright (c) 1997, 2009 American Mathematical Society (<http://www.ams.org>), with Reserved Font Name CMMIB10, 2012, KM.
Version: 3.2.0.1
ItalicAngle: -14.04
UnderlinePosition: 0
UnderlineWidth: 0
Ascent: 819
Descent: 205
LayerCount: 2
Layer: 0 1 "+gMyXYgAA"  1
Layer: 1 1 "+Uk2XYgAA"  0
NeedsXUIDChange: 1
UniqueID: 5087392
FSType: 8
OS2Version: 1
OS2_WeightWidthSlopeOnly: 0
OS2_UseTypoMetrics: 0
CreationTime: 1344259758
ModificationTime: 1356462594
PfmFamily: 17
TTFWeight: 300
TTFWidth: 5
LineGap: 92
VLineGap: 0
OS2TypoAscent: 0
OS2TypoAOffset: 1
OS2TypoDescent: 0
OS2TypoDOffset: 1
OS2TypoLinegap: 92
OS2WinAscent: 0
OS2WinAOffset: 1
OS2WinDescent: 0
OS2WinDOffset: 1
HheadAscent: 0
HheadAOffset: 1
HheadDescent: 0
HheadDOffset: 1
OS2Vendor: 'PfEd'
MarkAttachClasses: 1
DEI: 91125
ShortTable: maxp 16
  0
  0
  0
  0
  0
  0
  0
  2
  1
  2
  22
  0
  256
  0
  0
  0
EndShort
TtTable: prep
PUSHW_1
 511
SCANCTRL
PUSHB_1
 1
SCANTYPE
SVTCA[y-axis]
MPPEM
PUSHB_1
 8
LT
IF
PUSHB_2
 1
 1
INSTCTRL
EIF
PUSHB_2
 70
 6
CALL
IF
POP
PUSHB_1
 16
EIF
MPPEM
PUSHB_1
 20
GT
IF
POP
PUSHB_1
 128
EIF
SCVTCI
PUSHB_1
 6
CALL
NOT
IF
SVTCA[y-axis]
PUSHB_1
 4
DUP
RCVT
PUSHB_1
 3
CALL
WCVTP
PUSHB_1
 5
DUP
RCVT
PUSHB_3
 4
 141
 2
CALL
PUSHB_1
 3
CALL
WCVTP
SVTCA[x-axis]
PUSHB_1
 6
DUP
RCVT
PUSHB_1
 3
CALL
WCVTP
EIF
PUSHB_1
 20
CALL
EndTTInstrs
TtTable: fpgm
PUSHB_1
 0
FDEF
PUSHB_1
 0
SZP0
MPPEM
PUSHB_1
 50
LT
IF
PUSHB_1
 74
SROUND
EIF
PUSHB_1
 0
SWAP
MIAP[rnd]
RTG
PUSHB_1
 6
CALL
IF
RTDG
EIF
MPPEM
PUSHB_1
 50
LT
IF
RDTG
EIF
DUP
MDRP[rp0,rnd,grey]
PUSHB_1
 1
SZP0
MDAP[no-rnd]
RTG
ENDF
PUSHB_1
 1
FDEF
DUP
MDRP[rp0,min,white]
PUSHB_1
 12
CALL
ENDF
PUSHB_1
 2
FDEF
MPPEM
GT
IF
RCVT
SWAP
EIF
POP
ENDF
PUSHB_1
 3
FDEF
ROUND[Black]
RTG
DUP
PUSHB_1
 64
LT
IF
POP
PUSHB_1
 64
EIF
ENDF
PUSHB_1
 4
FDEF
PUSHB_1
 6
CALL
IF
POP
SWAP
POP
ROFF
IF
MDRP[rp0,min,rnd,black]
ELSE
MDRP[min,rnd,black]
EIF

StartChar: A
Encoding: 65 65 0
Width: 869
VWidth: 1000
Flags: W
HStem: -5 56<41.0681 159.125 220.628 294.779 498.219 592 747.094 830.812> 193 57<345 562>
LayerCount: 2
Fore
SplineSet
744 68 m 2,0,1
 746 59 746 59 747 55 c 0,2,3
 750 54 750 54 755 53 c 0,4,5
 766 52 766 52 794 52 c 0,6,7
 810 52 810 52 817 51 c 0,8,9
 825 50 825 50 831 46 c 0,10,11
 839 41 839 41 839 29 c 0,12,13
 839 14 839 14 832 6 c 128,-1,14
 825 -2 825 -2 820 -4 c 2,15,-1
 819 -4 l 2,16,17
 813 -5 813 -5 806 -5 c 0,18,19
 794 -5 794 -5 771 -4 c 128,-1,20
 748 -3 748 -3 736 -3 c 128,-1,21
 724 -3 724 -3 701 -2.5 c 128,-1,22
 678 -2 678 -2 667 -2 c 0,23,24
 650 -2 650 -2 592 -3.5 c 128,-1,25
 534 -5 534 -5 518 -5 c 0,26,27
 491 -5 491 -5 491 18 c 0,28,29
 491 34 491 34 498 42 c 128,-1,30
 505 50 505 50 513 51 c 0,31,32
 519 52 519 52 533 52 c 0,33,34
 570 52 570 52 592 56 c 1,35,-1
 571 193 l 1,36,-1
 308 193 l 1,37,-1
 220 60 l 1,38,39
 240 52 240 52 271 52 c 128,-1,40
 302 52 302 52 302 29 c 0,41,42
 302 14 302 14 295 4.5 c 128,-1,43
 288 -5 288 -5 270 -5 c 128,-1,44
 252 -5 252 -5 215 -3 c 0,45,46
 178 -2 178 -2 159 -2 c 0,47,48
 143 -2 143 -2 111 -3 c 0,49,50
 79 -5 79 -5 64 -5 c 0,51,52
 54 -5 54 -5 47 2 c 128,-1,53
 40 9 40 9 40 18 c 0,54,55
 40 33 40 33 47 41.5 c 128,-1,56
 54 50 54 50 61 51 c 0,57,58
 66 52 66 52 77 52 c 0,59,60
 110 52 110 52 131 58 c 0,61,62
 151 64 151 64 156 70 c 0,63,64
 162 76 162 76 170 88 c 2,65,-1
 563 689 l 2,66,67
 574 706 574 706 583.5 711 c 128,-1,68
 593 716 593 716 611 716 c 0,69,70
 632 716 632 716 639.5 710 c 128,-1,71
 647 704 647 704 650 683 c 2,72,-1
 744 68 l 2,0,1
521 519 m 1,73,-1
 345 250 l 1,74,-1
 562 250 l 1,75,-1
 521 519 l 1,73,-1
EndSplineSet
Validated: 19457
EndChar

StartChar: B
Encoding: 66 66 1
Width: 866
VWidth: 1000
Flags: W
HStem: -5 57<39.1865 152.874 153 154 294 567.713> 334 46<375 622.351> 634 57<205.219 300 441.031 690.438>
VStem: 660 149<146.887 294.276> 714 145<472.712 611.656>
LayerCount: 2
Fore
SplineSet
300 632 m 1,0,1
 263 634 263 634 245 634 c 128,-1,2
 227 634 227 634 220 635 c 0,3,4
 211 636 211 636 205 640 c 0,5,6
 198 646 198 646 198 657 c 0,7,8
 198 673 198 673 205 681 c 128,-1,9
 212 689 212 689 220 690 c 0,10,11
 226 691 226 691 240 691 c 2,12,-1
 641 691 l 2,13,14
 746 691 746 691 802 652 c 0,15,16
 859 613 859 613 859 547 c 0,17,18
 859 486 859 486 804 430 c 0,19,20
 757 381 757 381 667 359 c 1,21,22
 723 349 723 349 761 321 c 0,23,24
 809 285 809 285 809 221 c 0,25,26
 809 185 809 185 790 146 c 0,27,28
 771 108 771 108 735 73.5 c 128,-1,29
 699 39 699 39 637.5 17 c 128,-1,30
 576 -5 576 -5 501 -5 c 2,31,-1
 77 -5 l 2,32,33
 38 -5 38 -5 38 18 c 128,-1,34
 38 41 38 41 53 49 c 0,35,36
 54 49 54 49 55 50 c 2,37,-1
 56 50 l 2,38,39
 63 52 63 52 87 52 c 0,40,41
 126 52 126 52 140 53 c 0,42,43
 149 54 149 54 153 55 c 2,44,-1
 153 56 l 1,45,-1
 154 56 l 2,46,-1
 154 57 l 2,47,48
 156 60 156 60 158 68 c 2,49,-1
 300 632 l 1,0,1
436 620 m 2,50,-1
 375 380 l 1,51,-1
 527 380 l 2,52,53
 574 380 574 380 612 397 c 128,-1,54
 650 414 650 414 671 441 c 128,-1,55
 692 468 692 468 703 496.5 c 128,-1,56
 714 525 714 525 714 552 c 0,57,58
 714 634 714 634 618 634 c 2,59,-1
 469 634 l 2,60,61
 451 634 451 634 443 633 c 0,62,63
 442 633 442 633 441 632 c 0,64,65
 438 629 438 629 436 620 c 2,50,-1
312 52 m 2,66,-1
 472 52 l 2,67,68
 521 52 521 52 559.5 70 c 128,-1,69
 598 88 598 88 619 116.5 c 128,-1,70
 640 145 640 145 650 176 c 128,-1,71
 660 207 660 207 660 237 c 0,72,73
 660 334 660 334 555 334 c 2,74,-1
 364 334 l 1,75,-1
 294 52 l 1,76,77
 301 52 301 52 312 52 c 2,66,-1
EndSplineSet
Validated: 19457
EndChar

StartChar: C
Encoding: 67 67 2
Width: 816
VWidth: 1000
Flags: W
HStem: -22 57<292.619 515.497> 651 57<444.113 661.322>
VStem: 50 149<136.405 350.047> 696 50<195.329 252.773>
LayerCount: 2
Fore
SplineSet
800 447 m 2,0,1
 796 433 796 433 792 427 c 0,2,3
 791 425 791 425 790 425 c 0,4,5
 788 424 788 424 787.5 423.5 c 128,-1,6
 787 423 787 423 786 423 c 0,7,8
 780 421 780 421 767 421 c 0,9,10
 735 421 735 421 735 441 c 0,11,12
 735 446 735 446 737 459 c 0,13,14
 738 471 738 471 738 476 c 0,15,16
 738 548 738 548 695 600 c 0,17,18
 653 651 653 651 570 651 c 0,19,20
 491 651 491 651 423 620 c 0,21,22
 356 590 356 590 313 541 c 0,23,24
 268 488 268 488 241 411 c 0,25,26
 213 332 213 332 206 285 c 128,-1,27
 199 238 199 238 199 212 c 0,28,29
 199 123 199 123 255 80 c 0,30,31
 313 35 313 35 408 35 c 0,32,33
 497 35 497 35 578 88 c 0,34,35
 660 141 660 141 688 230 c 0,36,37
 692 242 692 242 696 247 c 2,38,-1
 696 248 l 1,39,-1
 697 248 l 2,40,41
 697 249 l 0,42,43
 698 250 698 250 700 251 c 0,44,45
 705 253 705 253 718 253 c 0,46,47
 746 253 746 253 746 234 c 0,48,49
 746 225 746 225 739 202.5 c 128,-1,50
 732 180 732 180 702 137 c 0,51,52
 672 93 672 93 629 61 c 0,53,54
 517 -22 517 -22 381 -22 c 0,55,56
 238 -22 238 -22 145 47 c 0,57,58
 50 116 50 116 50 253 c 0,59,60
 50 316 50 316 70.5 380 c 128,-1,61
 91 444 91 444 134 503 c 128,-1,62
 177 562 177 562 236 607.5 c 128,-1,63
 295 653 295 653 377.5 680.5 c 128,-1,64
 460 708 460 708 554 708 c 0,65,66
 671 708 671 708 738 638 c 1,67,-1
 828 708 l 1,68,-1
 830 708 l 2,69,70
 860 708 860 708 860 689 c 0,71,72
 860 688 860 688 857 672 c 2,73,-1
 800 447 l 2,0,1
787 424 m 1,74,-1
 787 424 l 1,74,-1
EndSplineSet
Validated: 19457
EndChar

StartChar: D
Encoding: 68 68 3
Width: 938
VWidth: 1000
Flags: W
HStem: -5 57<39.1865 152.874 153 154 299 568> 634 57<205.219 300 446.031 700.779>
VStem: 777 143<338.457 552.41>
LayerCount: 2
Fore
SplineSet
300 632 m 1,0,1
 263 634 263 634 245 634 c 128,-1,2
 227 634 227 634 220 635 c 0,3,4
 211 636 211 636 205 640 c 0,5,6
 198 646 198 646 198 657 c 0,7,8
 198 673 198 673 205 681 c 128,-1,9
 212 689 212 689 220 690 c 0,10,11
 226 691 226 691 240 691 c 2,12,-1
 639 691 l 2,13,14
 761 691 761 691 840 628 c 0,15,16
 920 564 920 564 920 439 c 0,17,18
 920 360 920 360 889.5 282.5 c 128,-1,19
 859 205 859 205 803.5 140.5 c 128,-1,20
 748 76 748 76 660 35.5 c 128,-1,21
 572 -5 572 -5 468 -5 c 2,22,-1
 77 -5 l 2,23,24
 38 -5 38 -5 38 18 c 128,-1,25
 38 41 38 41 53 49 c 0,26,27
 54 49 54 49 55 50 c 2,28,-1
 56 50 l 2,29,30
 63 52 63 52 87 52 c 0,31,32
 126 52 126 52 140 53 c 0,33,34
 149 54 149 54 153 55 c 2,35,-1
 153 56 l 1,36,-1
 154 56 l 2,37,-1
 154 57 l 2,38,39
 156 60 156 60 158 68 c 2,40,-1
 300 632 l 1,0,1
441 620 m 2,41,-1
 299 52 l 1,42,43
 306 52 306 52 317 52 c 2,44,-1
 441 52 l 2,45,46
 635 52 635 52 713 212 c 0,47,48
 733 252 733 252 755 338.5 c 128,-1,49
 777 425 777 425 777 474 c 0,50,51
 777 554 777 554 729 594 c 1,52,53
 678 634 678 634 588 634 c 2,54,-1
 474 634 l 2,55,56
 456 634 456 634 448 633 c 0,57,58
 447 633 447 633 446 632 c 0,59,60
 443 629 443 629 441 620 c 2,41,-1
EndSplineSet
Validated: 19457
EndChar

StartChar: E
Encoding: 69 69 4
Width: 810
VWidth: 1000
Flags: W
HStem: -5 57<39.1865 152.874 153 154 305 589.158> 324 57<387 497.493> 628 57<208.253 298 448 722.889>
VStem: 503 53<207.275 261.204> 561 60<416.188 490.841> 753 55<434.375 513.716>
LayerCount: 2
Fore
SplineSet
676 -1 m 0,0,-1
 675 -1 l 2,1,2
 668 -5 668 -5 648 -5 c 2,3,-1
 77 -5 l 2,4,5
 38 -5 38 -5 38 18 c 128,-1,6
 38 41 38 41 53 49 c 0,7,8
 54 49 54 49 55 50 c 2,9,-1
 56 50 l 2,10,11
 63 52 63 52 87 52 c 0,12,13
 126 52 126 52 140 53 c 0,14,15
 149 54 149 54 153 55 c 2,16,-1
 153 56 l 1,17,-1
 154 56 l 2,18,-1
 154 57 l 2,19,20
 156 60 156 60 158 68 c 2,21,-1
 298 626 l 1,22,23
 261 628 261 628 243 628 c 0,24,25
 226 628 226 628 219 629 c 0,26,27
 211 630 211 630 205 634 c 0,28,29
 197 639 197 639 197 651 c 0,30,31
 197 671 197 671 208 679 c 0,32,33
 216 685 216 685 238 685 c 2,34,-1
 792 685 l 2,35,36
 830 685 830 685 830 662 c 1,37,-1
 829 646 l 1,38,-1
 811 467 l 2,39,40
 810 455 810 455 808 450 c 0,41,42
 806 444 806 444 800 439 c 128,-1,43
 794 434 794 434 782 434 c 0,44,45
 753 434 753 434 753 458 c 0,46,47
 753 466 753 466 755 486 c 0,48,49
 757 505 757 505 757 514 c 0,50,51
 757 580 757 580 725 604 c 0,52,53
 692 628 692 628 609 628 c 2,54,-1
 478 628 l 2,55,56
 460 628 460 628 448 627 c 1,57,-1
 387 381 l 1,58,-1
 441 381 l 2,59,60
 497 381 497 381 522 398 c 128,-1,61
 547 415 547 415 561 468 c 0,62,63
 566 486 566 486 571 491 c 0,64,65
 577 498 577 498 592 498 c 0,66,67
 621 498 621 498 621 475 c 0,68,69
 621 471 621 471 617 458 c 2,70,-1
 561 235 l 2,71,72
 558 224 558 224 556 220 c 0,73,74
 554 215 554 215 547.5 211 c 128,-1,75
 541 207 541 207 531 207 c 0,76,77
 503 207 503 207 503 230 c 1,78,-1
 504 240 l 1,79,-1
 504 241 l 1,80,-1
 504 242 l 2,81,82
 512 265 512 265 512 286 c 0,83,84
 512 308 512 308 498 316 c 0,85,86
 482 324 482 324 438 324 c 2,87,-1
 373 324 l 1,88,-1
 305 52 l 1,89,90
 312 52 312 52 323 52 c 2,91,-1
 453 52 l 2,92,93
 570 52 570 52 625 95 c 0,94,95
 681 139 681 139 729 247 c 0,96,97
 739 270 739 270 743 274 c 0,98,99
 744 275 744 275 746 276 c 0,100,-1
 747 276 l 0,101,102
 753 279 753 279 763 279 c 0,103,104
 792 279 792 279 792 256 c 0,105,106
 792 250 792 250 786 236 c 2,107,-1
 690 19 l 2,108,109
 683 3 683 3 676 -1 c 0,0,-1
676 -1 m 1,110,-1
 676 -1 l 1,110,-1
EndSplineSet
Validated: 19457
EndChar

StartChar: F
Encoding: 70 70 5
Width: 688
VWidth: 1000
Flags: W
HStem: -3 55<39.292 152.874 153 154 305 432.072> 312 57<384 489.524> 628 57<208.253 298 448 709.012>
VStem: 494 58<195.679 251.544> 737 55<434.375 515.656>
LayerCount: 2
Fore
SplineSet
305 55 m 1,0,1
 325 52 325 52 362 52 c 2,2,-1
 395 52 l 2,3,4
 433 52 433 52 433 29 c 0,5,6
 433 -5 433 -5 398 -5 c 0,7,8
 384 -5 384 -5 355.5 -4 c 128,-1,9
 327 -3 327 -3 312 -3 c 128,-1,10
 297 -3 297 -3 267 -2.5 c 128,-1,11
 237 -2 237 -2 222 -2 c 0,12,13
 208 -2 208 -2 181 -2.5 c 128,-1,14
 154 -3 154 -3 141 -3 c 128,-1,15
 128 -3 128 -3 103 -4 c 128,-1,16
 78 -5 78 -5 65 -5 c 0,17,18
 38 -5 38 -5 38 18 c 128,-1,19
 38 41 38 41 53 49 c 0,20,21
 54 49 54 49 55 50 c 2,22,-1
 56 50 l 2,23,24
 63 52 63 52 87 52 c 0,25,26
 126 52 126 52 140 53 c 0,27,28
 149 54 149 54 153 55 c 2,29,-1
 153 56 l 1,30,-1
 154 56 l 2,31,-1
 154 57 l 2,32,33
 156 60 156 60 158 68 c 2,34,-1
 298 626 l 1,35,36
 261 628 261 628 243 628 c 0,37,38
 226 628 226 628 219 629 c 0,39,40
 211 630 211 630 205 634 c 0,41,42
 197 639 197 639 197 651 c 0,43,44
 197 671 197 671 208 679 c 0,45,46
 216 685 216 685 238 685 c 2,47,-1
 776 685 l 2,48,49
 814 685 814 685 814 662 c 1,50,-1
 813 646 l 1,51,-1
 795 467 l 2,52,53
 794 455 794 455 792 450 c 0,54,55
 790 444 790 444 784 439 c 128,-1,56
 778 434 778 434 766 434 c 0,57,58
 737 434 737 434 737 458 c 0,59,60
 737 459 737 459 738 469 c 0,61,62
 739 478 739 478 740 491.5 c 128,-1,63
 741 505 741 505 741 516 c 0,64,65
 741 580 741 580 711 604 c 0,66,67
 680 628 680 628 597 628 c 2,68,-1
 478 628 l 2,69,70
 460 628 460 628 448 627 c 1,71,-1
 384 369 l 1,72,-1
 434 369 l 2,73,74
 488 369 488 369 514 386 c 0,75,76
 539 403 539 403 552 456 c 0,77,78
 556 473 556 473 562 479 c 0,79,80
 568 486 568 486 583 486 c 0,81,82
 612 486 612 486 612 463 c 0,83,84
 612 459 612 459 608 446 c 2,85,-1
 552 223 l 2,86,87
 549 212 549 212 547 208 c 0,88,89
 545 203 545 203 538.5 199 c 128,-1,90
 532 195 532 195 522 195 c 0,91,92
 494 195 494 195 494 218 c 0,93,94
 494 221 494 221 497 233 c 0,95,96
 503 255 503 255 503 274 c 0,97,98
 503 296 503 296 490 304 c 0,99,100
 475 312 475 312 431 312 c 2,101,-1
 370 312 l 1,102,-1
 305 55 l 1,0,1
EndSplineSet
Validated: 19457
EndChar

StartChar: G
Encoding: 71 71 6
Width: 886
VWidth: 1000
Flags: W
HStem: -22 57<294.933 510.275> -5 21G<665.5 674> 224 57<457.371 592.647 745.062 829.927> 651 57<444.74 660.772>
VStem: 50 150<137.859 354.722>
LayerCount: 2
Fore
SplineSet
693 22 m 2,0,1
 688 3 688 3 680 -2 c 0,2,3
 676 -5 676 -5 672 -5 c 0,4,5
 671 -5 671 -5 670 -5 c 0,6,7
 661 -4 661 -4 633 13 c 0,8,9
 606 29 606 29 589 45 c 1,10,11
 561 18 561 18 510 -2 c 0,12,13
 456 -22 456 -22 382 -22 c 0,14,15
 234 -22 234 -22 142 48 c 0,16,17
 50 119 50 119 50 253 c 0,18,19
 50 316 50 316 70.5 380 c 128,-1,20
 91 444 91 444 134 503 c 128,-1,21
 177 562 177 562 236 607.5 c 128,-1,22
 295 653 295 653 377 680.5 c 128,-1,23
 459 708 459 708 553 708 c 0,24,25
 664 708 664 708 736 638 c 1,26,-1
 827 708 l 1,27,-1
 829 708 l 2,28,29
 859 708 859 708 859 689 c 0,30,31
 859 688 859 688 856 672 c 2,32,-1
 799 447 l 2,33,34
 795 433 795 433 791 427 c 0,35,36
 790 425 790 425 789 425 c 0,37,38
 787 424 787 424 786.5 423.5 c 128,-1,39
 786 423 786 423 785 423 c 0,40,41
 779 421 779 421 766 421 c 0,42,43
 734 421 734 421 734 441 c 0,44,45
 734 446 734 446 736 459 c 0,46,47
 737 471 737 471 737 477 c 0,48,49
 737 546 737 546 695 599 c 0,50,51
 654 651 654 651 569 651 c 0,52,53
 494 651 494 651 427 622 c 128,-1,54
 360 593 360 593 317 546 c 0,55,56
 255 476 255 476 227.5 375 c 128,-1,57
 200 274 200 274 200 215 c 0,58,59
 200 126 200 126 251 84 c 0,60,61
 311 35 311 35 413 35 c 0,62,63
 466 35 466 35 512 58 c 0,64,65
 557 80 557 80 568 125 c 2,66,-1
 568 127 l 1,67,-1
 569 128 l 2,68,-1
 577 159 l 0,69,70
 579 168 579 168 581.5 177.5 c 128,-1,71
 584 187 584 187 585 191.5 c 128,-1,72
 586 196 586 196 586 197 c 0,73,74
 587 200 587 200 588.5 205.5 c 128,-1,75
 590 211 590 211 591 215 c 128,-1,76
 592 219 592 219 593 221 c 1,77,78
 582 224 582 224 532 224 c 2,79,-1
 495 224 l 2,80,81
 456 224 456 224 456 247 c 0,82,83
 456 281 456 281 492 281 c 0,84,85
 512 281 512 281 581 279.5 c 128,-1,86
 650 278 650 278 670 278 c 0,87,88
 681 278 681 278 703.5 278.5 c 128,-1,89
 726 279 726 279 737 279 c 0,90,91
 749 279 749 279 771 280 c 0,92,93
 794 281 794 281 805 281 c 0,94,95
 831 281 831 281 831 258 c 128,-1,96
 831 235 831 235 819 229 c 0,97,98
 809 224 809 224 785 224 c 0,99,100
 759 224 759 224 748 222 c 0,101,102
 747 222 747 222 745 221 c 0,103,104
 742 218 742 218 740 209 c 2,105,-1
 693 22 l 2,0,1
786 424 m 1,106,-1
 786 424 l 1,106,-1
EndSplineSet
Validated: 19457
EndChar

StartChar: H
Encoding: 72 72 7
Width: 982
VWidth: 1000
Flags: W
HStem: -5 55<38.824 152.874 153 154 305 397.812 504.824 618.874 619 620 771 863.812> 328 57<388 690> 634 56<205.188 300 449 552 671.188 766 915 1018>
LayerCount: 2
Fore
SplineSet
771 54 m 1,0,1
 808 52 808 52 826 52 c 0,2,3
 843 52 843 52 850 51 c 0,4,5
 858 50 858 50 864 46 c 0,6,7
 872 41 872 41 872 29 c 0,8,9
 872 14 872 14 865 4 c 0,10,11
 859 -5 859 -5 838 -5 c 0,12,13
 826 -5 826 -5 799.5 -4 c 128,-1,14
 773 -3 773 -3 760 -3 c 0,15,16
 748 -3 748 -3 722 -2.5 c 128,-1,17
 696 -2 696 -2 683 -2 c 128,-1,18
 670 -2 670 -2 645 -2.5 c 128,-1,19
 620 -3 620 -3 607 -3 c 128,-1,20
 594 -3 594 -3 569 -4 c 128,-1,21
 544 -5 544 -5 531 -5 c 0,22,23
 504 -5 504 -5 504 18 c 128,-1,24
 504 41 504 41 519 49 c 0,25,26
 520 49 520 49 521 50 c 2,27,-1
 522 50 l 2,28,29
 529 52 529 52 553 52 c 0,30,31
 592 52 592 52 606 53 c 0,32,33
 615 54 615 54 619 55 c 2,34,-1
 619 56 l 1,35,-1
 620 56 l 2,36,-1
 620 57 l 2,37,38
 622 60 622 60 624 68 c 2,39,-1
 690 328 l 1,40,-1
 374 328 l 1,41,-1
 305 54 l 1,42,43
 342 52 342 52 360 52 c 0,44,45
 377 52 377 52 384 51 c 0,46,47
 392 50 392 50 398 46 c 0,48,49
 406 41 406 41 406 29 c 0,50,51
 406 14 406 14 399 4 c 0,52,53
 393 -5 393 -5 372 -5 c 0,54,55
 360 -5 360 -5 333.5 -4 c 128,-1,56
 307 -3 307 -3 294 -3 c 0,57,58
 282 -3 282 -3 256 -2.5 c 128,-1,59
 230 -2 230 -2 217 -2 c 128,-1,60
 204 -2 204 -2 179 -2.5 c 128,-1,61
 154 -3 154 -3 141 -3 c 128,-1,62
 128 -3 128 -3 103 -4 c 128,-1,63
 78 -5 78 -5 65 -5 c 0,64,65
 38 -5 38 -5 38 18 c 128,-1,66
 38 41 38 41 53 49 c 0,67,68
 54 49 54 49 55 50 c 2,69,-1
 56 50 l 2,70,71
 63 52 63 52 87 52 c 0,72,73
 126 52 126 52 140 53 c 0,74,75
 149 54 149 54 153 55 c 2,76,-1
 153 56 l 1,77,-1
 154 56 l 2,78,-1
 154 57 l 2,79,80
 156 60 156 60 158 68 c 2,81,-1
 300 632 l 1,82,83
 263 634 263 634 245 634 c 128,-1,84
 227 634 227 634 220 635 c 0,85,86
 211 636 211 636 205 640 c 0,87,88
 198 646 198 646 198 657 c 0,89,90
 198 672 198 672 205 680.5 c 128,-1,91
 212 689 212 689 219 690 c 0,92,93
 224 691 224 691 232 691 c 0,94,95
 245 691 245 691 271.5 690 c 128,-1,96
 298 689 298 689 311 689 c 0,97,98
 323 689 323 689 349 688.5 c 128,-1,99
 375 688 375 688 388 688 c 0,100,101
 400 688 400 688 425 688.5 c 128,-1,102
 450 689 450 689 463 689 c 128,-1,103
 476 689 476 689 501 690 c 128,-1,104
 526 691 526 691 539 691 c 0,105,106
 566 691 566 691 566 668 c 0,107,108
 566 647 566 647 553 638 c 0,109,-1
 552 637 l 0,110,111
 546 634 546 634 513 634 c 0,112,113
 471 634 471 634 449 631 c 1,114,-1
 388 385 l 1,115,-1
 704 385 l 1,116,-1
 766 632 l 1,117,118
 729 634 729 634 711 634 c 128,-1,119
 693 634 693 634 686 635 c 0,120,121
 677 636 677 636 671 640 c 0,122,123
 664 646 664 646 664 657 c 0,124,125
 664 672 664 672 671 680.5 c 128,-1,126
 678 689 678 689 685 690 c 0,127,128
 690 691 690 691 698 691 c 0,129,130
 711 691 711 691 737.5 690 c 128,-1,131
 764 689 764 689 777 689 c 0,132,133
 789 689 789 689 815 688.5 c 128,-1,134
 841 688 841 688 854 688 c 0,135,136
 866 688 866 688 891 688.5 c 128,-1,137
 916 689 916 689 929 689 c 128,-1,138
 942 689 942 689 967 690 c 128,-1,139
 992 691 992 691 1005 691 c 0,140,141
 1032 691 1032 691 1032 668 c 0,142,143
 1032 647 1032 647 1019 638 c 0,144,-1
 1018 637 l 0,145,146
 1012 634 1012 634 979 634 c 0,147,148
 937 634 937 634 915 631 c 1,149,-1
 771 54 l 1,0,1
EndSplineSet
Validated: 19457
EndChar

StartChar: I
Encoding: 73 73 8
Width: 511
VWidth: 1000
Flags: W
HStem: -5 57<40.219 153 305 410.629> 634 56<200.219 300 446 559.747>
LayerCount: 2
Fore
SplineSet
305 54 m 1,0,1
 328 52 328 52 352 52 c 2,2,-1
 373 52 l 2,3,4
 412 52 412 52 412 29 c 0,5,6
 412 -5 412 -5 377 -5 c 0,7,8
 365 -5 365 -5 339 -4 c 128,-1,9
 313 -3 313 -3 300 -3 c 0,10,11
 286 -3 286 -3 258.5 -2.5 c 128,-1,12
 231 -2 231 -2 217 -2 c 0,13,14
 204 -2 204 -2 177 -2.5 c 128,-1,15
 150 -3 150 -3 136 -3 c 0,16,17
 124 -3 124 -3 98 -4 c 128,-1,18
 72 -5 72 -5 60 -5 c 0,19,20
 33 -5 33 -5 33 18 c 0,21,22
 33 34 33 34 40 42 c 128,-1,23
 47 50 47 50 55 51 c 0,24,25
 61 52 61 52 75 52 c 2,26,-1
 96 52 l 2,27,28
 123 52 123 52 138 54 c 0,29,30
 151 56 151 56 153 56 c 0,31,-1
 154 57 l 2,32,33
 156 60 156 60 158 68 c 2,34,-1
 300 632 l 1,35,36
 265 634 265 634 253 634 c 2,37,-1
 232 634 l 2,38,39
 220 634 220 634 214 635 c 0,40,41
 207 636 207 636 200 641 c 0,42,43
 193 647 193 647 193 657 c 0,44,45
 193 672 193 672 199.5 680.5 c 128,-1,46
 206 689 206 689 213 690 c 0,47,48
 218 691 218 691 227 691 c 0,49,50
 239 691 239 691 265.5 690 c 128,-1,51
 292 689 292 689 305 689 c 128,-1,52
 318 689 318 689 346 688.5 c 128,-1,53
 374 688 374 688 388 688 c 128,-1,54
 402 688 402 688 428.5 688.5 c 128,-1,55
 455 689 455 689 468 689 c 0,56,57
 480 689 480 689 506 690 c 128,-1,58
 532 691 532 691 544 691 c 0,59,60
 571 691 571 691 571 668 c 0,61,62
 571 648 571 648 560 640 c 0,63,64
 552 634 552 634 530 634 c 2,65,-1
 509 634 l 2,66,67
 480 634 480 634 466 633 c 0,68,69
 454 632 454 632 451 630 c 0,70,-1
 450 630 l 2,71,72
 448 627 448 627 446 617 c 2,73,-1
 305 54 l 1,0,1
EndSplineSet
Validated: 19457
EndChar

StartChar: J
Encoding: 74 74 9
Width: 631
VWidth: 1000
Flags: W
HStem: -22 46<145.602 281.152> 634 57<333.246 465 612.062 687.653>
VStem: 51 160<71.3516 157.953>
LayerCount: 2
Fore
SplineSet
488 145 m 2,0,1
 467 61 467 61 391 19.5 c 128,-1,2
 315 -22 315 -22 221 -22 c 0,3,4
 146 -22 146 -22 98.5 8 c 128,-1,5
 51 38 51 38 51 92 c 0,6,7
 51 138 51 138 80 165 c 128,-1,8
 109 192 109 192 145 192 c 0,9,10
 173 192 173 192 192 174.5 c 128,-1,11
 211 157 211 157 211 130 c 128,-1,12
 211 103 211 103 193.5 77.5 c 128,-1,13
 176 52 176 52 145 41 c 1,14,15
 173 24 173 24 216 24 c 0,16,17
 255 24 255 24 292 54 c 128,-1,18
 329 84 329 84 345 152 c 2,19,-1
 465 632 l 1,20,21
 442 634 442 634 406 634 c 2,22,-1
 371 634 l 2,23,24
 359 634 359 634 352.5 634.5 c 128,-1,25
 346 635 346 635 339 641 c 128,-1,26
 332 647 332 647 332 657 c 0,27,28
 332 691 332 691 367 691 c 0,29,30
 386 691 386 691 454 689.5 c 128,-1,31
 522 688 522 688 541 688 c 0,32,33
 553 688 553 688 576 688.5 c 128,-1,34
 599 689 599 689 610 689 c 128,-1,35
 621 689 621 689 642 690 c 128,-1,36
 663 691 663 691 673 691 c 0,37,38
 699 691 699 691 699 668 c 128,-1,39
 699 645 699 645 688 639.5 c 128,-1,40
 677 634 677 634 652 634 c 0,41,42
 626 634 626 634 615 632 c 0,43,44
 614 632 614 632 612 631 c 0,45,46
 609 628 609 628 607 619 c 2,47,-1
 488 145 l 2,0,1
EndSplineSet
Validated: 19457
EndChar

StartChar: K
Encoding: 75 75 10
Width: 971
VWidth: 1000
Flags: W
HStem: -5 57<39.292 152.874 153 154 305 397.812 541.222 616.404 788.225 856.779> 634 54<205.188 300 449 552 747.708 810.499 880.047 1001.3>
LayerCount: 2
Fore
SplineSet
775 69 m 2,0,1
 781 58 781 58 788 55 c 128,-1,2
 795 52 795 52 827 52 c 0,3,4
 864 52 864 52 864 29 c 0,5,6
 864 14 864 14 857 4.5 c 128,-1,7
 850 -5 850 -5 832 -5 c 0,8,9
 823 -5 823 -5 802 -4 c 0,10,11
 782 -3 782 -3 772 -3 c 128,-1,12
 762 -3 762 -3 740 -2.5 c 128,-1,13
 718 -2 718 -2 708 -2 c 0,14,15
 692 -2 692 -2 634 -3.5 c 128,-1,16
 576 -5 576 -5 560 -5 c 0,17,18
 534 -5 534 -5 534 18 c 0,19,20
 534 34 534 34 541 43 c 128,-1,21
 548 52 548 52 570 52 c 0,22,23
 598 52 598 52 617 56 c 1,24,-1
 473 335 l 1,25,-1
 355 254 l 1,26,-1
 305 54 l 1,27,28
 342 52 342 52 360 52 c 0,29,30
 377 52 377 52 384 51 c 0,31,32
 392 50 392 50 398 46 c 0,33,34
 406 41 406 41 406 29 c 0,35,36
 406 14 406 14 399 4 c 0,37,38
 392 -5 392 -5 372 -5 c 0,39,40
 360 -5 360 -5 333.5 -4 c 128,-1,41
 307 -3 307 -3 294 -3 c 0,42,43
 282 -3 282 -3 256 -2.5 c 128,-1,44
 230 -2 230 -2 217 -2 c 128,-1,45
 204 -2 204 -2 179 -2.5 c 128,-1,46
 154 -3 154 -3 141 -3 c 128,-1,47
 128 -3 128 -3 103 -4 c 128,-1,48
 78 -5 78 -5 65 -5 c 0,49,50
 38 -5 38 -5 38 18 c 128,-1,51
 38 41 38 41 53 49 c 0,52,53
 54 49 54 49 55 50 c 2,54,-1
 56 50 l 2,55,56
 63 52 63 52 87 52 c 0,57,58
 126 52 126 52 140 53 c 0,59,60
 149 54 149 54 153 55 c 2,61,-1
 153 56 l 1,62,-1
 154 56 l 2,63,-1
 154 57 l 2,64,65
 156 60 156 60 158 68 c 2,66,-1
 300 632 l 1,67,68
 263 634 263 634 245 634 c 128,-1,69
 227 634 227 634 220 635 c 0,70,71
 211 636 211 636 205 640 c 0,72,73
 198 646 198 646 198 657 c 0,74,75
 198 672 198 672 205 680.5 c 128,-1,76
 212 689 212 689 219 690 c 0,77,78
 224 691 224 691 232 691 c 0,79,80
 245 691 245 691 271.5 690 c 128,-1,81
 298 689 298 689 311 689 c 0,82,83
 323 689 323 689 349 688.5 c 128,-1,84
 375 688 375 688 388 688 c 0,85,86
 400 688 400 688 425 688.5 c 128,-1,87
 450 689 450 689 463 689 c 128,-1,88
 476 689 476 689 501 690 c 128,-1,89
 526 691 526 691 539 691 c 0,90,91
 566 691 566 691 566 668 c 0,92,93
 566 647 566 647 553 638 c 0,94,-1
 552 637 l 0,95,96
 546 634 546 634 513 634 c 0,97,98
 471 634 471 634 449 631 c 1,99,-1
 374 329 l 1,100,-1
 811 630 l 1,101,102
 795 634 795 634 776 634 c 0,103,104
 747 634 747 634 747 657 c 0,105,106
 747 691 747 691 780 691 c 0,107,108
 800 691 800 691 842 689.5 c 128,-1,109
 884 688 884 688 905 688 c 0,110,111
 918 688 918 688 945 689 c 0,112,113
 973 691 973 691 985 691 c 0,114,115
 994 691 994 691 1001 684 c 128,-1,116
 1008 677 1008 677 1008 668 c 0,117,118
 1008 653 1008 653 1001.5 645 c 128,-1,119
 995 637 995 637 987 636 c 0,120,121
 978 634 978 634 969 634 c 0,122,123
 919 632 919 632 876 610 c 0,124,125
 842 593 842 593 595 418 c 1,126,-1
 775 69 l 2,0,1
EndSplineSet
Validated: 19457
EndChar

StartChar: L
Encoding: 76 76 11
Width: 755
VWidth: 1000
Flags: W
HStem: -5 57<39.1865 154 305 512.402> 634 56<205.188 300 450.324 592.016>
VStem: 651 61<200.306 273.871>
LayerCount: 2
Fore
SplineSet
305 52 m 1,0,1
 312 52 312 52 323 52 c 2,2,-1
 403 52 l 2,3,4
 443 52 443 52 477 61 c 128,-1,5
 511 70 511 70 536 89 c 0,6,7
 561 107 561 107 579 125 c 0,8,9
 597 142 597 142 612 168 c 0,10,11
 627 195 627 195 634 211 c 0,12,13
 645 234 645 234 651 251 c 0,14,15
 659 270 659 270 663 274 c 0,16,17
 669 279 669 279 683 279 c 0,18,19
 712 279 712 279 712 256 c 0,20,-1
 712 255 l 0,21,22
 711 242 711 242 624 20 c 0,23,24
 618 5 618 5 613 0 c 0,25,26
 612 -1 612 -1 611 -1 c 0,27,28
 610 -2 610 -2 609 -2 c 0,29,-1
 608 -3 l 0,30,31
 601 -5 601 -5 583 -5 c 2,32,-1
 77 -5 l 2,33,34
 38 -5 38 -5 38 18 c 128,-1,35
 38 41 38 41 53 49 c 0,36,37
 54 49 54 49 55 50 c 2,38,-1
 56 50 l 2,39,40
 63 52 63 52 87 52 c 0,41,42
 126 52 126 52 140 53 c 0,43,44
 149 54 149 54 153 55 c 2,45,-1
 153 56 l 1,46,-1
 154 56 l 2,47,-1
 154 57 l 2,48,49
 156 60 156 60 158 68 c 2,50,-1
 300 632 l 1,51,52
 263 634 263 634 245 634 c 128,-1,53
 227 634 227 634 220 635 c 0,54,55
 211 636 211 636 205 640 c 0,56,57
 198 646 198 646 198 657 c 0,58,59
 198 672 198 672 205 680.5 c 128,-1,60
 212 689 212 689 219 690 c 0,61,62
 224 691 224 691 232 691 c 0,63,64
 244 691 244 691 270 690 c 128,-1,65
 296 689 296 689 309 689 c 128,-1,66
 322 689 322 689 350 688.5 c 128,-1,67
 378 688 378 688 392 688 c 128,-1,68
 406 688 406 688 434 688.5 c 128,-1,69
 462 689 462 689 476 689 c 0,70,71
 491 689 491 689 521 690 c 128,-1,72
 551 691 551 691 565 691 c 0,73,74
 593 691 593 691 593 668 c 128,-1,75
 593 645 593 645 582 639 c 0,76,77
 572 634 572 634 552 634 c 2,78,-1
 519 634 l 2,79,80
 460 634 460 634 450 630 c 1,81,82
 448 627 448 627 446 617 c 2,83,-1
 305 52 l 1,0,1
EndSplineSet
Validated: 19457
EndChar

StartChar: M
Encoding: 77 77 12
Width: 1142
VWidth: 1000
Flags: W
HStem: -5 57<48.219 157.903 224.723 315.779 711.292 824.874 825 826 960 1052.78> 634 57<208.219 303 1104.69 1213.78>
LayerCount: 2
Fore
SplineSet
960 54 m 1,0,1
 997 52 997 52 1015 52 c 0,2,3
 1032 52 1032 52 1039 51 c 0,4,5
 1048 50 1048 50 1054 46 c 0,6,7
 1061 40 1061 40 1061 29 c 0,8,9
 1061 12 1061 12 1053 4 c 1,10,11
 1046 -5 1046 -5 1028 -5 c 0,12,13
 1017 -5 1017 -5 993 -4 c 128,-1,14
 969 -3 969 -3 957 -3 c 0,15,16
 944 -3 944 -3 918.5 -2.5 c 128,-1,17
 893 -2 893 -2 880 -2 c 0,18,19
 868 -2 868 -2 845 -2.5 c 128,-1,20
 822 -3 822 -3 810 -3 c 128,-1,21
 798 -3 798 -3 774 -4 c 0,22,23
 749 -5 749 -5 737 -5 c 0,24,25
 710 -5 710 -5 710 18 c 128,-1,26
 710 41 710 41 725 49 c 0,27,28
 726 49 726 49 727 50 c 2,29,-1
 728 50 l 2,30,31
 735 52 735 52 759 52 c 0,32,33
 798 52 798 52 812 53 c 0,34,35
 821 54 821 54 825 55 c 2,36,-1
 825 56 l 1,37,-1
 826 56 l 2,38,-1
 826 57 l 2,39,40
 828 60 828 60 830 68 c 2,41,-1
 967 616 l 1,42,-1
 548 20 l 2,43,44
 529 -5 529 -5 508 -5 c 0,45,46
 496 -5 496 -5 489 1 c 128,-1,47
 482 7 482 7 480 14 c 0,48,49
 479 19 479 19 476 29 c 2,50,-1
 359 604 l 1,51,-1
 224 60 l 1,52,53
 247 52 247 52 288 52 c 0,54,55
 323 52 323 52 323 29 c 0,56,57
 323 14 323 14 316 4.5 c 128,-1,58
 309 -5 309 -5 291 -5 c 0,59,60
 278 -5 278 -5 234 -3.5 c 128,-1,61
 190 -2 190 -2 177 -2 c 0,62,63
 158 -2 158 -2 121 -3 c 0,64,65
 84 -5 84 -5 66 -5 c 0,66,67
 54 -5 54 -5 47 3 c 0,68,69
 41 10 41 10 41 18 c 0,70,71
 41 34 41 34 48 42 c 128,-1,72
 55 50 55 50 63 51 c 0,73,74
 69 52 69 52 82 52 c 0,75,76
 114 52 114 52 138 58 c 0,77,78
 155 62 155 62 158 64 c 0,79,80
 161 67 161 67 164 80 c 2,81,-1
 303 632 l 1,82,83
 266 634 266 634 248 634 c 128,-1,84
 230 634 230 634 223 635 c 0,85,86
 214 636 214 636 208 640 c 0,87,88
 201 646 201 646 201 657 c 0,89,90
 201 673 201 673 208 681 c 128,-1,91
 215 689 215 689 223 690 c 0,92,93
 229 691 229 691 243 691 c 2,94,-1
 431 691 l 2,95,96
 453 691 453 691 462 686 c 0,97,98
 472 681 472 681 476 659 c 2,99,-1
 581 141 l 1,100,-1
 949 664 l 2,101,102
 961 682 961 682 970 687 c 0,103,104
 980 691 980 691 1004 691 c 2,105,-1
 1182 691 l 2,106,107
 1194 691 1194 691 1200 690 c 0,108,109
 1207 689 1207 689 1214 684 c 0,110,111
 1221 678 1221 678 1221 668 c 0,112,113
 1221 645 1221 645 1209 639 c 0,114,115
 1199 634 1199 634 1168 634 c 0,116,117
 1126 634 1126 634 1104 631 c 1,118,-1
 960 54 l 1,0,1
EndSplineSet
Validated: 19457
EndChar

StartChar: N
Encoding: 78 78 13
Width: 950
VWidth: 1000
Flags: W
HStem: -5 57<45.219 154.903 221.723 312.779> 634 57<205.219 300 751.266 849.277 916.158 1025.3>
LayerCount: 2
Fore
SplineSet
763 23 m 2,0,1
 759 5 759 5 754 0 c 0,2,3
 753 -1 753 -1 751 -1 c 0,4,5
 745 -5 745 -5 730 -5 c 0,6,7
 717 -5 717 -5 711 -2 c 128,-1,8
 705 1 705 1 696 15 c 2,9,-1
 353 589 l 1,10,-1
 221 60 l 1,11,12
 244 52 244 52 284 52 c 0,13,14
 320 52 320 52 320 29 c 0,15,16
 320 14 320 14 313 4.5 c 128,-1,17
 306 -5 306 -5 288 -5 c 0,18,19
 276 -5 276 -5 231 -3.5 c 128,-1,20
 186 -2 186 -2 174 -2 c 0,21,22
 155 -2 155 -2 118 -3 c 0,23,24
 81 -5 81 -5 63 -5 c 0,25,26
 53 -5 53 -5 47 0 c 0,27,28
 42 4 42 4 40 7 c 2,29,-1
 40 8 l 1,30,-1
 40 9 l 2,31,32
 40 10 40 10 39 10 c 0,33,34
 38 14 38 14 38 18 c 0,35,36
 38 34 38 34 45 42 c 128,-1,37
 52 50 52 50 60 51 c 0,38,39
 66 52 66 52 79 52 c 0,40,41
 111 52 111 52 135 58 c 0,42,43
 152 62 152 62 155 64 c 0,44,45
 158 67 158 67 161 80 c 2,46,-1
 297 621 l 2,47,48
 299 629 299 629 300 632 c 1,49,50
 291 634 291 634 261 634 c 2,51,-1
 237 634 l 2,52,53
 225 634 225 634 219 635 c 0,54,55
 212 636 212 636 205 641 c 0,56,57
 198 647 198 647 198 657 c 0,58,59
 198 673 198 673 205 681 c 128,-1,60
 212 689 212 689 220 690 c 0,61,62
 226 691 226 691 240 691 c 2,63,-1
 429 691 l 2,64,65
 449 691 449 691 456 688 c 128,-1,66
 463 685 463 685 470 672 c 2,67,-1
 746 211 l 1,68,-1
 850 626 l 1,69,70
 827 634 827 634 786 634 c 0,71,72
 750 634 750 634 750 657 c 0,73,74
 750 691 750 691 782 691 c 0,75,76
 794 691 794 691 839 689.5 c 128,-1,77
 884 688 884 688 896 688 c 0,78,79
 915 688 915 688 952 689 c 0,80,81
 989 691 989 691 1007 691 c 0,82,83
 1032 691 1032 691 1032 668 c 0,84,85
 1032 652 1032 652 1025.5 644 c 128,-1,86
 1019 636 1019 636 1011 635 c 0,87,88
 1005 634 1005 634 992 634 c 0,89,90
 960 634 960 634 935 629 c 0,91,92
 921 626 921 626 916 623 c 0,93,94
 913 620 913 620 910 607 c 2,95,-1
 763 23 l 2,0,1
EndSplineSet
Validated: 19457
EndChar

StartChar: O
Encoding: 79 79 14
Width: 836
VWidth: 1000
Flags: W
HStem: -22 52<270.196 454.271> 658 50<411.379 602.531>
VStem: 48 151<121.765 352.515> 674 146<351.401 560.955>
LayerCount: 2
Fore
SplineSet
788.5 283.5 m 128,-1,1
 757 202 757 202 699.5 133.5 c 128,-1,2
 642 65 642 65 549 21.5 c 128,-1,3
 456 -22 456 -22 345 -22 c 0,4,5
 211 -22 211 -22 129.5 44 c 128,-1,6
 48 110 48 110 48 238 c 0,7,8
 48 300 48 300 67 364.5 c 128,-1,9
 86 429 86 429 126 490.5 c 128,-1,10
 166 552 166 552 221 600.5 c 128,-1,11
 276 649 276 649 355 678.5 c 128,-1,12
 434 708 434 708 524 708 c 0,13,14
 659 708 659 708 739.5 640 c 128,-1,15
 820 572 820 572 820 445 c 0,16,0
 820 365 820 365 788.5 283.5 c 128,-1,1
355 30 m 0,17,18
 485 30 485 30 574 160 c 0,19,20
 618 224 618 224 646 328.5 c 128,-1,21
 674 433 674 433 674 491 c 0,22,23
 674 577 674 577 628 617.5 c 128,-1,24
 582 658 582 658 514 658 c 0,25,26
 393 658 393 658 310 555 c 0,27,28
 257 490 257 490 228 379.5 c 128,-1,29
 199 269 199 269 199 205 c 0,30,31
 199 118 199 118 242 75 c 0,32,33
 286 30 286 30 355 30 c 0,17,18
EndSplineSet
Validated: 19457
EndChar

StartChar: P
Encoding: 80 80 15
Width: 723
VWidth: 1000
Flags: W
HStem: -3 59<40.3796 152.874 153 154 305 398.812> 297 51<372 615.608> 634 57<206.219 300 446.031 676.896>
VStem: 704 150<453.991 608.655>
LayerCount: 2
Fore
SplineSet
305 54 m 1,0,1
 342 52 342 52 360 52 c 0,2,3
 377 52 377 52 384 51 c 0,4,5
 393 50 393 50 399 45 c 0,6,7
 406 39 406 39 406 28 c 0,8,9
 406 -5 406 -5 372 -5 c 0,10,11
 360 -5 360 -5 333.5 -4 c 128,-1,12
 307 -3 307 -3 294 -3 c 0,13,14
 282 -3 282 -3 256 -2.5 c 128,-1,15
 230 -2 230 -2 217 -2 c 128,-1,16
 204 -2 204 -2 179 -2.5 c 128,-1,17
 154 -3 154 -3 141 -3 c 128,-1,18
 128 -3 128 -3 103 -4 c 128,-1,19
 78 -5 78 -5 65 -5 c 0,20,21
 38 -5 38 -5 38 18 c 128,-1,22
 38 41 38 41 53 48 c 0,23,-1
 54 48 l 0,24,25
 54 49 54 49 55 49 c 0,26,27
 61 52 61 52 87 52 c 0,28,29
 126 52 126 52 140 53 c 0,30,31
 149 54 149 54 153 55 c 2,32,-1
 153 56 l 1,33,-1
 154 56 l 2,34,-1
 154 57 l 2,35,36
 156 60 156 60 158 68 c 2,37,-1
 300 632 l 1,38,39
 263 634 263 634 245 634 c 0,40,41
 228 634 228 634 221 635 c 0,42,43
 213 636 213 636 206 640 c 0,44,45
 198 645 198 645 198 657 c 0,46,47
 198 673 198 673 205 681 c 128,-1,48
 212 689 212 689 220 690 c 0,49,50
 226 691 226 691 240 691 c 2,51,-1
 625 691 l 2,52,53
 728 691 728 691 791 651 c 0,54,55
 854 610 854 610 854 532 c 0,56,57
 854 438 854 438 764 367 c 0,58,59
 675 297 675 297 539 297 c 2,60,-1
 366 297 l 1,61,-1
 305 54 l 1,0,1
441 620 m 2,62,-1
 372 348 l 1,63,-1
 503 348 l 2,64,65
 614 348 614 348 655 401 c 0,66,67
 678 431 678 431 691 485.5 c 128,-1,68
 704 540 704 540 704 560 c 0,69,70
 704 634 704 634 578 634 c 2,71,-1
 474 634 l 2,72,73
 456 634 456 634 448 633 c 0,74,75
 447 633 447 633 446 632 c 0,76,77
 443 629 443 629 441 620 c 2,62,-1
EndSplineSet
Validated: 19457
EndChar

StartChar: Q
Encoding: 81 81 16
Width: 868
VWidth: 1000
Flags: W
HStem: -199 157<534.577 615.318> -22 50<310.441 437.217> 114 46<326.206 424.956> 658 50<412.757 602.769>
VStem: 48 143<121.898 343.878> 262 46<52.6094 94.7235> 677 143<337.74 560.704> 681 46<-23.2866 16.296>
LayerCount: 2
Fore
SplineSet
439 -13 m 1,0,1
 392 -22 392 -22 345 -22 c 0,2,3
 211 -22 211 -22 129.5 44 c 128,-1,4
 48 110 48 110 48 238 c 0,5,6
 48 300 48 300 67 364.5 c 128,-1,7
 86 429 86 429 126 490.5 c 128,-1,8
 166 552 166 552 221 600.5 c 128,-1,9
 276 649 276 649 355 678.5 c 128,-1,10
 434 708 434 708 524 708 c 0,11,12
 659 708 659 708 739.5 640 c 128,-1,13
 820 572 820 572 820 445 c 0,14,15
 820 396 820 396 805.5 339 c 128,-1,16
 791 282 791 282 758.5 217.5 c 128,-1,17
 726 153 726 153 663 96 c 128,-1,18
 600 39 600 39 517 8 c 1,19,20
 528 -14 528 -14 540 -26 c 128,-1,21
 552 -38 552 -38 560.5 -40 c 128,-1,22
 569 -42 569 -42 583 -42 c 0,23,24
 663 -42 663 -42 681 5 c 0,25,26
 688 23 688 23 704 23 c 0,27,28
 714 23 714 23 720.5 16.5 c 128,-1,29
 727 10 727 10 727 -0 c 0,30,31
 727 -12 727 -12 715.5 -41.5 c 128,-1,32
 704 -71 704 -71 683 -107 c 128,-1,33
 662 -143 662 -143 624 -171 c 128,-1,34
 586 -199 586 -199 541 -199 c 0,35,36
 439 -199 439 -199 439 -57 c 2,37,-1
 439 -13 l 1,0,1
262 52 m 1,38,39
 262 54 262 54 262 56 c 0,40,41
 262 99 262 99 299.5 129.5 c 128,-1,42
 337 160 337 160 382 160 c 0,43,44
 426 160 426 160 450.5 135.5 c 128,-1,45
 475 111 475 111 492 70 c 1,46,47
 538 99 538 99 575.5 151.5 c 128,-1,48
 613 204 613 204 631 256 c 128,-1,49
 649 308 649 308 660.5 364.5 c 128,-1,50
 672 421 672 421 674.5 447 c 128,-1,51
 677 473 677 473 677 483 c 0,52,53
 677 573 677 573 630.5 615.5 c 128,-1,54
 584 658 584 658 514 658 c 0,55,56
 460 658 460 658 403.5 631.5 c 128,-1,57
 347 605 347 605 304 549 c 0,58,59
 248 477 248 477 219.5 369.5 c 128,-1,60
 191 262 191 262 191 201 c 0,61,62
 191 92 191 92 262 52 c 1,38,39
438 42 m 1,63,64
 437 86 437 86 422 100 c 128,-1,65
 407 114 407 114 383 114 c 0,66,67
 354 114 354 114 331 96 c 128,-1,68
 308 78 308 78 308 56 c 0,69,70
 308 28 308 28 355 28 c 0,71,72
 403 28 403 28 438 42 c 1,63,64
EndSplineSet
Validated: 19457
EndChar

StartChar: R
Encoding: 82 82 17
Width: 872
VWidth: 1000
Flags: W
HStem: -22 46<712.283 795.062> -5 55<38.824 152.874 153 154 299 391.779> 320 46<377 555.847> 634 57<205.219 300 439 665.282>
VStem: 547 158<34.0709 201.653> 577 147<144.156 298.09> 697 152<461.926 606.09> 828 58<57.1108 116.842>
LayerCount: 2
Fore
SplineSet
441 620 m 2,0,-1
 377 366 l 1,1,-1
 487 366 l 2,2,3
 599 366 599 366 642 410 c 0,4,5
 664 432 664 432 678 470.5 c 128,-1,6
 692 509 692 509 694.5 528.5 c 128,-1,7
 697 548 697 548 697 556 c 0,8,9
 697 575 697 575 691 588.5 c 128,-1,10
 685 602 685 602 670.5 610 c 128,-1,11
 656 618 656 618 643 623.5 c 128,-1,12
 630 629 630 629 604.5 631 c 128,-1,13
 579 633 579 633 563 633.5 c 128,-1,14
 547 634 547 634 517 634 c 0,15,16
 456 634 456 634 445 633 c 1,17,18
 444 630 444 630 441 620 c 2,0,-1
724 231 m 0,19,20
 724 221 724 221 719 190 c 0,21,22
 705 105 705 105 705 80 c 0,23,24
 705 47 705 47 715 35 c 0,25,26
 725 24 725 24 746 24 c 0,27,28
 771 24 771 24 795 46 c 0,29,30
 820 69 820 69 828 98 c 0,31,32
 832 112 832 112 837 117 c 0,33,34
 843 122 843 122 857 122 c 0,35,36
 886 122 886 122 886 99 c 0,37,38
 886 90 886 90 878 72 c 0,39,40
 870 55 870 55 854 33 c 128,-1,41
 838 11 838 11 807 -5.5 c 128,-1,42
 776 -22 776 -22 738 -22 c 0,43,44
 718 -22 718 -22 698 -20.5 c 128,-1,45
 678 -19 678 -19 649 -12 c 128,-1,46
 620 -5 620 -5 600 6 c 0,47,48
 579 18 579 18 563 41 c 128,-1,49
 547 64 547 64 547 95 c 0,50,51
 547 117 547 117 561 169 c 0,52,53
 577 228 577 228 577 243 c 0,54,55
 577 268 577 268 567 284.5 c 128,-1,56
 557 301 557 301 541 308 c 0,57,58
 524 315 524 315 511 317.5 c 128,-1,59
 498 320 498 320 483 320 c 2,60,-1
 366 320 l 1,61,-1
 299 54 l 1,62,63
 336 52 336 52 354 52 c 0,64,65
 371 52 371 52 378 51 c 0,66,67
 386 50 386 50 392 46 c 0,68,69
 400 41 400 41 400 29 c 0,70,71
 400 12 400 12 392 4 c 1,72,73
 385 -5 385 -5 367 -5 c 0,74,75
 350 -5 350 -5 290.5 -3.5 c 128,-1,76
 231 -2 231 -2 214 -2 c 0,77,78
 202 -2 202 -2 177.5 -2.5 c 128,-1,79
 153 -3 153 -3 141 -3 c 0,80,81
 128 -3 128 -3 103 -4 c 128,-1,82
 78 -5 78 -5 65 -5 c 0,83,84
 38 -5 38 -5 38 18 c 128,-1,85
 38 41 38 41 53 49 c 0,86,87
 54 49 54 49 55 50 c 2,88,-1
 56 50 l 2,89,90
 63 52 63 52 87 52 c 0,91,92
 126 52 126 52 140 53 c 0,93,94
 149 54 149 54 153 55 c 2,95,-1
 153 56 l 1,96,-1
 154 56 l 2,97,-1
 154 57 l 2,98,99
 156 60 156 60 158 68 c 2,100,-1
 300 632 l 1,101,102
 263 634 263 634 245 634 c 128,-1,103
 227 634 227 634 220 635 c 0,104,105
 211 636 211 636 205 640 c 0,106,107
 198 646 198 646 198 657 c 0,108,109
 198 673 198 673 205 681 c 128,-1,110
 212 689 212 689 220 690 c 0,111,112
 226 691 226 691 240 691 c 2,113,-1
 587 691 l 2,114,115
 704 691 704 691 776 650 c 0,116,117
 849 609 849 609 849 533 c 0,118,119
 849 510 849 510 840 486 c 128,-1,120
 831 462 831 462 810 433 c 0,121,122
 788 404 788 404 743 377 c 0,123,124
 703 354 703 354 648 338 c 1,125,126
 724 304 724 304 724 231 c 0,19,20
EndSplineSet
Validated: 19457
EndChar

StartChar: S
Encoding: 83 83 18
Width: 692
VWidth: 1000
Flags: W
HStem: -22 57<231.598 440.677> 453 21G<622.5 642.5> 655 53<364.544 550.623>
VStem: 110 59<176.766 227.841> 179 118<422.5 550.622> 517 118<151.934 285.5>
LayerCount: 2
Fore
SplineSet
667 479 m 2,0,1
 663 463 663 463 659 459 c 0,2,3
 658 458 l 0,4,5
 656 456 656 456 654 455 c 0,6,7
 648 453 648 453 637 453 c 0,8,9
 608 453 608 453 608 473 c 0,10,11
 608 474 608 474 608.5 480 c 128,-1,12
 609 486 609 486 610 496 c 0,13,14
 611 505 611 505 611 512 c 0,15,16
 611 589 611 589 568 622 c 128,-1,17
 525 655 525 655 457 655 c 0,18,19
 378 655 378 655 337.5 611 c 128,-1,20
 297 567 297 567 297 523 c 0,21,22
 297 496 297 496 315 475.5 c 128,-1,23
 333 455 333 455 364 448 c 2,24,-1
 442 430 l 2,25,26
 513 414 513 414 537 404 c 0,27,28
 562 394 562 394 589 369 c 0,29,30
 635 323 635 323 635 248 c 0,31,32
 635 207 635 207 617 162 c 128,-1,33
 599 117 599 117 566 74 c 0,34,35
 533 32 533 32 475.5 5 c 128,-1,36
 418 -22 418 -22 347 -22 c 0,37,38
 224 -22 224 -22 158 35 c 1,39,40
 152 30 152 30 141 20 c 2,41,-1
 116 -1 l 1,42,-1
 104 -11 l 2,43,44
 90 -22 90 -22 81 -22 c 0,45,46
 59 -22 59 -22 59 -3 c 2,47,-1
 59 -2 l 1,48,-1
 110 206 l 2,49,50
 114 223 114 223 119 228 c 0,51,52
 120 229 120 229 122 229 c 0,53,54
 128 233 128 233 141 233 c 0,55,56
 169 233 169 233 169 214 c 0,57,58
 169 213 169 213 168 209 c 0,59,60
 168 206 168 206 168 204 c 2,61,-1
 168 203 l 1,62,63
 163 184 163 184 163 163 c 0,64,65
 163 97 163 97 218 64 c 0,66,67
 267 35 267 35 351 35 c 0,68,69
 396 35 396 35 430 51.5 c 128,-1,70
 464 68 464 68 481 92 c 0,71,72
 499 116 499 116 508 140 c 128,-1,73
 517 164 517 164 517 183 c 0,74,75
 517 251 517 251 442 268 c 2,76,-1
 364 286 l 2,77,78
 298 301 298 301 278 309 c 0,79,80
 252 318 252 318 229 340 c 0,81,82
 179 387 179 387 179 458 c 0,83,84
 179 499 179 499 197 541.5 c 128,-1,85
 215 584 215 584 248 622 c 0,86,87
 282 660 282 660 337.5 684 c 128,-1,88
 393 708 393 708 460 708 c 0,89,90
 561 708 561 708 619 652 c 1,91,-1
 671 695 l 2,92,93
 685 708 685 708 696 708 c 0,94,95
 719 708 719 708 719 688 c 0,96,97
 719 679 719 679 715 667 c 2,98,-1
 667 479 l 2,0,1
EndSplineSet
Validated: 19457
EndChar

StartChar: T
Encoding: 84 84 19
Width: 636
VWidth: 1000
Flags: W
HStem: -5 57<49.1965 210 359 503.629> 623 57<170.25 351 503.096 680.585>
VStem: 20 61<435.159 511.501>
LayerCount: 2
Fore
SplineSet
359 54 m 1,0,1
 382 52 382 52 425 52 c 2,2,-1
 466 52 l 2,3,4
 505 52 505 52 505 29 c 0,5,6
 505 -5 505 -5 469 -5 c 0,7,8
 453 -5 453 -5 421 -4 c 128,-1,9
 389 -3 389 -3 373 -3 c 0,10,11
 356 -3 356 -3 322 -2.5 c 128,-1,12
 288 -2 288 -2 271 -2 c 128,-1,13
 254 -2 254 -2 221 -2.5 c 128,-1,14
 188 -3 188 -3 172 -3 c 128,-1,15
 156 -3 156 -3 124 -4 c 128,-1,16
 92 -5 92 -5 77 -5 c 0,17,18
 48 -5 48 -5 48 19 c 0,19,20
 48 34 48 34 55 42 c 128,-1,21
 62 50 62 50 70 51 c 0,22,23
 76 52 76 52 89 52 c 2,24,-1
 131 52 l 2,25,26
 181 52 181 52 210 56 c 1,27,-1
 351 622 l 1,28,29
 333 623 333 623 305 623 c 0,30,31
 200 623 200 623 159 594 c 0,32,33
 119 565 119 565 81 457 c 0,34,35
 75 440 75 440 69 435 c 0,36,37
 63 429 63 429 49 429 c 0,38,39
 20 429 20 429 20 452 c 0,40,41
 20 454 20 454 23 463 c 2,42,-1
 26 472 l 1,43,-1
 90 657 l 2,44,45
 96 673 96 673 104 676 c 0,46,47
 111 680 111 680 131 680 c 2,48,-1
 738 680 l 2,49,50
 751 680 751 680 757 679 c 0,51,52
 764 678 764 678 770.5 672 c 128,-1,53
 777 666 777 666 777 655 c 0,54,-1
 777 654 l 1,55,-1
 749 461 l 2,56,57
 747 444 747 444 741 437 c 0,58,59
 735 429 735 429 719 429 c 0,60,61
 690 429 690 429 690 453 c 0,62,63
 690 454 690 454 691 462 c 0,64,65
 692 469 692 469 692 471 c 0,66,-1
 692 472 l 1,67,68
 699 514 699 514 699 539 c 0,69,70
 699 594 699 594 670 608 c 0,71,72
 640 623 640 623 559 623 c 2,73,-1
 517 623 l 2,74,75
 506 622 506 622 503 621 c 0,76,-1
 502 620 l 2,77,78
 500 617 500 617 498 609 c 2,79,-1
 359 54 l 1,0,1
503 621 m 1,80,-1
 503 621 l 1,80,-1
EndSplineSet
Validated: 19457
EndChar

StartChar: U
Encoding: 85 85 20
Width: 800
VWidth: 1000
Flags: W
HStem: -22 57<239.599 449.95> 634 56<64.1458 164 314 430.051 601.063 699.277 766.158 875.297>
VStem: 58 142<84.9852 260.898>
LayerCount: 2
Fore
SplineSet
664 225 m 2,0,1
 637 116 637 116 547.5 47 c 128,-1,2
 458 -22 458 -22 326 -22 c 0,3,4
 206 -22 206 -22 133 29 c 0,5,6
 58 80 58 80 58 178 c 0,7,8
 58 205 58 205 67 242 c 2,9,-1
 128 489 l 1,10,-1
 150 577 l 2,11,12
 162 624 162 624 164 632 c 1,13,14
 153 634 153 634 114 634 c 0,15,16
 85 634 85 634 76 637 c 0,17,18
 63 641 63 641 63 657 c 0,19,20
 63 672 63 672 70 680 c 128,-1,21
 77 688 77 688 82 690 c 0,22,-1
 83 690 l 0,23,24
 88 691 88 691 97 691 c 0,25,26
 110 691 110 691 136.5 690 c 128,-1,27
 163 689 163 689 176 689 c 0,28,29
 188 689 188 689 214 688.5 c 128,-1,30
 240 688 240 688 253 688 c 128,-1,31
 266 688 266 688 291 688.5 c 128,-1,32
 316 689 316 689 328 689 c 128,-1,33
 340 689 340 689 366 690 c 128,-1,34
 392 691 392 691 404 691 c 0,35,36
 431 691 431 691 431 668 c 128,-1,37
 431 645 431 645 419 639 c 0,38,39
 409 634 409 634 378 634 c 0,40,41
 336 634 336 634 314 631 c 1,42,-1
 210 215 l 2,43,44
 200 174 200 174 200 141 c 0,45,46
 200 35 200 35 333 35 c 0,47,48
 428 35 428 35 503 85 c 0,49,50
 577 135 577 135 602 236 c 2,51,-1
 700 626 l 1,52,53
 677 634 677 634 636 634 c 0,54,55
 600 634 600 634 600 657 c 0,56,57
 600 691 600 691 632 691 c 0,58,59
 644 691 644 691 689 689.5 c 128,-1,60
 734 688 734 688 746 688 c 0,61,62
 765 688 765 688 802 689 c 0,63,64
 839 691 839 691 857 691 c 0,65,66
 882 691 882 691 882 668 c 0,67,68
 882 652 882 652 875.5 644 c 128,-1,69
 869 636 869 636 861 635 c 0,70,71
 855 634 855 634 842 634 c 0,72,73
 810 634 810 634 785 629 c 0,74,75
 771 626 771 626 766 623 c 0,76,77
 763 620 763 620 760 607 c 2,78,-1
 664 225 l 2,0,1
EndSplineSet
Validated: 19457
EndChar

StartChar: V
Encoding: 86 86 21
Width: 677
VWidth: 1000
Flags: W
HStem: 634 57<68.219 148.937 306.229 404.051 635.279 712.373 774.667 888.768>
LayerCount: 2
Fore
SplineSet
356 6 m 2,0,1
 344 -11 344 -11 336 -16 c 0,2,3
 327 -22 327 -22 306 -22 c 0,4,5
 294 -22 294 -22 288 -21 c 0,6,7
 281 -20 281 -20 275 -12 c 128,-1,8
 269 -4 269 -4 266 10 c 2,9,-1
 152 618 l 2,10,11
 150 628 150 628 149 631 c 0,12,13
 147 632 147 632 142 633 c 0,14,15
 131 634 131 634 103 634 c 0,16,17
 90 634 90 634 83 635 c 0,18,19
 75 636 75 636 68 641 c 0,20,21
 61 647 61 647 61 657 c 0,22,23
 61 672 61 672 68 680 c 128,-1,24
 75 688 75 688 80 690 c 0,25,-1
 81 690 l 0,26,27
 86 691 86 691 94 691 c 0,28,29
 104 691 104 691 127 690 c 0,30,31
 149 689 149 689 160 689 c 0,32,33
 172 689 172 689 195 688.5 c 128,-1,34
 218 688 218 688 229 688 c 0,35,36
 241 688 241 688 265.5 688.5 c 128,-1,37
 290 689 290 689 302 689 c 128,-1,38
 314 689 314 689 340 690 c 128,-1,39
 366 691 366 691 378 691 c 0,40,41
 405 691 405 691 405 668 c 128,-1,42
 405 645 405 645 393 639 c 0,43,44
 383 634 383 634 362 634 c 0,45,46
 313 634 313 634 306 629 c 1,47,48
 306 624 306 624 308 619 c 2,49,-1
 308 618 l 1,50,-1
 394 162 l 1,51,-1
 713 627 l 1,52,53
 693 634 693 634 665 634 c 0,54,55
 634 634 634 634 634 657 c 0,56,57
 634 691 634 691 666 691 c 0,58,59
 683 691 683 691 720.5 689.5 c 128,-1,60
 758 688 758 688 776 688 c 0,61,62
 791 688 791 688 822 689 c 0,63,64
 853 691 853 691 867 691 c 0,65,66
 878 691 878 691 884 683 c 0,67,68
 890 676 890 676 890 668 c 0,69,70
 890 634 890 634 855 634 c 0,71,72
 823 634 823 634 804 628 c 0,73,74
 786 622 786 622 779 616 c 128,-1,75
 772 610 772 610 763 596 c 2,76,-1
 356 6 l 2,0,1
EndSplineSet
Validated: 19457
EndChar

StartChar: W
Encoding: 87 87 22
Width: 1093
VWidth: 1000
Flags: W
HStem: 634 55.5<67.2188 142 295 385.746 479.945 561 714 803.685 957.945 1049.25 1104.05 1210.75>
LayerCount: 2
Fore
SplineSet
721 6 m 2,0,1
 711 -10 711 -10 703 -16 c 0,2,3
 694 -22 694 -22 676 -22 c 0,4,5
 657 -22 657 -22 650 -14 c 0,6,7
 643 -7 643 -7 641 12 c 2,8,-1
 584 454 l 1,9,-1
 302 6 l 2,10,11
 285 -22 285 -22 258 -22 c 0,12,13
 257 -22 257 -22 256 -22 c 0,14,15
 237 -22 237 -22 231 -14 c 2,16,-1
 230 -13 l 2,17,18
 225 -6 225 -6 222 12 c 2,19,-1
 142 632 l 1,20,21
 119 634 119 634 98 634 c 0,22,23
 87 634 87 634 81 635 c 0,24,25
 74 636 74 636 67 641 c 0,26,27
 60 647 60 647 60 657 c 0,28,29
 60 691 60 691 92 691 c 2,30,-1
 96 691 l 2,31,32
 101 691 101 691 108 690 c 0,33,34
 115 690 115 690 123.5 689.5 c 128,-1,35
 132 689 132 689 141 689 c 2,36,-1
 158 689 l 2,37,38
 168 689 168 689 190 688.5 c 128,-1,39
 212 688 212 688 222 688 c 0,40,41
 238 688 238 688 296 689.5 c 128,-1,42
 354 691 354 691 370 691 c 0,43,44
 396 691 396 691 396 668 c 0,45,46
 396 650 396 650 386 641 c 0,47,48
 378 634 378 634 354 634 c 0,49,50
 317 634 317 634 295 630 c 1,51,-1
 352 185 l 1,52,-1
 566 524 l 2,53,54
 572 533 572 533 573 536 c 2,55,-1
 573 537 l 1,56,-1
 561 632 l 1,57,58
 538 634 538 634 517 634 c 0,59,60
 479 634 479 634 479 657 c 0,61,62
 479 691 479 691 511 691 c 1,63,-1
 522 690 l 2,64,65
 533 689 533 689 549 689 c 128,-1,66
 565 689 565 689 578 689 c 0,67,68
 588 689 588 689 610 688.5 c 128,-1,69
 632 688 632 688 642 688 c 0,70,71
 658 688 658 688 715 689.5 c 128,-1,72
 772 691 772 691 789 691 c 0,73,74
 815 691 815 691 815 668 c 128,-1,75
 815 645 815 645 804 639 c 0,76,77
 794 634 794 634 773 634 c 0,78,79
 736 634 736 634 714 630 c 1,80,-1
 771 185 l 1,81,-1
 1050 626 l 1,82,83
 1026 634 1026 634 987 634 c 0,84,85
 957 634 957 634 957 657 c 0,86,87
 957 691 957 691 989 691 c 0,88,89
 1007 691 1007 691 1046 689.5 c 128,-1,90
 1085 688 1085 688 1104 688 c 0,91,92
 1118 688 1118 688 1147 689 c 0,93,94
 1176 691 1176 691 1189 691 c 0,95,96
 1198 691 1198 691 1205 684 c 128,-1,97
 1212 677 1212 677 1212 668 c 0,98,99
 1212 634 1212 634 1177 634 c 0,100,101
 1149 634 1149 634 1131 628 c 128,-1,102
 1113 622 1113 622 1108 616 c 0,103,104
 1102 610 1102 610 1094 598 c 2,105,-1
 721 6 l 2,0,1
EndSplineSet
Validated: 3073
EndChar

StartChar: X
Encoding: 88 88 23
Width: 947
VWidth: 1000
Flags: W
HStem: -5 57<40.7035 180.516 250.72 321.717 496.34 580 751.095 838.781> 634 57<216.188 315.25 475 558.805 662.16 739.973 813.469 956.627>
LayerCount: 2
Fore
SplineSet
744 66 m 2,0,1
 748 57 748 57 751 55.5 c 128,-1,2
 754 54 754 54 763 53 c 0,3,4
 776 52 776 52 802 52 c 0,5,6
 817 52 817 52 824 51 c 0,7,8
 832 50 832 50 839 46 c 0,9,10
 847 41 847 41 847 29 c 0,11,12
 847 -5 847 -5 814 -5 c 0,13,14
 802 -5 802 -5 779 -4 c 128,-1,15
 756 -3 756 -3 744 -3 c 128,-1,16
 732 -3 732 -3 709 -2.5 c 128,-1,17
 686 -2 686 -2 675 -2 c 0,18,19
 658 -2 658 -2 598.5 -3.5 c 128,-1,20
 539 -5 539 -5 522 -5 c 0,21,22
 495 -5 495 -5 495 18 c 0,23,24
 495 33 495 33 502 41 c 128,-1,25
 509 49 509 49 514 51 c 0,26,-1
 515 51 l 0,27,28
 520 52 520 52 529 52 c 0,29,30
 536 52 536 52 544 52.5 c 128,-1,31
 552 53 552 53 559 54 c 128,-1,32
 566 55 566 55 572 56 c 0,33,34
 576 57 576 57 580 57 c 1,35,-1
 473 280 l 1,36,-1
 250 59 l 1,37,38
 273 52 273 52 300 52 c 0,39,40
 331 52 331 52 331 29 c 0,41,42
 331 12 331 12 322 3.5 c 128,-1,43
 313 -5 313 -5 298 -5 c 0,44,45
 284 -5 284 -5 233 -3.5 c 128,-1,46
 182 -2 182 -2 168 -2 c 0,47,48
 156 -2 156 -2 113.5 -3.5 c 128,-1,49
 71 -5 71 -5 59 -5 c 128,-1,50
 47 -5 47 -5 40 2 c 0,51,52
 34 9 34 9 34 18 c 0,53,54
 34 34 34 34 40.5 42 c 128,-1,55
 47 50 47 50 55 51 c 0,56,57
 61 52 61 52 74 52 c 0,58,59
 114 52 114 52 141.5 59.5 c 128,-1,60
 169 67 169 67 177 72 c 0,61,62
 186 78 186 78 199 90 c 2,63,-1
 447 335 l 1,64,-1
 311 621 l 2,65,66
 306 629 306 629 304 631 c 0,67,-1
 303 631 l 0,68,69
 299 633 299 633 294 633 c 0,70,71
 282 634 282 634 255 634 c 0,72,73
 238 634 238 634 231 635 c 0,74,75
 222 636 222 636 216 641 c 0,76,77
 209 647 209 647 209 658 c 0,78,79
 209 673 209 673 216 681 c 128,-1,80
 223 689 223 689 229 690 c 0,81,82
 234 691 234 691 242 691 c 0,83,84
 254 691 254 691 277 690 c 128,-1,85
 300 689 300 689 312 689 c 128,-1,86
 324 689 324 689 347 688.5 c 128,-1,87
 370 688 370 688 381 688 c 0,88,89
 398 688 398 688 457 689.5 c 128,-1,90
 516 691 516 691 533 691 c 0,91,92
 560 691 560 691 560 667 c 0,93,94
 560 634 560 634 526 634 c 0,95,96
 501 634 501 634 475 629 c 1,97,-1
 561 449 l 1,98,-1
 741 626 l 1,99,100
 708 633 708 633 691 634 c 0,101,102
 661 635 661 635 661 658 c 0,103,104
 661 691 661 691 694 691 c 0,105,106
 708 691 708 691 759 689.5 c 128,-1,107
 810 688 810 688 824 688 c 0,108,109
 842 688 842 688 879 689 c 0,110,111
 916 691 916 691 933 691 c 0,112,113
 958 691 958 691 958 668 c 0,114,115
 958 664 958 664 957 658 c 0,116,117
 956 651 956 651 950 643 c 0,118,119
 944 634 944 634 932 634 c 0,120,121
 860 633 860 633 836 624 c 128,-1,122
 812 615 812 615 780 584 c 1,123,-1
 718 521 l 1,124,-1
 588 394 l 1,125,-1
 744 66 l 2,0,1
EndSplineSet
Validated: 19457
EndChar

StartChar: Y
Encoding: 89 89 24
Width: 674
VWidth: 1000
Flags: W
HStem: -5 57<131 234.935 379 472.781> 634 57<47.188 133.874 307.781 383.686 623.125 689.468 755.754 878.768>
LayerCount: 2
Fore
SplineSet
434 272 m 1,0,-1
 379 54 l 1,1,2
 416 52 416 52 434 52 c 0,3,4
 451 52 451 52 458 51 c 0,5,6
 466 50 466 50 473 46 c 0,7,8
 481 41 481 41 481 29 c 0,9,10
 481 14 481 14 474 5.5 c 128,-1,11
 467 -3 467 -3 460 -4 c 0,12,13
 455 -5 455 -5 447 -5 c 0,14,15
 430 -5 430 -5 370.5 -3.5 c 128,-1,16
 311 -2 311 -2 294 -2 c 0,17,18
 282 -2 282 -2 257.5 -2.5 c 128,-1,19
 233 -3 233 -3 221 -3 c 0,20,21
 208 -3 208 -3 183 -4 c 128,-1,22
 158 -5 158 -5 145 -5 c 0,23,24
 118 -5 118 -5 118 18 c 0,25,26
 118 37 118 37 130 47 c 0,27,-1
 131 48 l 0,28,29
 138 52 138 52 169 52 c 0,30,31
 202 52 202 52 221 54 c 0,32,33
 233 55 233 55 235 57 c 0,34,35
 237 60 237 60 239 69 c 2,36,-1
 291 274 l 1,37,-1
 139 621 l 2,38,39
 136 628 136 628 135 629 c 2,40,-1
 134 630 l 2,41,42
 130 632 130 632 123 633 c 0,43,44
 114 634 114 634 85 634 c 0,45,46
 68 634 68 634 61 635 c 0,47,48
 53 636 53 636 47 640 c 0,49,50
 39 645 39 645 39 657 c 0,51,52
 39 672 39 672 46 680 c 0,53,54
 51 687 51 687 56 689 c 0,55,56
 57 690 57 690 58 690 c 0,57,-1
 58 690 l 0,58,59
 63 691 63 691 72 691 c 0,60,61
 83 691 83 691 108 690 c 0,62,63
 132 689 132 689 144 689 c 0,64,65
 155 689 155 689 178 688.5 c 128,-1,66
 201 688 201 688 213 688 c 0,67,68
 230 688 230 688 290.5 689.5 c 128,-1,69
 351 691 351 691 368 691 c 0,70,71
 395 691 395 691 395 668 c 0,72,73
 395 646 395 646 384 640 c 0,74,75
 374 634 374 634 356 634 c 0,76,77
 332 634 332 634 307 631 c 1,78,-1
 430 351 l 1,79,-1
 690 630 l 1,80,81
 673 634 673 634 654 634 c 0,82,83
 622 634 622 634 622 657 c 0,84,85
 622 691 622 691 654 691 c 0,86,87
 672 691 672 691 709 689 c 0,88,89
 746 688 746 688 765 688 c 0,90,91
 780 688 780 688 811 689 c 0,92,93
 843 691 843 691 857 691 c 0,94,95
 868 691 868 691 874 683 c 0,96,97
 880 676 880 676 880 668 c 0,98,99
 880 653 880 653 873.5 644.5 c 128,-1,100
 867 636 867 636 860 635 c 0,101,102
 855 634 855 634 846 634 c 0,103,104
 801 633 801 633 778 624 c 0,105,106
 756 615 756 615 738 597 c 2,107,-1
 434 272 l 1,0,-1
EndSplineSet
Validated: 19457
EndChar

StartChar: Z
Encoding: 90 90 25
Width: 772
VWidth: 1000
Flags: W
HStem: -5 61<253 514.768> 634 57<372.188 623>
VStem: 191 57<444.127 506.265> 660 56<229.682 288.684>
LayerCount: 2
Fore
SplineSet
253 56 m 1,0,-1
 385 56 l 2,1,2
 440 56 440 56 482 67.5 c 128,-1,3
 524 79 524 79 551 96 c 128,-1,4
 578 113 578 113 599.5 142.5 c 128,-1,5
 621 172 621 172 631.5 196.5 c 128,-1,6
 642 221 642 221 660 273 c 0,7,8
 666 289 666 289 688 289 c 0,9,10
 716 289 716 289 716 266 c 0,11,12
 716 262 716 262 713 251 c 2,13,-1
 639 22 l 2,14,15
 634 6 634 6 629 1 c 0,16,17
 628 0 628 0 623.5 -2.5 c 128,-1,18
 619 -5 619 -5 598 -5 c 2,19,-1
 98 -5 l 2,20,21
 79 -5 79 -5 72.5 -3 c 128,-1,22
 66 -1 66 -1 64 6 c 0,23,24
 63 10 63 10 63 14 c 0,25,26
 63 36 63 36 82 55 c 2,27,-1
 623 634 l 1,28,-1
 501 634 l 2,29,30
 399 634 399 634 340 594 c 128,-1,31
 281 554 281 554 248 460 c 0,32,33
 244 448 244 448 238 444 c 128,-1,34
 232 440 232 440 219 440 c 0,35,36
 191 440 191 440 191 463 c 0,37,38
 191 469 191 469 196 485 c 2,39,-1
 251 663 l 2,40,41
 256 680 256 680 262 685 c 0,42,43
 262 686 l 0,44,-1
 263 686 l 0,45,-1
 267 688 l 0,46,47
 271 691 271 691 293 691 c 2,48,-1
 776 691 l 2,49,50
 794 691 794 691 800.5 688.5 c 128,-1,51
 807 686 807 686 809 679 c 0,52,53
 810 676 810 676 810 672 c 0,54,55
 810 653 810 653 794 635 c 2,56,-1
 253 56 l 1,0,-1
EndSplineSet
Validated: 19457
EndChar

StartChar: a
Encoding: 97 97 26
Width: 632
VWidth: 1000
Flags: W
HStem: -13 46<175.334 296.947 461.938 513.154> 411 46<263.76 387.041>
VStem: 40 123<63.8908 226.594>
LayerCount: 2
Fore
SplineSet
497 227 m 2,0,1
 492 205 492 205 475 137 c 0,2,3
 461 82 461 82 461 65 c 0,4,5
 461 33 461 33 479 33 c 0,6,7
 518 33 518 33 542 129 c 0,8,9
 548 155 548 155 550 159 c 0,10,11
 551 160 551 160 551 161 c 0,12,13
 557 167 557 167 575 167 c 0,14,15
 604 167 604 167 604 148 c 0,16,17
 604 143 604 143 600 128 c 128,-1,18
 596 113 596 113 586.5 89.5 c 128,-1,19
 577 66 577 66 565 46 c 0,20,21
 530 -13 530 -13 474 -13 c 0,22,23
 398 -13 398 -13 358 39 c 1,24,25
 300 -13 300 -13 220 -13 c 0,26,27
 146 -13 146 -13 93 28.5 c 128,-1,28
 40 70 40 70 40 157 c 0,29,30
 40 270 40 270 121 363.5 c 128,-1,31
 202 457 202 457 327 457 c 0,32,33
 393 457 393 457 433 417 c 1,34,35
 454 440 454 440 484 440 c 0,36,37
 504 440 504 440 520 427.5 c 128,-1,38
 536 415 536 415 536 391 c 0,39,40
 536 383 536 383 520 316 c 1,41,-1
 497 227 l 2,0,1
344 95 m 1,42,-1
 405 345 l 1,43,-1
 407 358 l 1,44,45
 407 364 407 364 399.5 375.5 c 128,-1,46
 392 387 392 387 373.5 399 c 128,-1,47
 355 411 355 411 329 411 c 0,48,49
 253 411 253 411 213 316 c 0,50,51
 200 285 200 285 181.5 212 c 128,-1,52
 163 139 163 139 163 104 c 0,53,54
 163 33 163 33 225 33 c 0,55,56
 258 33 258 33 289.5 50.5 c 128,-1,57
 321 68 321 68 344 95 c 1,42,-1
EndSplineSet
Validated: 19457
EndChar

StartChar: b
Encoding: 98 98 27
Width: 520
VWidth: 1000
Flags: W
HStem: -13 46<171.841 284.353> 411 46<253.444 375.666> 634 64<127 157> 634 56<91.0898 156.591>
VStem: 47 110<59.8439 231.667> 388 123<217.571 380.109>
LayerCount: 2
Fore
SplineSet
230 430 m 1,0,1
 279 457 279 457 331 457 c 0,2,3
 405 457 405 457 458 415.5 c 128,-1,4
 511 374 511 374 511 287 c 0,5,6
 511 236 511 236 491 184 c 128,-1,7
 471 132 471 132 436 87.5 c 128,-1,8
 401 43 401 43 344.5 15 c 128,-1,9
 288 -13 288 -13 222 -13 c 0,10,11
 152 -13 152 -13 99.5 26 c 128,-1,12
 47 65 47 65 47 155 c 0,13,14
 47 191 47 191 61 247 c 2,15,-1
 130 523 l 2,16,17
 139 556 139 556 157 633 c 1,18,19
 144 634 144 634 121 634 c 0,20,21
 90 634 90 634 90 657 c 0,22,23
 90 672 90 672 97 680.5 c 128,-1,24
 104 689 104 689 110 690 c 128,-1,25
 116 691 116 691 127 692 c 2,26,-1
 255 698 l 2,27,28
 258 699 258 699 263 699 c 0,29,30
 290 699 290 699 290 676 c 0,31,32
 290 672 290 672 286 658 c 2,33,-1
 230 430 l 1,0,1
224 33 m 0,34,35
 252 33 252 33 284 54.5 c 128,-1,36
 316 76 316 76 338 128 c 0,37,38
 351 160 351 160 369.5 232.5 c 128,-1,39
 388 305 388 305 388 340 c 0,40,41
 388 411 388 411 326 411 c 0,42,43
 287 411 287 411 249 386 c 128,-1,44
 211 361 211 361 208 347 c 0,45,46
 183 245 183 245 174 210 c 1,47,48
 157 136 157 136 157 111 c 0,49,50
 157 33 157 33 224 33 c 0,34,35
EndSplineSet
Validated: 19457
EndChar

StartChar: c
Encoding: 99 99 28
Width: 513
VWidth: 1000
Flags: W
HStem: -13 46<190.45 385.557> 411 46<278.786 418.999>
VStem: 41 125<76.8626 241.302> 372 132<302.005 378.691>
LayerCount: 2
Fore
SplineSet
360 411 m 0,0,1
 271 411 271 411 221 327 c 0,2,3
 201 292 201 292 183 222 c 0,4,5
 166 152 166 152 166 121 c 0,6,7
 166 33 166 33 260 33 c 0,8,9
 394 33 394 33 467 110 c 0,10,11
 476 119 476 119 481 122 c 0,12,13
 484 123 484 123 486 123 c 0,14,15
 495 123 495 123 506 111 c 0,16,17
 516 100 516 100 516 93 c 2,18,-1
 516 92 l 2,19,20
 516 91 516 91 516 90 c 0,21,-1
 516 89 l 0,22,23
 514 76 514 76 485 53 c 0,24,25
 454 27 454 27 415 11 c 0,26,27
 352 -13 352 -13 258 -13 c 0,28,29
 147 -13 147 -13 94 37.5 c 128,-1,30
 41 88 41 88 41 165 c 0,31,32
 41 275 41 275 128.5 366 c 128,-1,33
 216 457 216 457 359 457 c 0,34,35
 426 457 426 457 464 430 c 0,36,37
 504 403 504 403 504 359 c 0,38,39
 504 326 504 326 482 302 c 0,40,41
 460 277 460 277 427 277 c 0,42,43
 398 277 398 277 385 294 c 0,44,45
 372 310 372 310 372 328 c 0,46,47
 372 334 372 334 374 344 c 0,48,49
 376 355 376 355 390 374 c 0,50,51
 402 389 402 389 420 397 c 1,52,53
 396 411 396 411 360 411 c 0,0,1
516 90 m 1,54,-1
 516 90 l 1,54,-1
EndSplineSet
Validated: 19457
EndChar

StartChar: d
Encoding: 100 100 29
Width: 609
VWidth: 1000
Flags: W
HStem: -13 46<175.334 296.947 461.938 513.154> 411 46<263.76 387.314> 634 64<446 476> 634 56<410.09 475.591>
VStem: 40 123<63.8908 226.594>
LayerCount: 2
Fore
SplineSet
467 107 m 2,0,1
 461 87 461 87 461 65 c 0,2,3
 461 33 461 33 479 33 c 0,4,5
 518 33 518 33 542 129 c 0,6,7
 548 155 548 155 550 159 c 0,8,9
 551 160 551 160 551 161 c 0,10,11
 557 167 557 167 575 167 c 0,12,13
 604 167 604 167 604 148 c 0,14,15
 604 143 604 143 600 128 c 128,-1,16
 596 113 596 113 586.5 89.5 c 128,-1,17
 577 66 577 66 565 46 c 0,18,19
 530 -13 530 -13 474 -13 c 0,20,21
 398 -13 398 -13 358 39 c 1,22,23
 300 -13 300 -13 220 -13 c 0,24,25
 146 -13 146 -13 93 28.5 c 128,-1,26
 40 70 40 70 40 157 c 0,27,28
 40 270 40 270 121 363.5 c 128,-1,29
 202 457 202 457 327 457 c 0,30,31
 386 457 386 457 425 425 c 1,32,-1
 476 633 l 1,33,34
 463 634 463 634 440 634 c 0,35,36
 409 634 409 634 409 657 c 0,37,38
 409 672 409 672 416 680.5 c 128,-1,39
 423 689 423 689 429 690 c 128,-1,40
 435 691 435 691 446 692 c 2,41,-1
 574 698 l 2,42,43
 577 699 577 699 582 699 c 0,44,45
 609 699 609 699 609 676 c 0,46,47
 609 672 609 672 605 658 c 2,48,-1
 467 107 l 2,0,1
344 95 m 1,49,-1
 405 345 l 1,50,-1
 407 358 l 1,51,52
 407 364 407 364 399.5 375.5 c 128,-1,53
 392 387 392 387 373.5 399 c 128,-1,54
 355 411 355 411 329 411 c 0,55,56
 253 411 253 411 213 316 c 0,57,58
 200 285 200 285 181.5 212 c 128,-1,59
 163 139 163 139 163 104 c 0,60,61
 163 33 163 33 225 33 c 0,62,63
 258 33 258 33 289.5 50.5 c 128,-1,64
 321 68 321 68 344 95 c 1,49,-1
EndSplineSet
Validated: 19457
EndChar

StartChar: e
Encoding: 101 101 30
Width: 553
VWidth: 1000
Flags: W
HStem: -13 46<193.303 385.667> 213 46<193 377.883> 411 46<277.492 413.502>
VStem: 44 124<76.625 211.745> 430 70<301.459 397.03>
LayerCount: 2
Fore
SplineSet
182 213 m 1,0,1
 168 160 168 160 168 125 c 0,2,3
 168 33 168 33 261 33 c 0,4,5
 394 33 394 33 467 110 c 0,6,7
 476 119 476 119 481 122 c 0,8,9
 484 123 484 123 486 123 c 0,10,11
 495 123 495 123 506 111 c 0,12,13
 516 100 516 100 516 93 c 2,14,-1
 516 92 l 2,15,16
 516 91 516 91 516 90 c 0,17,-1
 516 89 l 0,18,19
 514 76 514 76 485 53 c 0,20,21
 454 27 454 27 415 11 c 0,22,23
 352 -13 352 -13 258 -13 c 0,24,25
 157 -13 157 -13 101 35 c 0,26,27
 44 83 44 83 44 172 c 0,28,29
 44 292 44 292 133 374.5 c 128,-1,30
 222 457 222 457 358 457 c 0,31,32
 422 457 422 457 460 430 c 0,33,34
 500 402 500 402 500 356 c 0,35,36
 500 268 500 268 398 233 c 0,37,38
 338 213 338 213 222 213 c 2,39,-1
 182 213 l 1,0,1
516 90 m 1,40,-1
 516 90 l 1,40,-1
193 259 m 1,41,-1
 221 259 l 2,42,43
 248 259 248 259 277.5 261 c 128,-1,44
 307 263 307 263 325 266.5 c 128,-1,45
 343 270 343 270 365.5 277 c 128,-1,46
 388 284 388 284 400 294 c 128,-1,47
 412 304 412 304 421 319.5 c 128,-1,48
 430 335 430 335 430 355 c 0,49,50
 430 383 430 383 409 397 c 128,-1,51
 388 411 388 411 358 411 c 0,52,53
 294 411 294 411 249 366 c 1,54,55
 212 332 212 332 193 259 c 1,41,-1
EndSplineSet
Validated: 19457
EndChar

StartChar: f
Encoding: 102 102 31
Width: 568
VWidth: 1000
Flags: W
HStem: -207 46<151.747 205.484> 392 57<194.219 311 443 580.781> 661 46<482.371 534.428>
VStem: 57 131<-146.861 -67.1565> 500 131<567.156 646.42>
LayerCount: 2
Fore
SplineSet
380 94 m 2,0,1
 354 -50 354 -50 310 -118 c 0,2,3
 300 -134 300 -134 288 -148 c 0,4,5
 274 -165 274 -165 240 -186 c 128,-1,6
 206 -207 206 -207 171 -207 c 0,7,8
 127 -207 127 -207 92 -185 c 128,-1,9
 57 -163 57 -163 57 -122 c 0,10,11
 57 -91 57 -91 79.5 -67 c 128,-1,12
 102 -43 102 -43 134 -43 c 0,13,14
 156 -43 156 -43 172 -57 c 128,-1,15
 188 -71 188 -71 188 -94 c 128,-1,16
 188 -117 188 -117 175 -136 c 0,17,18
 165 -150 165 -150 151 -159 c 1,19,20
 161 -161 161 -161 173 -161 c 0,21,22
 200 -161 200 -161 218 -113 c 0,23,24
 220 -109 220 -109 224 -89 c 2,25,-1
 232 -50 l 2,26,27
 236 -31 236 -31 236 -29 c 0,28,-1
 236 -28 l 1,29,-1
 311 392 l 1,30,-1
 225 392 l 2,31,32
 187 392 187 392 187 415 c 0,33,34
 187 431 187 431 194 439 c 128,-1,35
 201 447 201 447 209 448 c 0,36,37
 215 449 215 449 228 449 c 2,38,-1
 322 449 l 1,39,40
 333 515 333 515 338 536 c 0,41,42
 343 558 343 558 350 584 c 0,43,44
 358 611 358 611 370 630 c 0,45,46
 418 707 418 707 512 707 c 0,47,48
 561 707 561 707 596 685 c 0,49,50
 631 662 631 662 631 622 c 0,51,52
 631 591 631 591 608.5 567 c 128,-1,53
 586 543 586 543 554 543 c 0,54,55
 532 543 532 543 516 557 c 128,-1,56
 500 571 500 571 500 594 c 0,57,58
 500 616 500 616 513 635 c 0,59,60
 522 649 522 649 535 658 c 1,61,62
 524 661 524 661 512 661 c 0,63,64
 498 661 498 661 486 650 c 0,65,66
 477 642 477 642 475 624 c 2,67,-1
 443 449 l 1,68,-1
 549 449 l 2,69,70
 588 449 588 449 588 426 c 0,71,72
 588 410 588 410 581 402 c 128,-1,73
 574 394 574 394 566 393 c 0,74,75
 560 392 560 392 546 392 c 2,76,-1
 433 392 l 1,77,-1
 380 94 l 2,0,1
EndSplineSet
Validated: 19457
EndChar

StartChar: g
Encoding: 103 103 32
Width: 544
VWidth: 1000
Flags: W
HStem: -207 46<108 246.228> -197 144<25.2357 107.765> -5 46<182.167 303.452> 411 46<267.808 391.553>
VStem: 1 131<-157.614 -76.3877> 44 123<72.2722 229.816> 411 128<291.203 403>
LayerCount: 2
Fore
SplineSet
428 -62 m 2,0,1
 417 -106 417 -106 387.5 -136.5 c 128,-1,2
 358 -167 358 -167 317.5 -181.5 c 128,-1,3
 277 -196 277 -196 240.5 -201.5 c 128,-1,4
 204 -207 204 -207 165 -207 c 0,5,6
 132 -207 132 -207 108.5 -205 c 128,-1,7
 85 -203 85 -203 57.5 -197 c 128,-1,8
 30 -191 30 -191 15.5 -174 c 128,-1,9
 1 -157 1 -157 1 -132 c 0,10,11
 1 -97 1 -97 24.5 -75 c 128,-1,12
 48 -53 48 -53 77 -53 c 0,13,14
 102 -53 102 -53 117 -68.5 c 128,-1,15
 132 -84 132 -84 132 -104 c 0,16,17
 132 -137 132 -137 108 -159 c 1,18,19
 131 -161 131 -161 164 -161 c 0,20,21
 221 -161 221 -161 263 -127 c 0,22,23
 296 -100 296 -100 310 -43 c 0,24,25
 311 -39 311 -39 317 -17 c 128,-1,26
 323 5 323 5 326 21 c 1,27,28
 278 -5 278 -5 224 -5 c 0,29,30
 150 -5 150 -5 97 37 c 128,-1,31
 44 79 44 79 44 163 c 0,32,33
 44 232 44 232 77 298 c 128,-1,34
 110 364 110 364 177 410.5 c 128,-1,35
 244 457 244 457 330 457 c 0,36,37
 397 457 397 457 436 418 c 1,38,39
 457 440 457 440 487 440 c 0,40,41
 507 440 507 440 523 427.5 c 128,-1,42
 539 415 539 415 539 391 c 0,43,44
 539 380 539 380 535 364 c 2,45,-1
 428 -62 l 2,0,1
350 114 m 1,46,-1
 408 346 l 2,47,48
 411 356 411 356 411 360 c 0,49,50
 411 365 411 365 404 375.5 c 128,-1,51
 397 386 397 386 378 398.5 c 128,-1,52
 359 411 359 411 332 411 c 0,53,54
 254 411 254 411 215 314 c 0,55,56
 203 284 203 284 185 213.5 c 128,-1,57
 167 143 167 143 167 111 c 0,58,59
 167 75 167 75 184 58 c 128,-1,60
 201 41 201 41 230 41 c 0,61,62
 285 41 285 41 336 88 c 0,63,64
 344 95 344 95 350 114 c 1,46,-1
EndSplineSet
Validated: 19457
EndChar

StartChar: h
Encoding: 104 104 33
Width: 667
VWidth: 1000
Flags: W
HStem: -13 46<472.172 531.116> 411 46<315.115 431.188> 634 64<162 192> 634 56<126.09 191.591>
VStem: 360 112<33.022 124.295> 437 117<248.908 406.25> 582 57<92.6748 166.664>
LayerCount: 2
Fore
SplineSet
258 404 m 1,0,1
 323 457 323 457 400 457 c 0,2,3
 465 457 465 457 509 430 c 0,4,5
 554 402 554 402 554 336 c 0,6,7
 554 282 554 282 489 112 c 0,8,9
 472 69 472 69 472 49 c 0,10,11
 472 40 472 40 474 37 c 128,-1,12
 476 34 476 34 477 33 c 0,13,14
 480 33 480 33 484 33 c 0,15,16
 492 33 492 33 501 37 c 0,17,18
 511 41 511 41 526 51 c 128,-1,19
 541 61 541 61 556 86 c 128,-1,20
 571 111 571 111 582 150 c 0,21,22
 587 167 587 167 610 167 c 0,23,24
 639 167 639 167 639 148 c 0,25,26
 639 137 639 137 629 113 c 128,-1,27
 619 89 619 89 600 60 c 128,-1,28
 581 31 581 31 549 9 c 0,29,30
 516 -13 516 -13 478 -13 c 0,31,32
 431 -13 431 -13 396 12 c 0,33,34
 360 38 360 38 360 82 c 0,35,36
 360 98 360 98 374 135 c 0,37,38
 437 294 437 294 437 357 c 0,39,40
 437 411 437 411 392 411 c 0,41,42
 311 411 311 411 247 323 c 0,43,44
 233 304 233 304 228 284 c 2,45,-1
 168 47 l 2,46,47
 153 -13 153 -13 98 -13 c 0,48,49
 75 -13 75 -13 60 1.5 c 128,-1,50
 45 16 45 16 45 37 c 0,51,52
 45 45 45 45 49 61 c 2,53,-1
 192 633 l 1,54,55
 179 634 179 634 156 634 c 0,56,57
 125 634 125 634 125 657 c 0,58,59
 125 672 125 672 132 680.5 c 128,-1,60
 139 689 139 689 146 690 c 0,61,62
 151 691 151 691 162 692 c 2,63,-1
 290 698 l 2,64,65
 293 699 293 699 298 699 c 0,66,67
 325 699 325 699 325 676 c 0,68,69
 325 672 325 672 321 658 c 2,70,-1
 258 404 l 1,0,1
EndSplineSet
Validated: 19457
EndChar

StartChar: i
Encoding: 105 105 34
Width: 404
VWidth: 1000
Flags: W
HStem: -13 46<198.72 255.021> 411 46<135.979 192.28> 572 127<232.72 314.736>
VStem: 27 57<277.336 348.493> 85 113<33.1154 125.287> 193 113<318.713 410.885> 209 130<596.442 675.28> 307 57<95.5071 166.664>
LayerCount: 2
Fore
SplineSet
315.5 595 m 128,-1,1
 292 572 292 572 263 572 c 0,2,3
 240 572 240 572 224.5 587 c 128,-1,4
 209 602 209 602 209 625 c 0,5,6
 209 653 209 653 232 676 c 128,-1,7
 255 699 255 699 285 699 c 0,8,9
 308 699 308 699 323.5 683.5 c 128,-1,10
 339 668 339 668 339 646 c 0,11,0
 339 618 339 618 315.5 595 c 128,-1,1
347.5 95.5 m 128,-1,13
 331 60 331 60 292 23.5 c 128,-1,14
 253 -13 253 -13 204 -13 c 128,-1,15
 155 -13 155 -13 120 14 c 128,-1,16
 85 41 85 41 85 82 c 0,17,18
 85 96 85 96 93 118 c 2,19,-1
 160 291 l 2,20,21
 193 373 193 373 193 392 c 128,-1,22
 193 411 193 411 182 411 c 0,23,24
 169 411 169 411 154.5 404 c 128,-1,25
 140 397 140 397 119 369 c 128,-1,26
 98 341 98 341 84 294 c 0,27,28
 79 277 79 277 56 277 c 0,29,30
 27 277 27 277 27 296 c 0,31,32
 27 313 27 313 43.5 348.5 c 128,-1,33
 60 384 60 384 99 420.5 c 128,-1,34
 138 457 138 457 187 457 c 128,-1,35
 236 457 236 457 271 430 c 128,-1,36
 306 403 306 403 306 362 c 0,37,38
 306 348 306 348 298 326 c 2,39,-1
 231 153 l 2,40,41
 198 71 198 71 198 52 c 128,-1,42
 198 33 198 33 209 33 c 0,43,44
 222 33 222 33 236.5 40 c 128,-1,45
 251 47 251 47 272 75 c 128,-1,46
 293 103 293 103 307 150 c 0,47,48
 312 167 312 167 335 167 c 0,49,50
 364 167 364 167 364 148 c 0,51,12
 364 131 364 131 347.5 95.5 c 128,-1,13
EndSplineSet
Validated: 19457
EndChar

StartChar: j
Encoding: 106 106 35
Width: 470
VWidth: 1000
Flags: W
HStem: -207 46<85.0186 144.164> 411 46<223.011 300.118> 572 127<349.264 431.28>
VStem: -19 131<-156.479 -76.9165> 301 117<272.297 410.77> 325 130<595.72 674.558>
LayerCount: 2
Fore
SplineSet
432 595 m 128,-1,1
 409 572 409 572 379 572 c 0,2,3
 356 572 356 572 340.5 587.5 c 128,-1,4
 325 603 325 603 325 625 c 0,5,6
 325 653 325 653 348.5 676 c 128,-1,7
 372 699 372 699 401 699 c 0,8,9
 424 699 424 699 439.5 683.5 c 128,-1,10
 455 668 455 668 455 646 c 0,11,0
 455 618 455 618 432 595 c 128,-1,1
295 337 m 2,12,13
 301 362 301 362 301 379 c 0,14,15
 301 411 301 411 282 411 c 0,16,17
 251 411 251 411 215 383 c 0,18,19
 180 355 180 355 154 296 c 0,20,21
 149 285 149 285 144 281 c 0,22,23
 143 281 143 281 143 280 c 0,24,25
 141 279 l 0,26,27
 140 279 l 0,28,29
 135 277 135 277 124 277 c 0,30,31
 95 277 95 277 95 296 c 0,32,33
 95 305 95 305 109 330 c 0,34,35
 122 354 122 354 145 384 c 0,36,37
 168 413 168 413 206 435 c 0,38,39
 245 457 245 457 287 457 c 0,40,41
 339 457 339 457 378 430 c 0,42,43
 418 402 418 402 418 354 c 0,44,45
 418 337 418 337 413 319 c 2,46,-1
 321 -47 l 2,47,48
 310 -92 310 -92 281 -125.5 c 128,-1,49
 252 -159 252 -159 216 -176 c 0,50,51
 180 -192 180 -192 148 -199.5 c 128,-1,52
 116 -207 116 -207 88 -207 c 0,53,54
 40 -207 40 -207 11 -186 c 0,55,56
 -19 -165 -19 -165 -19 -131 c 0,57,58
 -19 -98 -19 -98 4.5 -75.5 c 128,-1,59
 28 -53 28 -53 57 -53 c 0,60,61
 82 -53 82 -53 97 -68.5 c 128,-1,62
 112 -84 112 -84 112 -104 c 0,63,64
 112 -139 112 -139 85 -161 c 1,65,66
 87 -161 87 -161 88 -161 c 0,67,68
 125 -161 125 -161 156 -128 c 0,69,70
 188 -94 188 -94 199 -45 c 2,71,-1
 295 337 l 2,12,13
141 279 m 1,72,-1
 141 279 l 1,72,-1
EndSplineSet
Validated: 19457
EndChar

StartChar: k
Encoding: 107 107 36
Width: 603
VWidth: 1000
Flags: W
HStem: -13 46<417.924 477.11> 411 46<422.573 501.76> 634 64<162 192> 634 56<126.09 191.591>
VStem: 45 119<1.95471 114.625> 300 117<33.491 141.641> 306 122<95.406 183.498> 440 132<304.531 383.263>
LayerCount: 2
Fore
SplineSet
228 283 m 1,0,1
 272 310 272 310 312 354 c 1,2,3
 363 403 363 403 405 430 c 128,-1,4
 447 457 447 457 491 457 c 0,5,6
 526 457 526 457 549 433.5 c 128,-1,7
 572 410 572 410 572 370 c 0,8,9
 572 322 572 322 546 301 c 0,10,11
 520 281 520 281 495 281 c 128,-1,12
 470 281 470 281 455 296.5 c 128,-1,13
 440 312 440 312 440 332 c 0,14,15
 440 357 440 357 459 380 c 0,16,17
 475 400 475 400 503 407 c 1,18,19
 502 408 502 408 501 409 c 0,20,21
 496 411 496 411 488 411 c 0,22,23
 431 411 431 411 342 324 c 0,24,25
 301 283 301 283 264 256 c 1,26,27
 290 253 290 253 310 249 c 0,28,29
 335 244 335 244 364 233 c 0,30,31
 394 221 394 221 411 198.5 c 128,-1,32
 428 176 428 176 428 144 c 0,33,34
 428 130 428 130 425 118 c 0,35,36
 417 88 417 88 417 67 c 0,37,38
 417 33 417 33 438 33 c 0,39,40
 486 33 486 33 516 143 c 0,41,42
 520 156 520 156 524 161 c 0,43,44
 525 162 525 162 526 163 c 0,45,46
 531 167 531 167 546 167 c 0,47,48
 575 167 575 167 575 148 c 0,49,50
 575 141 575 141 567 118 c 128,-1,51
 559 95 559 95 544 65 c 0,52,53
 529 34 529 34 499 11 c 0,54,55
 469 -13 469 -13 433 -13 c 0,56,57
 379 -13 379 -13 340 16 c 0,58,59
 300 45 300 45 300 95 c 0,60,61
 300 108 300 108 303 120 c 0,62,63
 306 131 306 131 306 140 c 0,64,65
 306 159 306 159 294 173 c 0,66,67
 282 188 282 188 263 195 c 0,68,69
 243 203 243 203 229 206 c 0,70,71
 218 208 218 208 209 210 c 1,72,73
 165 35 165 35 164 31 c 2,74,-1
 164 30 l 1,75,76
 145 -13 145 -13 98 -13 c 0,77,78
 75 -13 75 -13 60 1.5 c 128,-1,79
 45 16 45 16 45 37 c 0,80,81
 45 45 45 45 49 61 c 2,82,-1
 192 633 l 1,83,84
 179 634 179 634 156 634 c 0,85,86
 125 634 125 634 125 657 c 0,87,88
 125 672 125 672 132 680.5 c 128,-1,89
 139 689 139 689 146 690 c 0,90,91
 151 691 151 691 162 692 c 2,92,-1
 290 698 l 2,93,94
 293 699 293 699 298 699 c 0,95,96
 325 699 325 699 325 676 c 0,97,98
 325 672 325 672 321 658 c 2,99,-1
 228 283 l 1,0,1
EndSplineSet
Validated: 19457
EndChar

StartChar: l
Encoding: 108 108 37
Width: 348
VWidth: 1000
Flags: W
HStem: -13 46<145.435 196.92> 634 64<130 160> 634 56<94.0898 159.591>
VStem: 28 117<33.0155 169.945> 235 53<87 166.703>
LayerCount: 2
Fore
SplineSet
151 107 m 2,0,1
 145 80 145 80 145 64 c 0,2,3
 145 33 145 33 163 33 c 0,4,5
 202 33 202 33 226 129 c 0,6,7
 232 155 232 155 234 159 c 0,8,9
 235 160 235 160 235 161 c 0,10,11
 241 167 241 167 259 167 c 0,12,13
 288 167 288 167 288 148 c 0,14,15
 288 143 288 143 284 127.5 c 128,-1,16
 280 112 280 112 270 88.5 c 128,-1,17
 260 65 260 65 249 46 c 0,18,19
 213 -13 213 -13 158 -13 c 0,20,21
 107 -13 107 -13 67.5 14 c 128,-1,22
 28 41 28 41 28 90 c 0,23,24
 28 107 28 107 33 125 c 2,25,-1
 160 633 l 1,26,27
 147 634 147 634 124 634 c 0,28,29
 93 634 93 634 93 657 c 0,30,31
 93 672 93 672 100 680.5 c 128,-1,32
 107 689 107 689 113 690 c 128,-1,33
 119 691 119 691 130 692 c 2,34,-1
 258 698 l 2,35,36
 261 699 261 699 266 699 c 0,37,38
 293 699 293 699 293 676 c 0,39,40
 293 672 293 672 289 658 c 2,41,-1
 151 107 l 2,0,1
EndSplineSet
Validated: 19457
EndChar

StartChar: m
Encoding: 109 109 38
Width: 1032
VWidth: 1000
Flags: W
HStem: -13 46<836.172 895.116> 411 46<118.33 169.343 360.261 475.986 680.099 795.188>
VStem: 90 109<2.46973 79.1875> 724 112<33.022 125.511> 801 117<249.946 406.25> 946 57<94.418 166.664>
LayerCount: 2
Fore
SplineSet
471 291 m 2,0,1
 482 331 482 331 482 357 c 0,2,3
 482 411 482 411 437 411 c 0,4,5
 385 411 385 411 337 373 c 0,6,7
 316 357 316 357 297 330 c 0,8,9
 279 305 279 305 277 298 c 0,10,-1
 277 297 l 1,11,-1
 276 295 l 2,12,13
 269 270 l 2,14,-1
 255 213 l 2,15,16
 253 204 253 204 249.5 192 c 128,-1,17
 246 180 246 180 246 179 c 0,18,19
 221 77 221 77 218 67 c 0,20,21
 214 51 214 51 210 41 c 128,-1,22
 206 31 206 31 199 17 c 0,23,24
 191 2 191 2 176 -5 c 0,25,26
 161 -13 161 -13 142 -13 c 0,27,28
 118 -13 118 -13 104 2 c 128,-1,29
 90 17 90 17 90 36 c 0,30,31
 90 40 90 40 98 77 c 1,32,-1
 134 217 l 2,33,34
 139 239 139 239 156 307 c 0,35,36
 170 362 170 362 170 379 c 0,37,38
 170 411 170 411 152 411 c 0,39,40
 114 411 114 411 89 315 c 0,41,42
 82 288 82 288 81 285 c 0,43,44
 80 284 80 284 80 283 c 0,45,46
 74 277 74 277 56 277 c 0,47,48
 27 277 27 277 27 296 c 0,49,50
 27 301 27 301 31 316 c 128,-1,51
 35 331 35 331 45 355 c 0,52,53
 55 380 55 380 66 398 c 0,54,55
 102 457 102 457 157 457 c 0,56,57
 201 457 201 457 237 436 c 0,58,59
 270 417 270 417 282 385 c 1,60,61
 353 457 353 457 445 457 c 0,62,63
 506 457 506 457 544 435 c 0,64,65
 580 415 580 415 592 376 c 1,66,67
 666 457 666 457 764 457 c 0,68,69
 829 457 829 457 873 430 c 0,70,71
 918 402 918 402 918 336 c 0,72,73
 918 279 918 279 856 120 c 0,74,75
 836 70 836 70 836 49 c 0,76,77
 836 40 836 40 838 37 c 128,-1,78
 840 34 840 34 841 33 c 0,79,80
 844 33 844 33 848 33 c 0,81,82
 856 33 856 33 865 37 c 128,-1,83
 874 41 874 41 890 51 c 0,84,85
 905 61 905 61 919 86 c 0,86,87
 934 112 934 112 946 150 c 0,88,89
 951 167 951 167 974 167 c 0,90,91
 1003 167 1003 167 1003 148 c 0,92,93
 1003 137 1003 137 993 113 c 128,-1,94
 983 89 983 89 964 60 c 128,-1,95
 945 31 945 31 913 9 c 0,96,97
 880 -13 880 -13 842 -13 c 0,98,99
 795 -13 795 -13 760 12 c 0,100,101
 724 38 724 38 724 82 c 0,102,103
 724 98 724 98 738 135 c 0,104,105
 801 297 801 297 801 357 c 0,106,107
 801 411 801 411 756 411 c 0,108,109
 678 411 678 411 617 331 c 0,110,111
 596 304 596 304 592 285 c 0,112,113
 534 45 534 45 529 33 c 0,114,115
 509 -13 509 -13 461 -13 c 0,116,117
 437 -13 437 -13 423 2 c 128,-1,118
 409 17 409 17 409 36 c 0,119,-1
 409 37 l 0,120,121
 409 42 409 42 426 111 c 2,122,-1
 471 291 l 2,0,1
EndSplineSet
Validated: 19457
EndChar

StartChar: n
Encoding: 110 110 39
Width: 712
VWidth: 1000
Flags: W
HStem: -13 46<517.172 576.116> 411 46<118.33 169.343 360.261 476.188>
VStem: 90 109<2.46973 79.1875> 405 112<33.022 125.511> 482 117<249.946 406.25> 627 57<94.418 166.664>
LayerCount: 2
Fore
SplineSet
445 457 m 0,0,1
 510 457 510 457 554 430 c 0,2,3
 599 402 599 402 599 336 c 0,4,5
 599 279 599 279 537 120 c 0,6,7
 517 70 517 70 517 49 c 0,8,9
 517 40 517 40 519 37 c 128,-1,10
 521 34 521 34 522 33 c 0,11,12
 525 33 525 33 529 33 c 0,13,14
 537 33 537 33 546 37 c 128,-1,15
 555 41 555 41 571 51 c 0,16,17
 586 61 586 61 600 86 c 0,18,19
 615 112 615 112 627 150 c 0,20,21
 632 167 632 167 655 167 c 0,22,23
 684 167 684 167 684 148 c 0,24,25
 684 137 684 137 674 113 c 128,-1,26
 664 89 664 89 645 60 c 128,-1,27
 626 31 626 31 594 9 c 0,28,29
 561 -13 561 -13 523 -13 c 0,30,31
 476 -13 476 -13 441 12 c 0,32,33
 405 38 405 38 405 82 c 0,34,35
 405 98 405 98 419 135 c 0,36,37
 482 297 482 297 482 357 c 0,38,39
 482 411 482 411 437 411 c 0,40,41
 385 411 385 411 337 373 c 0,42,43
 316 357 316 357 297 330 c 0,44,45
 279 305 279 305 277 298 c 0,46,-1
 277 297 l 1,47,-1
 276 295 l 2,48,-1
 269 270 l 2,49,-1
 255 213 l 2,50,51
 253 204 253 204 249.5 192 c 128,-1,52
 246 180 246 180 246 179 c 0,53,54
 221 77 221 77 218 67 c 0,55,56
 214 51 214 51 210 41 c 128,-1,57
 206 31 206 31 199 17 c 0,58,59
 191 2 191 2 176 -5 c 0,60,61
 161 -13 161 -13 142 -13 c 0,62,63
 118 -13 118 -13 104 2 c 128,-1,64
 90 17 90 17 90 36 c 0,65,66
 90 40 90 40 98 77 c 1,67,-1
 134 217 l 2,68,69
 139 239 139 239 156 307 c 0,70,71
 170 362 170 362 170 379 c 0,72,73
 170 411 170 411 152 411 c 0,74,75
 114 411 114 411 89 315 c 0,76,77
 82 288 82 288 81 285 c 0,78,79
 80 284 80 284 80 283 c 0,80,81
 74 277 74 277 56 277 c 0,82,83
 27 277 27 277 27 296 c 0,84,85
 27 301 27 301 31 316 c 128,-1,86
 35 331 35 331 45 355 c 0,87,88
 55 380 55 380 66 398 c 0,89,90
 102 457 102 457 157 457 c 0,91,92
 201 457 201 457 237 436 c 0,93,94
 270 417 270 417 282 385 c 1,95,96
 353 457 353 457 445 457 c 0,0,1
EndSplineSet
Validated: 19457
EndChar

StartChar: o
Encoding: 111 111 40
Width: 584
VWidth: 1000
Flags: W
HStem: -13 46<189.841 334.038> 411 46<280.962 424.768>
VStem: 41 125<75.1631 239.177> 449 125<204.823 369.012>
LayerCount: 2
Fore
SplineSet
553 178.5 m 128,-1,1
 532 128 532 128 493.5 85 c 128,-1,2
 455 42 455 42 392.5 14.5 c 128,-1,3
 330 -13 330 -13 254 -13 c 0,4,5
 154 -13 154 -13 97.5 34.5 c 128,-1,6
 41 82 41 82 41 165 c 0,7,8
 41 215 41 215 62 265.5 c 128,-1,9
 83 316 83 316 121.5 359 c 128,-1,10
 160 402 160 402 222.5 429.5 c 128,-1,11
 285 457 285 457 361 457 c 0,12,13
 461 457 461 457 517.5 409.5 c 128,-1,14
 574 362 574 362 574 279 c 0,15,0
 574 229 574 229 553 178.5 c 128,-1,1
256.5 33 m 128,-1,17
 294 33 294 33 331.5 53.5 c 128,-1,18
 369 74 369 74 394 117 c 0,19,20
 414 153 414 153 431.5 223.5 c 128,-1,21
 449 294 449 294 449 323 c 0,22,23
 449 371 449 371 422.5 391 c 128,-1,24
 396 411 396 411 358.5 411 c 128,-1,25
 321 411 321 411 283.5 390.5 c 128,-1,26
 246 370 246 370 221 327 c 0,27,28
 201 291 201 291 183.5 220.5 c 128,-1,29
 166 150 166 150 166 121 c 0,30,31
 166 72 166 72 192.5 52.5 c 128,-1,16
 219 33 219 33 256.5 33 c 128,-1,17
EndSplineSet
Validated: 19457
EndChar

StartChar: p
Encoding: 112 112 41
Width: 600
VWidth: 1000
Flags: W
HStem: -199 57<-13.2958 48.8281 166 232.91> -13 46<243.686 367.24> 411 46<117.846 169.062 334.053 455.666>
VStem: 468 123<217.406 380.109>
LayerCount: 2
Fore
SplineSet
164 337 m 2,0,1
 170 357 170 357 170 379 c 0,2,3
 170 411 170 411 152 411 c 0,4,5
 113 411 113 411 89 315 c 0,6,7
 83 289 83 289 81 285 c 0,8,9
 80 284 80 284 80 283 c 0,10,11
 74 277 74 277 56 277 c 0,12,13
 27 277 27 277 27 296 c 0,14,15
 27 301 27 301 31 316 c 128,-1,16
 35 331 35 331 44.5 354.5 c 128,-1,17
 54 378 54 378 66 398 c 0,18,19
 101 457 101 457 157 457 c 0,20,21
 233 457 233 457 273 405 c 1,22,23
 331 457 331 457 411 457 c 0,24,25
 485 457 485 457 538 415.5 c 128,-1,26
 591 374 591 374 591 287 c 0,27,28
 591 174 591 174 510 80.5 c 128,-1,29
 429 -13 429 -13 304 -13 c 0,30,31
 245 -13 245 -13 206 19 c 1,32,-1
 166 -141 l 1,33,34
 179 -142 179 -142 203 -142 c 0,35,36
 234 -142 234 -142 234 -165 c 0,37,38
 234 -199 234 -199 203 -199 c 0,39,40
 186 -199 186 -199 150 -197.5 c 128,-1,41
 114 -196 114 -196 96 -196 c 0,42,43
 81 -196 81 -196 49.5 -197.5 c 128,-1,44
 18 -199 18 -199 4 -199 c 0,45,46
 -7 -199 -7 -199 -13.5 -193 c 128,-1,47
 -20 -187 -20 -187 -20 -175 c 0,48,49
 -20 -160 -20 -160 -13 -152 c 128,-1,50
 -6 -144 -6 -144 1.5 -143 c 128,-1,51
 9 -142 9 -142 20 -142 c 0,52,53
 37 -142 37 -142 43 -141 c 1,54,55
 44 -138 44 -138 47 -128 c 2,56,-1
 164 337 l 2,0,1
287 349 m 1,57,-1
 226 99 l 1,58,-1
 224 86 l 1,59,60
 224 80 224 80 231.5 68.5 c 128,-1,61
 239 57 239 57 257.5 45 c 128,-1,62
 276 33 276 33 302 33 c 0,63,64
 378 33 378 33 418 128 c 0,65,66
 431 159 431 159 449.5 232 c 128,-1,67
 468 305 468 305 468 340 c 0,68,69
 468 411 468 411 406 411 c 0,70,71
 373 411 373 411 341.5 393.5 c 128,-1,72
 310 376 310 376 287 349 c 1,57,-1
EndSplineSet
Validated: 19457
EndChar

StartChar: q
Encoding: 113 113 42
Width: 542
VWidth: 1000
Flags: W
HStem: -199 57<211.253 280.938 405 471.91> -13 46<175.334 297.704> 411 46<263.76 386.827>
VStem: 40 123<63.8908 226.594>
LayerCount: 2
Fore
SplineSet
405 -141 m 1,0,1
 418 -142 418 -142 442 -142 c 0,2,3
 473 -142 473 -142 473 -165 c 0,4,5
 473 -199 473 -199 442 -199 c 0,6,7
 424 -199 424 -199 387 -197.5 c 128,-1,8
 350 -196 350 -196 331 -196 c 0,9,10
 313 -196 313 -196 277.5 -197.5 c 128,-1,11
 242 -199 242 -199 225 -199 c 0,12,13
 200 -199 200 -199 200 -176 c 0,14,15
 200 -161 200 -161 209 -150 c 0,16,17
 210 -149 210 -149 211 -148 c 0,18,19
 219 -142 219 -142 241 -142 c 0,20,21
 268 -142 268 -142 278 -140 c 0,22,23
 279 -140 279 -140 281 -139 c 0,24,25
 284 -136 284 -136 286 -127 c 2,26,-1
 321 14 l 1,27,28
 272 -13 272 -13 220 -13 c 0,29,30
 146 -13 146 -13 93 28.5 c 128,-1,31
 40 70 40 70 40 157 c 0,32,33
 40 270 40 270 121 363.5 c 128,-1,34
 202 457 202 457 327 457 c 0,35,36
 395 457 395 457 434 416 c 1,37,38
 448 428 448 428 470 438 c 128,-1,39
 492 448 492 448 506.5 452.5 c 128,-1,40
 521 457 521 457 524 457 c 0,41,42
 525 457 l 0,43,44
 537 457 537 457 542.5 449.5 c 128,-1,45
 548 442 548 442 548 434 c 2,46,-1
 548 433 l 1,47,-1
 405 -141 l 1,0,1
345 108 m 2,48,-1
 405 345 l 2,49,50
 407 350 407 350 407 358 c 0,51,52
 407 364 407 364 399.5 375.5 c 128,-1,53
 392 387 392 387 373.5 399 c 128,-1,54
 355 411 355 411 329 411 c 0,55,56
 253 411 253 411 213 316 c 0,57,58
 200 285 200 285 181.5 212 c 128,-1,59
 163 139 163 139 163 104 c 0,60,61
 163 33 163 33 225 33 c 0,62,63
 281 33 281 33 331 82 c 0,64,65
 340 90 340 90 345 108 c 2,48,-1
EndSplineSet
Validated: 19457
EndChar

StartChar: r
Encoding: 114 114 43
Width: 528
VWidth: 1000
Flags: W
HStem: -13 21G<130 152.5> 411 46<118.08 169.139 335.5 432.295>
VStem: 27 53<277.297 357> 90 123<4.84766 68.0613> 378 132<305.452 384.411>
LayerCount: 2
Fore
SplineSet
405 411 m 0,0,1
 344 411 344 411 299 355 c 0,2,3
 287 340 287 340 283 325 c 2,4,-1
 248 184 l 2,5,6
 215 50 215 50 213 44 c 0,7,8
 206 14 206 14 184 0 c 0,9,10
 163 -13 163 -13 142 -13 c 0,11,12
 118 -13 118 -13 104 2 c 128,-1,13
 90 17 90 17 90 36 c 2,14,-1
 90 37 l 1,15,-1
 108 115 l 1,16,17
 119 156 119 156 128 197 c 1,18,-1
 142 253 l 2,19,20
 145 266 145 266 148 277 c 128,-1,21
 151 288 151 288 153.5 296 c 128,-1,22
 156 304 156 304 156 305 c 0,23,24
 170 357 170 357 170 380 c 0,25,26
 170 411 170 411 152 411 c 0,27,28
 113 411 113 411 89 315 c 0,29,30
 83 289 83 289 81 285 c 0,31,32
 80 284 80 284 80 283 c 0,33,34
 74 277 74 277 56 277 c 0,35,36
 27 277 27 277 27 296 c 0,37,38
 27 301 27 301 31 316 c 128,-1,39
 35 331 35 331 45 355 c 128,-1,40
 55 379 55 379 66 398 c 0,41,42
 102 457 102 457 157 457 c 0,43,44
 191 457 191 457 226 442 c 0,45,46
 258 428 258 428 275 400 c 1,47,48
 331 457 331 457 407 457 c 0,49,50
 454 457 454 457 482 430 c 128,-1,51
 510 403 510 403 510 365 c 128,-1,52
 510 327 510 327 486.5 304 c 128,-1,53
 463 281 463 281 433 281 c 0,54,55
 408 281 408 281 393 296.5 c 128,-1,56
 378 312 378 312 378 332 c 0,57,58
 378 342 378 342 381 354 c 0,59,60
 384 367 384 367 400 384 c 0,61,62
 413 398 413 398 433 404 c 1,63,64
 422 411 422 411 405 411 c 0,0,1
EndSplineSet
Validated: 19457
EndChar

StartChar: s
Encoding: 115 115 44
Width: 531
VWidth: 1000
Flags: W
HStem: -13 46<135.395 332.373> 411 46<249.096 403.5>
VStem: 52 131<71.2921 149.549> 136 88<273 372.547> 367 114<310.598 384.404> 375 87<85.97 157.5>
LayerCount: 2
Fore
SplineSet
331 411 m 0,0,1
 301 411 301 411 279 403.5 c 128,-1,2
 257 396 257 396 246.5 386.5 c 128,-1,3
 236 377 236 377 230.5 364.5 c 128,-1,4
 225 352 225 352 224.5 347.5 c 128,-1,5
 224 343 224 343 224 339 c 0,6,7
 224 323 224 323 236.5 314 c 128,-1,8
 249 305 249 305 264.5 300.5 c 128,-1,9
 280 296 280 296 314 290 c 0,10,11
 388 278 388 278 420 249 c 0,12,13
 462 213 462 213 462 164 c 0,14,15
 462 160 462 160 461.5 153.5 c 128,-1,16
 461 147 461 147 456.5 128.5 c 128,-1,17
 452 110 452 110 443.5 93 c 128,-1,18
 435 76 435 76 417.5 56 c 128,-1,19
 400 36 400 36 376.5 21 c 128,-1,20
 353 6 353 6 315 -3.5 c 128,-1,21
 277 -13 277 -13 229 -13 c 0,22,23
 149 -13 149 -13 100.5 13.5 c 128,-1,24
 52 40 52 40 52 91 c 0,25,26
 52 128 52 128 75.5 151 c 128,-1,27
 99 174 99 174 129 174 c 0,28,29
 150 174 150 174 166.5 162 c 128,-1,30
 183 150 183 150 183 123 c 0,31,32
 183 98 183 98 168.5 79.5 c 128,-1,33
 154 61 154 61 134 53 c 1,34,35
 168 33 168 33 231 33 c 0,36,37
 272 33 272 33 301.5 42.5 c 128,-1,38
 331 52 331 52 344.5 63.5 c 128,-1,39
 358 75 358 75 365.5 90.5 c 128,-1,40
 373 106 373 106 374 112 c 128,-1,41
 375 118 375 118 375 123 c 0,42,43
 375 164 375 164 289 179 c 0,44,45
 242 187 242 187 218 194.5 c 128,-1,46
 194 202 194 202 174 218 c 0,47,48
 136 248 136 248 136 298 c 0,49,50
 136 323 136 323 152 359.5 c 128,-1,51
 168 396 168 396 199 419 c 0,52,53
 249 457 249 457 333 457 c 0,54,55
 401 457 401 457 441 432 c 128,-1,56
 481 407 481 407 481 364 c 0,57,58
 481 329 481 329 460 310 c 128,-1,59
 439 291 439 291 415 291 c 0,60,61
 396 291 396 291 381.5 303.5 c 128,-1,62
 367 316 367 316 367 337 c 0,63,64
 367 352 367 352 377 369 c 128,-1,65
 387 386 387 386 404 395 c 1,66,67
 376 411 376 411 331 411 c 0,0,1
EndSplineSet
Validated: 19457
EndChar

StartChar: t
Encoding: 116 116 45
Width: 415
VWidth: 1000
Flags: W
HStem: -13 46<178.984 255.794> 392 57<27.219 134 270 380.816>
VStem: 61 117<33.0425 169.666> 191 114<533.884 635.591>
LayerCount: 2
Fore
SplineSet
184 107 m 2,0,1
 178 82 178 82 178 65 c 0,2,3
 178 53 178 53 180 45 c 0,4,5
 182 39 182 39 185 36 c 128,-1,6
 188 33 188 33 190 33 c 0,7,8
 193 33 193 33 197 33 c 0,9,10
 228 33 228 33 264 61 c 0,11,12
 299 89 299 89 325 148 c 0,13,14
 330 159 330 159 335 163 c 0,15,-1
 336 164 l 0,16,17
 337 165 337 165 338 165 c 2,18,-1
 339 165 l 2,19,20
 344 167 344 167 355 167 c 0,21,22
 384 167 384 167 384 148 c 0,23,24
 384 139 384 139 370 114 c 0,25,26
 357 90 357 90 334 60 c 0,27,28
 311 31 311 31 273 9 c 0,29,30
 234 -13 234 -13 192 -13 c 0,31,32
 139 -13 139 -13 101 14 c 0,33,34
 61 41 61 41 61 90 c 0,35,36
 61 107 61 107 78 170 c 1,37,-1
 134 392 l 1,38,-1
 59 392 l 2,39,40
 47 392 47 392 41 393 c 0,41,42
 34 394 34 394 27 399 c 0,43,44
 20 405 20 405 20 415 c 0,45,46
 20 431 20 431 27 439 c 128,-1,47
 34 447 34 447 42 448 c 0,48,49
 48 449 48 449 62 449 c 2,50,-1
 148 449 l 1,51,-1
 167 527 l 2,52,53
 186 602 186 602 191 610 c 0,54,55
 212 648 212 648 253 648 c 0,56,57
 273 648 273 648 289 636 c 0,58,59
 305 623 305 623 305 599 c 0,60,61
 305 589 305 589 301 572 c 2,62,-1
 270 449 l 1,63,-1
 344 449 l 2,64,65
 382 449 382 449 382 426 c 0,66,67
 382 406 382 406 371 398 c 0,68,-1
 370 398 l 0,69,70
 370 397 370 397 369 397 c 0,71,72
 362 392 362 392 341 392 c 2,73,-1
 256 392 l 1,74,-1
 184 107 l 2,0,1
EndSplineSet
Validated: 19457
EndChar

StartChar: u
Encoding: 117 117 46
Width: 681
VWidth: 1000
Flags: W
HStem: -13 46<244.397 352.356 509.869 560.15> 411 46<134.884 193.828> 429 20G<525.5 547>
VStem: 27 57<277.336 349.582> 117 117<43.208 205.123> 194 112<319.166 410.978> 464 123<303.484 429.109>
LayerCount: 2
Fore
SplineSet
545 227 m 2,0,1
 540 205 540 205 523 137 c 0,2,3
 509 82 509 82 509 65 c 0,4,5
 509 33 509 33 527 33 c 0,6,7
 565 33 565 33 590 129 c 0,8,9
 597 156 597 156 598 159 c 0,10,11
 599 160 599 160 599 161 c 0,12,13
 605 167 605 167 623 167 c 0,14,15
 652 167 652 167 652 148 c 0,16,17
 652 143 652 143 648 128 c 128,-1,18
 644 113 644 113 634 89 c 0,19,20
 625 66 625 66 613 46 c 0,21,22
 578 -13 578 -13 522 -13 c 0,23,24
 445 -13 445 -13 407 39 c 1,25,26
 349 -13 349 -13 281 -13 c 0,27,28
 254 -13 254 -13 229.5 -8.5 c 128,-1,29
 205 -4 205 -4 178 9 c 0,30,31
 150 22 150 22 134 52 c 0,32,33
 117 81 117 81 117 122 c 0,34,35
 117 181 117 181 178 334 c 1,36,37
 194 381 194 381 194 395 c 0,38,39
 194 404 194 404 192 407 c 128,-1,40
 190 410 190 410 189 411 c 0,41,42
 186 411 186 411 182 411 c 0,43,44
 174 411 174 411 165 407 c 128,-1,45
 156 403 156 403 140 393 c 0,46,47
 125 383 125 383 111 358 c 0,48,49
 96 332 96 332 84 294 c 0,50,51
 79 277 79 277 56 277 c 0,52,53
 27 277 27 277 27 296 c 0,54,55
 27 307 27 307 37 331 c 128,-1,56
 47 355 47 355 66 384 c 128,-1,57
 85 413 85 413 117 435 c 0,58,59
 150 457 150 457 188 457 c 0,60,61
 235 457 235 457 270 432 c 0,62,63
 306 406 306 406 306 362 c 0,64,65
 306 345 306 345 293 310 c 0,66,67
 234 158 234 158 234 101 c 0,68,69
 234 33 234 33 289 33 c 0,70,71
 345 33 345 33 392 95 c 1,72,73
 394 111 394 111 407 164 c 0,74,75
 464 391 464 391 464 392 c 0,76,77
 473 422 473 422 495 436 c 0,78,79
 516 449 516 449 535 449 c 0,80,81
 559 449 559 449 573 434 c 128,-1,82
 587 419 587 419 587 400 c 0,83,84
 587 392 587 392 568 316 c 2,85,-1
 545 227 l 2,0,1
EndSplineSet
Validated: 19457
EndChar

StartChar: v
Encoding: 118 118 47
Width: 566
VWidth: 1000
Flags: W
HStem: -13 46<249.107 362.02> 411 46<134.884 193.828>
VStem: 27 57<277.336 349.562> 118 117<46.4274 212.292> 194 112<318.392 410.978> 472 74<240.119 375>
LayerCount: 2
Fore
SplineSet
531 266 m 0,0,1
 516 208 516 208 488 144 c 0,2,3
 460 79 460 79 409 33 c 128,-1,4
 358 -13 358 -13 296 -13 c 0,5,6
 118 -13 118 -13 118 126 c 0,7,8
 118 162 118 162 131 204 c 0,9,10
 142 239 142 239 179 337 c 0,11,12
 194 375 194 375 194 395 c 0,13,14
 194 404 194 404 192 407 c 128,-1,15
 190 410 190 410 189 411 c 0,16,17
 186 411 186 411 182 411 c 0,18,19
 174 411 174 411 164 407 c 128,-1,20
 154 403 154 403 139 392 c 128,-1,21
 124 381 124 381 110 356 c 0,22,23
 95 331 95 331 84 294 c 0,24,25
 79 277 79 277 56 277 c 0,26,27
 27 277 27 277 27 296 c 0,28,29
 27 307 27 307 37 331 c 128,-1,30
 47 355 47 355 66 384 c 128,-1,31
 85 413 85 413 117 435 c 0,32,33
 150 457 150 457 188 457 c 0,34,35
 235 457 235 457 270 432 c 0,36,37
 306 406 306 406 306 362 c 0,38,39
 306 343 306 343 295 315 c 0,40,41
 235 166 235 166 235 106 c 0,42,43
 235 33 235 33 302 33 c 0,44,45
 340 33 340 33 375 66 c 128,-1,46
 410 99 410 99 429 143 c 0,47,48
 449 188 449 188 461 223 c 0,49,50
 472 258 472 258 472 269 c 0,51,52
 472 300 472 300 424 328 c 0,53,54
 392 347 392 347 392 377 c 0,55,56
 392 406 392 406 417 432 c 128,-1,57
 442 458 442 458 473 458 c 0,58,59
 476 458 476 458 481 457 c 128,-1,60
 486 456 486 456 499 452 c 0,61,62
 512 447 512 447 521 437.5 c 128,-1,63
 530 428 530 428 538 408 c 128,-1,64
 546 388 546 388 546 362 c 0,65,66
 546 325 546 325 531 266 c 0,0,1
EndSplineSet
Validated: 19457
EndChar

StartChar: w
Encoding: 119 119 48
Width: 831
VWidth: 1000
Flags: W
HStem: -13 46<252.623 364.748 520.699 631.618> 411 46<134.647 193.913> 429 20G<509.5 531>
VStem: 27 57<277.336 349.582> 118 118<50.8811 217.46> 194 112<317.413 410.992> 389 117<57.7329 221.047> 728 74<235.181 375>
LayerCount: 2
Fore
SplineSet
547 298 m 1,0,-1
 522 197 l 2,1,2
 506 131 506 131 506 107 c 0,3,4
 506 33 506 33 574 33 c 0,5,6
 631 33 631 33 673 106 c 0,7,8
 694 143 694 143 711 199 c 128,-1,9
 728 255 728 255 728 269 c 0,10,11
 728 300 728 300 681 328 c 0,12,13
 648 347 648 347 648 377 c 0,14,15
 648 406 648 406 673.5 432 c 128,-1,16
 699 458 699 458 729 458 c 0,17,18
 732 458 732 458 737 457 c 128,-1,19
 742 456 742 456 755 452 c 0,20,21
 768 447 768 447 777 437.5 c 128,-1,22
 786 428 786 428 794 408 c 128,-1,23
 802 388 802 388 802 362 c 0,24,25
 802 319 802 319 781 240 c 0,26,27
 761 164 761 164 730 107 c 0,28,29
 667 -13 667 -13 567 -13 c 0,30,31
 463 -13 463 -13 417 40 c 1,32,33
 371 -13 371 -13 305 -13 c 0,34,35
 255 -13 255 -13 217 -3 c 0,36,37
 178 7 178 7 148 41 c 0,38,39
 118 74 118 74 118 128 c 0,40,41
 118 181 118 181 172 318 c 0,42,43
 194 372 194 372 194 395 c 0,44,45
 194 411 194 411 182 411 c 0,46,47
 174 411 174 411 165 407 c 128,-1,48
 156 403 156 403 140 393 c 0,49,50
 125 383 125 383 111 358 c 0,51,52
 96 332 96 332 84 294 c 0,53,54
 79 277 79 277 56 277 c 0,55,56
 27 277 27 277 27 296 c 0,57,58
 27 307 27 307 37 331 c 128,-1,59
 47 355 47 355 66 384 c 128,-1,60
 85 413 85 413 117 435 c 0,61,62
 150 457 150 457 188 457 c 0,63,64
 235 457 235 457 270 432 c 0,65,66
 306 406 306 406 306 362 c 0,67,68
 306 346 306 346 288 299 c 0,69,70
 236 168 236 168 236 110 c 0,71,72
 236 33 236 33 312 33 c 0,73,74
 336 33 336 33 356 48 c 128,-1,75
 376 63 376 63 384 77 c 0,76,77
 392 90 392 90 392 94 c 1,78,-1
 391 101 l 2,79,80
 389 109 389 109 389 126 c 0,81,82
 389 154 389 154 397 188 c 0,83,84
 428 319 428 319 448 392 c 0,85,86
 457 423 457 423 479 437 c 0,87,88
 500 449 500 449 519 449 c 0,89,90
 543 449 543 449 557 434.5 c 128,-1,91
 571 420 571 420 571 400 c 0,92,93
 571 391 571 391 561 354 c 2,94,-1
 547 298 l 1,0,-1
EndSplineSet
Validated: 19457
EndChar

StartChar: x
Encoding: 120 120 49
Width: 659
VWidth: 1000
Flags: W
HStem: -13 46<117.36 200.524 356.027 469.103> 411 46<172.897 285.973 441.476 524.64>
VStem: 33 132<60.0312 138.549> 46 57<277.316 341.608> 477 132<305.451 383.969> 539 57<102.392 166.684>
LayerCount: 2
Fore
SplineSet
488 411 m 0,0,1
 463 411 463 411 441 388.5 c 128,-1,2
 419 366 419 366 408 324 c 2,3,-1
 399 290 l 1,4,-1
 373 188 l 2,5,6
 351 98 351 98 351 78 c 0,7,8
 351 33 351 33 402 33 c 0,9,10
 438 33 438 33 479 61.5 c 128,-1,11
 520 90 520 90 539 151 c 0,12,13
 544 167 544 167 567 167 c 0,14,15
 596 167 596 167 596 150 c 128,-1,16
 596 133 596 133 582.5 107.5 c 128,-1,17
 569 82 569 82 545.5 54.5 c 128,-1,18
 522 27 522 27 482 7 c 128,-1,19
 442 -13 442 -13 397 -13 c 0,20,21
 298 -13 298 -13 259 44 c 1,22,23
 215 -13 215 -13 152 -13 c 0,24,25
 103 -13 103 -13 68 12.5 c 128,-1,26
 33 38 33 38 33 80 c 0,27,28
 33 117 33 117 56.5 140 c 128,-1,29
 80 163 80 163 110 163 c 0,30,31
 135 163 135 163 150 147.5 c 128,-1,32
 165 132 165 132 165 112 c 0,33,34
 165 89 165 89 151 69.5 c 128,-1,35
 137 50 137 50 117 42 c 1,36,37
 133 33 133 33 154 33 c 0,38,39
 179 33 179 33 201 55.5 c 128,-1,40
 223 78 223 78 234 120 c 2,41,-1
 268 257 l 2,42,43
 291 348 291 348 291 366 c 0,44,45
 291 411 291 411 240 411 c 0,46,47
 204 411 204 411 163 382.5 c 128,-1,48
 122 354 122 354 103 293 c 0,49,50
 98 277 98 277 75 277 c 0,51,52
 46 277 46 277 46 294 c 128,-1,53
 46 311 46 311 59.5 336.5 c 128,-1,54
 73 362 73 362 96.5 389.5 c 128,-1,55
 120 417 120 417 160 437 c 128,-1,56
 200 457 200 457 245 457 c 0,57,58
 344 457 344 457 383 400 c 1,59,60
 427 457 427 457 490 457 c 0,61,62
 539 457 539 457 574 431.5 c 128,-1,63
 609 406 609 406 609 364 c 0,64,65
 609 327 609 327 585.5 304 c 128,-1,66
 562 281 562 281 532 281 c 0,67,68
 507 281 507 281 492 296.5 c 128,-1,69
 477 312 477 312 477 332 c 0,70,71
 477 355 477 355 491 374.5 c 128,-1,72
 505 394 505 394 525 402 c 1,73,74
 509 411 509 411 488 411 c 0,0,1
EndSplineSet
Validated: 19457
EndChar

StartChar: y
Encoding: 121 121 50
Width: 590
VWidth: 1000
Flags: W
HStem: -207 46<155.732 273.462> -13 46<244.397 352.648> 411 46<134.884 193.828> 429 20G<525.5 547>
VStem: 27 57<277.336 351.325> 66 131<-137.806 -58.2369> 117 117<43.208 206.529> 194 112<317.914 410.978>
LayerCount: 2
Fore
SplineSet
488 -2 m 2,0,1
 465 -93 465 -93 381.5 -150 c 128,-1,2
 298 -207 298 -207 205 -207 c 0,3,4
 144 -207 144 -207 105 -182 c 128,-1,5
 66 -157 66 -157 66 -115 c 0,6,7
 66 -81 66 -81 89 -57.5 c 128,-1,8
 112 -34 112 -34 143 -34 c 0,9,10
 164 -34 164 -34 180 -46 c 0,11,12
 197 -58 197 -58 197 -85 c 0,13,14
 197 -130 197 -130 155 -152 c 1,15,16
 175 -161 175 -161 205 -161 c 0,17,18
 258 -161 258 -161 305 -113 c 0,19,20
 349 -67 349 -67 369 11 c 1,21,22
 329 -13 329 -13 281 -13 c 0,23,24
 254 -13 254 -13 229.5 -8.5 c 128,-1,25
 205 -4 205 -4 178 9 c 0,26,27
 150 22 150 22 134 52 c 0,28,29
 117 81 117 81 117 122 c 0,30,31
 117 158 117 158 131 202 c 0,32,33
 144 243 144 243 177 332 c 0,34,35
 194 376 194 376 194 395 c 0,36,37
 194 404 194 404 192 407 c 128,-1,38
 190 410 190 410 189 411 c 0,39,40
 186 411 186 411 182 411 c 0,41,42
 175 411 175 411 165 407 c 128,-1,43
 155 403 155 403 140 393 c 128,-1,44
 125 383 125 383 110 358 c 128,-1,45
 95 333 95 333 84 294 c 0,46,47
 79 277 79 277 56 277 c 0,48,49
 27 277 27 277 27 296 c 0,50,51
 27 307 27 307 37 331 c 128,-1,52
 47 355 47 355 66 384 c 128,-1,53
 85 413 85 413 117 435 c 0,54,55
 150 457 150 457 188 457 c 0,56,57
 235 457 235 457 270 432 c 0,58,59
 306 406 306 406 306 362 c 0,60,61
 306 345 306 345 293 310 c 0,62,63
 234 158 234 158 234 101 c 0,64,65
 234 33 234 33 289 33 c 0,66,67
 318 33 318 33 354 56 c 0,68,69
 356 57 356 57 364 64 c 0,70,71
 371 70 371 70 381 81 c 0,72,73
 390 92 390 92 391 101 c 2,74,-1
 433 267 l 1,75,-1
 459 371 l 2,76,77
 463 386 463 386 466 396 c 128,-1,78
 469 406 469 406 478 419 c 0,79,80
 487 434 487 434 501.5 441.5 c 128,-1,81
 516 449 516 449 535 449 c 0,82,83
 559 449 559 449 573 434.5 c 128,-1,84
 587 420 587 420 587 400 c 0,85,86
 587 394 587 394 582 376 c 2,87,-1
 488 -2 l 2,0,1
EndSplineSet
Validated: 19457
EndChar

StartChar: z
Encoding: 122 122 51
Width: 555
VWidth: 1000
Flags: W
HStem: -13 121.5<269.499 420.552> 55 45<181 231.842> 336 121<191.924 334.526> 343 46<370.525 398> 434 23<537.148 543>
LayerCount: 2
Fore
SplineSet
221 336 m 1,0,1
 189 334 189 334 174 327 c 1,2,3
 169 313 169 313 147 313 c 0,4,5
 118 313 118 313 118 332 c 0,6,7
 118 365 118 365 162.5 411 c 128,-1,8
 207 457 207 457 268 457 c 0,9,10
 308 457 308 457 357 420 c 1,11,12
 402 389 402 389 425 389 c 0,13,14
 440 389 440 389 454 402 c 0,15,16
 469 416 469 416 488 445 c 0,17,18
 493 452 493 452 495 454 c 0,19,20
 496 455 496 455 498 455 c 0,21,22
 502 457 502 457 515 457 c 0,23,24
 543 457 543 457 543 438 c 0,25,26
 543 437 543 437 543 435 c 0,27,28
 543 434 543 434 542 434 c 0,29,30
 541 431 541 431 539 426 c 0,31,32
 535 418 535 418 521 399 c 128,-1,33
 507 380 507 380 484 355.5 c 128,-1,34
 461 331 461 331 418 293 c 128,-1,35
 375 255 375 255 317 211 c 0,36,37
 229 144 229 144 181 100 c 1,38,-1
 230 102 l 2,39,40
 289 104 289 104 339 107 c 0,41,42
 350 108 350 108 362.5 108.5 c 128,-1,43
 375 109 375 109 382 109.5 c 128,-1,44
 389 110 389 110 391 110 c 0,45,46
 420 113 420 113 439 123 c 0,47,48
 457 132 457 132 461 139 c 0,49,50
 466 147 466 147 472 159 c 0,51,52
 474 162 474 162 475 163 c 0,53,54
 481 171 481 171 498 171 c 0,55,56
 527 171 527 171 527 152 c 0,57,58
 527 111 527 111 470 49 c 128,-1,59
 413 -13 413 -13 337 -13 c 0,60,61
 297 -13 297 -13 240 28 c 0,62,63
 203 55 203 55 178 55 c 0,64,65
 132 55 132 55 93 0 c 0,66,67
 87 -8 87 -8 85 -10 c 0,68,69
 84 -11 84 -11 82 -11 c 0,70,71
 78 -13 78 -13 65 -13 c 0,72,73
 37 -13 37 -13 37 6 c 0,74,75
 37 7 37 7 37 9 c 2,76,-1
 38 10 l 2,77,78
 39 13 39 13 41 18 c 0,79,80
 45 26 45 26 59 45 c 128,-1,81
 73 64 73 64 96 88.5 c 128,-1,82
 119 113 119 113 162 151 c 128,-1,83
 205 189 205 189 263 233 c 0,84,85
 351 300 351 300 398 343 c 1,86,87
 367 342 367 342 282 337 c 1,88,-1
 262 337 l 2,89,90
 249 337 249 337 242 336 c 2,91,-1
 241 336 l 1,92,-1
 221 336 l 1,0,1
543 435 m 1,93,-1
 543 435 l 1,93,-1
EndSplineSet
Validated: 19457
EndChar

StartChar: Alpha
Encoding: 913 913 53
Width: 869
VWidth: 1000
Flags: W
HStem: -5 56<41.0681 159.125 220.628 294.779 498.219 592 747.094 830.812> 193 57<345 562>
LayerCount: 2
Fore
SplineSet
744 68 m 2,0,1
 746 59 746 59 747 55 c 0,2,3
 750 54 750 54 755 53 c 0,4,5
 766 52 766 52 794 52 c 0,6,7
 810 52 810 52 817 51 c 0,8,9
 825 50 825 50 831 46 c 0,10,11
 839 41 839 41 839 29 c 0,12,13
 839 14 839 14 832 6 c 128,-1,14
 825 -2 825 -2 820 -4 c 2,15,-1
 819 -4 l 2,16,17
 813 -5 813 -5 806 -5 c 0,18,19
 794 -5 794 -5 771 -4 c 128,-1,20
 748 -3 748 -3 736 -3 c 128,-1,21
 724 -3 724 -3 701 -2.5 c 128,-1,22
 678 -2 678 -2 667 -2 c 0,23,24
 650 -2 650 -2 592 -3.5 c 128,-1,25
 534 -5 534 -5 518 -5 c 0,26,27
 491 -5 491 -5 491 18 c 0,28,29
 491 34 491 34 498 42 c 128,-1,30
 505 50 505 50 513 51 c 0,31,32
 519 52 519 52 533 52 c 0,33,34
 570 52 570 52 592 56 c 1,35,-1
 571 193 l 1,36,-1
 308 193 l 1,37,-1
 220 60 l 1,38,39
 240 52 240 52 271 52 c 128,-1,40
 302 52 302 52 302 29 c 0,41,42
 302 14 302 14 295 4.5 c 128,-1,43
 288 -5 288 -5 270 -5 c 128,-1,44
 252 -5 252 -5 215 -3 c 0,45,46
 178 -2 178 -2 159 -2 c 0,47,48
 143 -2 143 -2 111 -3 c 0,49,50
 79 -5 79 -5 64 -5 c 0,51,52
 54 -5 54 -5 47 2 c 128,-1,53
 40 9 40 9 40 18 c 0,54,55
 40 33 40 33 47 41.5 c 128,-1,56
 54 50 54 50 61 51 c 0,57,58
 66 52 66 52 77 52 c 0,59,60
 110 52 110 52 131 58 c 0,61,62
 151 64 151 64 156 70 c 0,63,64
 162 76 162 76 170 88 c 2,65,-1
 563 689 l 2,66,67
 574 706 574 706 583.5 711 c 128,-1,68
 593 716 593 716 611 716 c 0,69,70
 632 716 632 716 639.5 710 c 128,-1,71
 647 704 647 704 650 683 c 2,72,-1
 744 68 l 2,0,1
521 519 m 1,73,-1
 345 250 l 1,74,-1
 562 250 l 1,75,-1
 521 519 l 1,73,-1
EndSplineSet
Validated: 19457
EndChar

StartChar: Beta
Encoding: 914 914 54
Width: 866
VWidth: 1000
Flags: W
HStem: -5 57<39.1865 152.874 153 154 294 567.713> 334 46<375 622.351> 634 57<205.219 300 441.031 690.438>
VStem: 660 149<146.887 294.276> 714 145<472.712 611.656>
LayerCount: 2
Fore
SplineSet
300 632 m 1,0,1
 263 634 263 634 245 634 c 128,-1,2
 227 634 227 634 220 635 c 0,3,4
 211 636 211 636 205 640 c 0,5,6
 198 646 198 646 198 657 c 0,7,8
 198 673 198 673 205 681 c 128,-1,9
 212 689 212 689 220 690 c 0,10,11
 226 691 226 691 240 691 c 2,12,-1
 641 691 l 2,13,14
 746 691 746 691 802 652 c 0,15,16
 859 613 859 613 859 547 c 0,17,18
 859 486 859 486 804 430 c 0,19,20
 757 381 757 381 667 359 c 1,21,22
 723 349 723 349 761 321 c 0,23,24
 809 285 809 285 809 221 c 0,25,26
 809 185 809 185 790 146 c 0,27,28
 771 108 771 108 735 73.5 c 128,-1,29
 699 39 699 39 637.5 17 c 128,-1,30
 576 -5 576 -5 501 -5 c 2,31,-1
 77 -5 l 2,32,33
 38 -5 38 -5 38 18 c 128,-1,34
 38 41 38 41 53 49 c 0,35,36
 54 49 54 49 55 50 c 2,37,-1
 56 50 l 2,38,39
 63 52 63 52 87 52 c 0,40,41
 126 52 126 52 140 53 c 0,42,43
 149 54 149 54 153 55 c 2,44,-1
 153 56 l 1,45,-1
 154 56 l 2,46,-1
 154 57 l 2,47,48
 156 60 156 60 158 68 c 2,49,-1
 300 632 l 1,0,1
436 620 m 2,50,-1
 375 380 l 1,51,-1
 527 380 l 2,52,53
 574 380 574 380 612 397 c 128,-1,54
 650 414 650 414 671 441 c 128,-1,55
 692 468 692 468 703 496.5 c 128,-1,56
 714 525 714 525 714 552 c 0,57,58
 714 634 714 634 618 634 c 2,59,-1
 469 634 l 2,60,61
 451 634 451 634 443 633 c 0,62,63
 442 633 442 633 441 632 c 0,64,65
 438 629 438 629 436 620 c 2,50,-1
312 52 m 2,66,-1
 472 52 l 2,67,68
 521 52 521 52 559.5 70 c 128,-1,69
 598 88 598 88 619 116.5 c 128,-1,70
 640 145 640 145 650 176 c 128,-1,71
 660 207 660 207 660 237 c 0,72,73
 660 334 660 334 555 334 c 2,74,-1
 364 334 l 1,75,-1
 294 52 l 1,76,77
 301 52 301 52 312 52 c 2,66,-1
EndSplineSet
Validated: 19457
EndChar

StartChar: Gamma
Encoding: 915 915 55
Width: 656
VWidth: 1000
Flags: W
HStem: -3 55<39.292 152.874 153 154 305 424.747> 626 59<208 298 448 681.652>
VStem: 705 55<434.375 522.715>
LayerCount: 2
Fore
SplineSet
305 55 m 1,0,1
 325 52 325 52 362 52 c 2,2,-1
 395 52 l 2,3,4
 433 52 433 52 433 29 c 0,5,6
 433 13 433 13 425 4 c 128,-1,7
 417 -5 417 -5 398 -5 c 0,8,9
 384 -5 384 -5 355.5 -4 c 128,-1,10
 327 -3 327 -3 312 -3 c 128,-1,11
 297 -3 297 -3 267 -2.5 c 128,-1,12
 237 -2 237 -2 222 -2 c 0,13,14
 208 -2 208 -2 181 -2.5 c 128,-1,15
 154 -3 154 -3 141 -3 c 128,-1,16
 128 -3 128 -3 103 -4 c 128,-1,17
 78 -5 78 -5 65 -5 c 0,18,19
 38 -5 38 -5 38 18 c 128,-1,20
 38 41 38 41 53 49 c 0,21,22
 54 49 54 49 55 50 c 2,23,-1
 56 50 l 2,24,25
 63 52 63 52 87 52 c 0,26,27
 126 52 126 52 140 53 c 0,28,29
 149 54 149 54 153 55 c 2,30,-1
 153 56 l 1,31,-1
 154 56 l 2,32,-1
 154 57 l 2,33,34
 156 60 156 60 158 68 c 2,35,-1
 298 626 l 1,36,37
 261 628 261 628 243 628 c 0,38,39
 226 628 226 628 219 629 c 0,40,41
 211 630 211 630 205 634 c 0,42,43
 197 639 197 639 197 651 c 0,44,45
 197 671 197 671 208 679 c 0,46,-1
 208 680 l 0,47,48
 210 680 l 0,49,50
 217 685 217 685 238 685 c 2,51,-1
 744 685 l 2,52,53
 782 685 782 685 782 662 c 1,54,-1
 781 646 l 1,55,-1
 763 467 l 2,56,57
 762 455 762 455 760 450 c 0,58,59
 758 444 758 444 752 439 c 128,-1,60
 746 434 746 434 734 434 c 0,61,62
 705 434 705 434 705 458 c 0,63,64
 705 467 705 467 708 491 c 0,65,66
 710 514 710 514 710 523 c 0,67,68
 710 554 710 554 701.5 574.5 c 128,-1,69
 693 595 693 595 682 606 c 0,70,71
 671 616 671 616 643 621 c 0,72,73
 614 626 614 626 593.5 627 c 128,-1,74
 573 628 573 628 526 628 c 0,75,76
 466 628 466 628 448 626 c 1,77,-1
 305 55 l 1,0,1
EndSplineSet
Validated: 19457
EndChar

StartChar: Delta
Encoding: 916 916 56
Width: 958
VWidth: 1000
Flags: W
HStem: -5 128<215 706>
LayerCount: 2
Fore
SplineSet
905 31 m 1,0,-1
 905 30 l 2,1,2
 905 29 l 0,3,4
 905 28 905 28 906.5 25.5 c 128,-1,5
 908 23 908 23 908.5 20 c 128,-1,6
 909 17 909 17 909 15 c 0,7,8
 909 -5 909 -5 872 -5 c 2,9,-1
 77 -5 l 2,10,11
 69 -5 69 -5 65 -4 c 128,-1,12
 61 -3 61 -3 60 -2 c 0,13,14
 58 0 58 0 57 2 c 128,-1,15
 56 4 56 4 55 5 c 0,16,17
 55 6 l 0,18,19
 55 8 55 8 55 9 c 0,20,21
 55 11 55 11 55 12 c 0,22,23
 56 18 56 18 65 28 c 2,24,-1
 604 691 l 2,25,26
 616 706 616 706 625.5 711 c 128,-1,27
 635 716 635 716 656 716 c 0,28,29
 680 716 680 716 687 710 c 0,30,31
 694 702 694 702 701 682 c 2,32,-1
 905 31 l 1,0,-1
569 559 m 1,33,-1
 215 123 l 1,34,-1
 706 123 l 1,35,-1
 569 559 l 1,33,-1
EndSplineSet
Validated: 19457
EndChar

StartChar: Epsilon
Encoding: 917 917 57
Width: 810
VWidth: 1000
Flags: W
HStem: -5 57<39.1865 152.874 153 154 305 589.158> 324 57<387 497.493> 628 57<208.253 298 448 722.889>
VStem: 503 53<207.275 261.204> 561 60<416.188 490.841> 753 55<434.375 513.716>
LayerCount: 2
Fore
SplineSet
676 -1 m 0,0,-1
 675 -1 l 2,1,2
 668 -5 668 -5 648 -5 c 2,3,-1
 77 -5 l 2,4,5
 38 -5 38 -5 38 18 c 128,-1,6
 38 41 38 41 53 49 c 0,7,8
 54 49 54 49 55 50 c 2,9,-1
 56 50 l 2,10,11
 63 52 63 52 87 52 c 0,12,13
 126 52 126 52 140 53 c 0,14,15
 149 54 149 54 153 55 c 2,16,-1
 153 56 l 1,17,-1
 154 56 l 2,18,-1
 154 57 l 2,19,20
 156 60 156 60 158 68 c 2,21,-1
 298 626 l 1,22,23
 261 628 261 628 243 628 c 0,24,25
 226 628 226 628 219 629 c 0,26,27
 211 630 211 630 205 634 c 0,28,29
 197 639 197 639 197 651 c 0,30,31
 197 671 197 671 208 679 c 0,32,33
 216 685 216 685 238 685 c 2,34,-1
 792 685 l 2,35,36
 830 685 830 685 830 662 c 1,37,-1
 829 646 l 1,38,-1
 811 467 l 2,39,40
 810 455 810 455 808 450 c 0,41,42
 806 444 806 444 800 439 c 128,-1,43
 794 434 794 434 782 434 c 0,44,45
 753 434 753 434 753 458 c 0,46,47
 753 466 753 466 755 486 c 0,48,49
 757 505 757 505 757 514 c 0,50,51
 757 580 757 580 725 604 c 0,52,53
 692 628 692 628 609 628 c 2,54,-1
 478 628 l 2,55,56
 460 628 460 628 448 627 c 1,57,-1
 387 381 l 1,58,-1
 441 381 l 2,59,60
 497 381 497 381 522 398 c 128,-1,61
 547 415 547 415 561 468 c 0,62,63
 566 486 566 486 571 491 c 0,64,65
 577 498 577 498 592 498 c 0,66,67
 621 498 621 498 621 475 c 0,68,69
 621 471 621 471 617 458 c 2,70,-1
 561 235 l 2,71,72
 558 224 558 224 556 220 c 0,73,74
 554 215 554 215 547.5 211 c 128,-1,75
 541 207 541 207 531 207 c 0,76,77
 503 207 503 207 503 230 c 1,78,-1
 504 240 l 1,79,-1
 504 241 l 1,80,-1
 504 242 l 2,81,82
 512 265 512 265 512 286 c 0,83,84
 512 308 512 308 498 316 c 0,85,86
 482 324 482 324 438 324 c 2,87,-1
 373 324 l 1,88,-1
 305 52 l 1,89,90
 312 52 312 52 323 52 c 2,91,-1
 453 52 l 2,92,93
 570 52 570 52 625 95 c 0,94,95
 681 139 681 139 729 247 c 0,96,97
 739 270 739 270 743 274 c 0,98,99
 744 275 744 275 746 276 c 0,100,-1
 747 276 l 0,101,102
 753 279 753 279 763 279 c 0,103,104
 792 279 792 279 792 256 c 0,105,106
 792 250 792 250 786 236 c 2,107,-1
 690 19 l 2,108,109
 683 3 683 3 676 -1 c 0,0,-1
676 -1 m 1,110,-1
 676 -1 l 1,110,-1
EndSplineSet
Validated: 19457
EndChar

StartChar: Zeta
Encoding: 918 918 58
Width: 772
VWidth: 1000
Flags: W
HStem: -5 61<253 514.768> 634 57<372.188 623>
VStem: 191 57<444.127 506.265> 660 56<229.682 288.684>
LayerCount: 2
Fore
SplineSet
253 56 m 1,0,-1
 385 56 l 2,1,2
 440 56 440 56 482 67.5 c 128,-1,3
 524 79 524 79 551 96 c 128,-1,4
 578 113 578 113 599.5 142.5 c 128,-1,5
 621 172 621 172 631.5 196.5 c 128,-1,6
 642 221 642 221 660 273 c 0,7,8
 666 289 666 289 688 289 c 0,9,10
 716 289 716 289 716 266 c 0,11,12
 716 262 716 262 713 251 c 2,13,-1
 639 22 l 2,14,15
 634 6 634 6 629 1 c 0,16,17
 628 0 628 0 623.5 -2.5 c 128,-1,18
 619 -5 619 -5 598 -5 c 2,19,-1
 98 -5 l 2,20,21
 79 -5 79 -5 72.5 -3 c 128,-1,22
 66 -1 66 -1 64 6 c 0,23,24
 63 10 63 10 63 14 c 0,25,26
 63 36 63 36 82 55 c 2,27,-1
 623 634 l 1,28,-1
 501 634 l 2,29,30
 399 634 399 634 340 594 c 128,-1,31
 281 554 281 554 248 460 c 0,32,33
 244 448 244 448 238 444 c 128,-1,34
 232 440 232 440 219 440 c 0,35,36
 191 440 191 440 191 463 c 0,37,38
 191 469 191 469 196 485 c 2,39,-1
 251 663 l 2,40,41
 256 680 256 680 262 685 c 0,42,43
 262 686 l 0,44,-1
 263 686 l 0,45,-1
 267 688 l 0,46,47
 271 690 271 690 293 691 c 2,48,-1
 776 691 l 2,49,50
 794 691 794 691 800.5 688.5 c 128,-1,51
 807 686 807 686 809 679 c 0,52,53
 810 676 810 676 810 672 c 0,54,55
 810 653 810 653 794 635 c 2,56,-1
 253 56 l 1,0,-1
EndSplineSet
Validated: 19457
EndChar

StartChar: Eta
Encoding: 919 919 59
Width: 982
VWidth: 1000
Flags: W
HStem: -5 55<38.824 152.874 153 154 305 397.812 504.824 618.874 619 620 771 863.812> 328 57<388 690> 634 56<205.188 300 449 552 671.188 766 915 1018>
LayerCount: 2
Fore
SplineSet
771 54 m 1,0,1
 808 52 808 52 826 52 c 0,2,3
 843 52 843 52 850 51 c 0,4,5
 858 50 858 50 864 46 c 0,6,7
 872 41 872 41 872 29 c 0,8,9
 872 14 872 14 865 4 c 0,10,11
 859 -5 859 -5 838 -5 c 0,12,13
 826 -5 826 -5 799.5 -4 c 128,-1,14
 773 -3 773 -3 760 -3 c 0,15,16
 748 -3 748 -3 722 -2.5 c 128,-1,17
 696 -2 696 -2 683 -2 c 128,-1,18
 670 -2 670 -2 645 -2.5 c 128,-1,19
 620 -3 620 -3 607 -3 c 128,-1,20
 594 -3 594 -3 569 -4 c 128,-1,21
 544 -5 544 -5 531 -5 c 0,22,23
 504 -5 504 -5 504 18 c 128,-1,24
 504 41 504 41 519 49 c 0,25,26
 520 49 520 49 521 50 c 2,27,-1
 522 50 l 2,28,29
 529 52 529 52 553 52 c 0,30,31
 592 52 592 52 606 53 c 0,32,33
 615 54 615 54 619 55 c 2,34,-1
 619 56 l 1,35,-1
 620 56 l 2,36,-1
 620 57 l 2,37,38
 622 60 622 60 624 68 c 2,39,-1
 690 328 l 1,40,-1
 374 328 l 1,41,-1
 305 54 l 1,42,43
 342 52 342 52 360 52 c 0,44,45
 377 52 377 52 384 51 c 0,46,47
 392 50 392 50 398 46 c 0,48,49
 406 41 406 41 406 29 c 0,50,51
 406 14 406 14 399 4 c 0,52,53
 393 -5 393 -5 372 -5 c 0,54,55
 360 -5 360 -5 333.5 -4 c 128,-1,56
 307 -3 307 -3 294 -3 c 0,57,58
 282 -3 282 -3 256 -2.5 c 128,-1,59
 230 -2 230 -2 217 -2 c 128,-1,60
 204 -2 204 -2 179 -2.5 c 128,-1,61
 154 -3 154 -3 141 -3 c 128,-1,62
 128 -3 128 -3 103 -4 c 128,-1,63
 78 -5 78 -5 65 -5 c 0,64,65
 38 -5 38 -5 38 18 c 128,-1,66
 38 41 38 41 53 49 c 0,67,68
 54 49 54 49 55 50 c 2,69,-1
 56 50 l 2,70,71
 63 52 63 52 87 52 c 0,72,73
 126 52 126 52 140 53 c 0,74,75
 149 54 149 54 153 55 c 2,76,-1
 153 56 l 1,77,-1
 154 56 l 2,78,-1
 154 57 l 2,79,80
 156 60 156 60 158 68 c 2,81,-1
 300 632 l 1,82,83
 263 634 263 634 245 634 c 128,-1,84
 227 634 227 634 220 635 c 0,85,86
 211 636 211 636 205 640 c 0,87,88
 198 646 198 646 198 657 c 0,89,90
 198 672 198 672 205 680.5 c 128,-1,91
 212 689 212 689 219 690 c 0,92,93
 224 691 224 691 232 691 c 0,94,95
 245 691 245 691 271.5 690 c 128,-1,96
 298 689 298 689 311 689 c 0,97,98
 323 689 323 689 349 688.5 c 128,-1,99
 375 688 375 688 388 688 c 0,100,101
 400 688 400 688 425 688.5 c 128,-1,102
 450 689 450 689 463 689 c 128,-1,103
 476 689 476 689 501 690 c 128,-1,104
 526 691 526 691 539 691 c 0,105,106
 566 691 566 691 566 668 c 0,107,108
 566 647 566 647 553 638 c 0,109,-1
 552 637 l 0,110,111
 546 634 546 634 513 634 c 0,112,113
 471 634 471 634 449 631 c 1,114,-1
 388 385 l 1,115,-1
 704 385 l 1,116,-1
 766 632 l 1,117,118
 729 634 729 634 711 634 c 128,-1,119
 693 634 693 634 686 635 c 0,120,121
 677 636 677 636 671 640 c 0,122,123
 664 646 664 646 664 657 c 0,124,125
 664 672 664 672 671 680.5 c 128,-1,126
 678 689 678 689 685 690 c 0,127,128
 690 691 690 691 698 691 c 0,129,130
 711 691 711 691 737.5 690 c 128,-1,131
 764 689 764 689 777 689 c 0,132,133
 789 689 789 689 815 688.5 c 128,-1,134
 841 688 841 688 854 688 c 0,135,136
 866 688 866 688 891 688.5 c 128,-1,137
 916 689 916 689 929 689 c 128,-1,138
 942 689 942 689 967 690 c 128,-1,139
 992 691 992 691 1005 691 c 0,140,141
 1032 691 1032 691 1032 668 c 0,142,143
 1032 647 1032 647 1019 638 c 0,144,-1
 1018 637 l 0,145,146
 1012 634 1012 634 979 634 c 0,147,148
 937 634 937 634 915 631 c 1,149,-1
 771 54 l 1,0,1
EndSplineSet
Validated: 19457
EndChar

StartChar: Theta
Encoding: 920 920 60
Width: 867
VWidth: 1000
Flags: W
HStem: -22 48<272.318 477.327> 280 128<337 562> 662 46<422.357 627.468>
VStem: 48 139<126.713 347.849> 244 55<258 279.729> 600 55<408.271 430> 710 139<331.607 557.577>
LayerCount: 2
Fore
SplineSet
829.5 312 m 128,-1,1
 810 248 810 248 769 188 c 128,-1,2
 728 128 728 128 671 81.5 c 128,-1,3
 614 35 614 35 533.5 6.5 c 128,-1,4
 453 -22 453 -22 360 -22 c 0,5,6
 219 -22 219 -22 133.5 45 c 128,-1,7
 48 112 48 112 48 242 c 0,8,9
 48 303 48 303 67 366.5 c 128,-1,10
 86 430 86 430 127 491 c 128,-1,11
 168 552 168 552 224.5 600.5 c 128,-1,12
 281 649 281 649 363 678.5 c 128,-1,13
 445 708 445 708 539 708 c 0,14,15
 677 708 677 708 763 641 c 128,-1,16
 849 574 849 574 849 440 c 0,17,0
 849 376 849 376 829.5 312 c 128,-1,1
369 26 m 0,18,19
 434 26 434 26 498 57.5 c 128,-1,20
 562 89 562 89 606 148 c 0,21,22
 659 220 659 220 684.5 319 c 128,-1,23
 710 418 710 418 710 476 c 0,24,25
 710 561 710 561 667 609 c 0,26,27
 619 662 619 662 530 662 c 0,28,29
 474 662 474 662 411.5 635.5 c 128,-1,30
 349 609 349 609 298 544 c 0,31,32
 242 472 242 472 214.5 369 c 128,-1,33
 187 266 187 266 187 208 c 0,34,35
 187 158 187 158 202.5 121 c 128,-1,36
 218 84 218 84 245 64.5 c 128,-1,37
 272 45 272 45 303 35.5 c 128,-1,38
 334 26 334 26 369 26 c 0,18,19
619 275 m 2,39,40
 616 263 616 263 614 258.5 c 128,-1,41
 612 254 612 254 605.5 250 c 128,-1,42
 599 246 599 246 589 246 c 0,43,44
 560 246 560 246 560 269 c 0,45,46
 560 273 560 273 562 280 c 0,47,-1
 305 280 l 1,48,49
 303 273 303 273 299 258 c 0,50,-1
 298 257 l 1,51,52
 291 246 291 246 273 246 c 0,53,54
 244 246 244 246 244 269 c 0,55,56
 244 273 244 273 248 286 c 2,57,-1
 280 413 l 2,58,59
 283 425 283 425 285 429.5 c 128,-1,60
 287 434 287 434 293.5 438 c 128,-1,61
 300 442 300 442 310 442 c 0,62,63
 339 442 339 442 339 419 c 0,64,65
 339 415 339 415 337 408 c 0,66,-1
 594 408 l 1,67,68
 596 415 596 415 600 430 c 0,69,-1
 601 431 l 1,70,71
 608 442 608 442 626 442 c 0,72,73
 655 442 655 442 655 419 c 0,74,75
 655 415 655 415 651 402 c 2,76,-1
 619 275 l 2,39,40
EndSplineSet
Validated: 19457
EndChar

StartChar: Iota
Encoding: 921 921 61
Width: 511
VWidth: 1000
Flags: W
HStem: -5 57<40.219 153 305 410.629> 634 56<200.219 300 446 559.747>
LayerCount: 2
Fore
SplineSet
305 54 m 1,0,1
 328 52 328 52 352 52 c 2,2,-1
 373 52 l 2,3,4
 412 52 412 52 412 29 c 0,5,6
 412 -5 412 -5 377 -5 c 0,7,8
 365 -5 365 -5 339 -4 c 128,-1,9
 313 -3 313 -3 300 -3 c 0,10,11
 286 -3 286 -3 258.5 -2.5 c 128,-1,12
 231 -2 231 -2 217 -2 c 0,13,14
 204 -2 204 -2 177 -2.5 c 128,-1,15
 150 -3 150 -3 136 -3 c 0,16,17
 124 -3 124 -3 98 -4 c 128,-1,18
 72 -5 72 -5 60 -5 c 0,19,20
 33 -5 33 -5 33 18 c 0,21,22
 33 34 33 34 40 42 c 128,-1,23
 47 50 47 50 55 51 c 0,24,25
 61 52 61 52 75 52 c 2,26,-1
 96 52 l 2,27,28
 123 52 123 52 138 54 c 0,29,30
 151 56 151 56 153 56 c 0,31,-1
 154 57 l 2,32,33
 156 60 156 60 158 68 c 2,34,-1
 300 632 l 1,35,36
 265 634 265 634 253 634 c 2,37,-1
 232 634 l 2,38,39
 220 634 220 634 214 635 c 0,40,41
 207 636 207 636 200 641 c 0,42,43
 193 647 193 647 193 657 c 0,44,45
 193 672 193 672 199.5 680.5 c 128,-1,46
 206 689 206 689 213 690 c 0,47,48
 218 691 218 691 227 691 c 0,49,50
 239 691 239 691 265.5 690 c 128,-1,51
 292 689 292 689 305 689 c 128,-1,52
 318 689 318 689 346 688.5 c 128,-1,53
 374 688 374 688 388 688 c 128,-1,54
 402 688 402 688 428.5 688.5 c 128,-1,55
 455 689 455 689 468 689 c 0,56,57
 480 689 480 689 506 690 c 128,-1,58
 532 691 532 691 544 691 c 0,59,60
 571 691 571 691 571 668 c 0,61,62
 571 648 571 648 560 640 c 0,63,64
 552 634 552 634 530 634 c 2,65,-1
 509 634 l 2,66,67
 480 634 480 634 466 633 c 0,68,69
 454 632 454 632 451 630 c 0,70,-1
 450 630 l 2,71,72
 448 627 448 627 446 617 c 2,73,-1
 305 54 l 1,0,1
EndSplineSet
Validated: 19457
EndChar

StartChar: Kappa
Encoding: 922 922 62
Width: 971
VWidth: 1000
Flags: W
HStem: -5 57<39.292 152.874 153 154 305 397.812 541.222 616.404 788.225 856.779> 634 54<205.188 300 449 552 747.708 810.499 880.047 1001.3>
LayerCount: 2
Fore
SplineSet
775 69 m 2,0,1
 781 58 781 58 788 55 c 128,-1,2
 795 52 795 52 827 52 c 0,3,4
 864 52 864 52 864 29 c 0,5,6
 864 14 864 14 857 4.5 c 128,-1,7
 850 -5 850 -5 832 -5 c 0,8,9
 823 -5 823 -5 802 -4 c 0,10,11
 782 -3 782 -3 772 -3 c 128,-1,12
 762 -3 762 -3 740 -2.5 c 128,-1,13
 718 -2 718 -2 708 -2 c 0,14,15
 692 -2 692 -2 634 -3.5 c 128,-1,16
 576 -5 576 -5 560 -5 c 0,17,18
 534 -5 534 -5 534 18 c 0,19,20
 534 34 534 34 541 43 c 128,-1,21
 548 52 548 52 570 52 c 0,22,23
 598 52 598 52 617 56 c 1,24,-1
 473 335 l 1,25,-1
 355 254 l 1,26,-1
 305 54 l 1,27,28
 342 52 342 52 360 52 c 0,29,30
 377 52 377 52 384 51 c 0,31,32
 392 50 392 50 398 46 c 0,33,34
 406 41 406 41 406 29 c 0,35,36
 406 14 406 14 399 4 c 0,37,38
 392 -5 392 -5 372 -5 c 0,39,40
 360 -5 360 -5 333.5 -4 c 128,-1,41
 307 -3 307 -3 294 -3 c 0,42,43
 282 -3 282 -3 256 -2.5 c 128,-1,44
 230 -2 230 -2 217 -2 c 128,-1,45
 204 -2 204 -2 179 -2.5 c 128,-1,46
 154 -3 154 -3 141 -3 c 128,-1,47
 128 -3 128 -3 103 -4 c 128,-1,48
 78 -5 78 -5 65 -5 c 0,49,50
 38 -5 38 -5 38 18 c 128,-1,51
 38 41 38 41 53 49 c 0,52,53
 54 49 54 49 55 50 c 2,54,-1
 56 50 l 2,55,56
 63 52 63 52 87 52 c 0,57,58
 126 52 126 52 140 53 c 0,59,60
 149 54 149 54 153 55 c 2,61,-1
 153 56 l 1,62,-1
 154 56 l 2,63,-1
 154 57 l 2,64,65
 156 60 156 60 158 68 c 2,66,-1
 300 632 l 1,67,68
 263 634 263 634 245 634 c 128,-1,69
 227 634 227 634 220 635 c 0,70,71
 211 636 211 636 205 640 c 0,72,73
 198 646 198 646 198 657 c 0,74,75
 198 672 198 672 205 680.5 c 128,-1,76
 212 689 212 689 219 690 c 0,77,78
 224 691 224 691 232 691 c 0,79,80
 245 691 245 691 271.5 690 c 128,-1,81
 298 689 298 689 311 689 c 0,82,83
 323 689 323 689 349 688.5 c 128,-1,84
 375 688 375 688 388 688 c 0,85,86
 400 688 400 688 425 688.5 c 128,-1,87
 450 689 450 689 463 689 c 128,-1,88
 476 689 476 689 501 690 c 128,-1,89
 526 691 526 691 539 691 c 0,90,91
 566 691 566 691 566 668 c 0,92,93
 566 647 566 647 553 638 c 0,94,-1
 552 637 l 0,95,96
 546 634 546 634 513 634 c 0,97,98
 471 634 471 634 449 631 c 1,99,-1
 374 329 l 1,100,-1
 811 630 l 1,101,102
 795 634 795 634 776 634 c 0,103,104
 747 634 747 634 747 657 c 0,105,106
 747 691 747 691 780 691 c 0,107,108
 800 691 800 691 842 689.5 c 128,-1,109
 884 688 884 688 905 688 c 0,110,111
 918 688 918 688 945 689 c 0,112,113
 973 691 973 691 985 691 c 0,114,115
 994 691 994 691 1001 684 c 128,-1,116
 1008 677 1008 677 1008 668 c 0,117,118
 1008 653 1008 653 1001.5 645 c 128,-1,119
 995 637 995 637 987 636 c 0,120,121
 978 634 978 634 969 634 c 0,122,123
 919 632 919 632 876 610 c 0,124,125
 842 593 842 593 595 418 c 1,126,-1
 775 69 l 2,0,1
EndSplineSet
Validated: 19457
EndChar

StartChar: Kambda
Encoding: 923 923 63
Width: 805
VWidth: 1000
Flags: W
HStem: -5 56<58 146.533 207.69 282.779 435.776 536 695 769.781>
LayerCount: 2
Fore
SplineSet
607 711 m 2,0,-1
 609 709 l 0,1,2
 614 703 614 703 617 680 c 2,3,-1
 695 54 l 1,4,5
 717 52 717 52 738 52 c 0,6,7
 750 52 750 52 756 51 c 0,8,9
 763 50 763 50 770 45 c 0,10,11
 777 39 777 39 777 29 c 0,12,13
 777 -5 777 -5 745 -5 c 0,14,15
 730 -5 730 -5 678 -3.5 c 128,-1,16
 626 -2 626 -2 611 -2 c 0,17,18
 594 -2 594 -2 536 -3.5 c 128,-1,19
 478 -5 478 -5 461 -5 c 0,20,21
 435 -5 435 -5 435 18 c 128,-1,22
 435 41 435 41 446 47 c 0,23,24
 456 52 456 52 477 52 c 0,25,26
 514 52 514 52 536 56 c 1,27,-1
 482 498 l 1,28,-1
 207 60 l 1,29,30
 229 52 229 52 259.5 52 c 128,-1,31
 290 52 290 52 290 29 c 0,32,33
 290 14 290 14 283 4.5 c 128,-1,34
 276 -5 276 -5 258 -5 c 0,35,36
 241 -5 241 -5 204 -3 c 0,37,38
 167 -2 167 -2 149 -2 c 0,39,40
 135 -2 135 -2 106 -3 c 0,41,42
 76 -5 76 -5 63 -5 c 0,43,44
 52 -5 52 -5 46 3 c 0,45,46
 40 10 40 10 40 18 c 0,47,48
 40 33 40 33 47 41 c 0,49,50
 52 48 52 48 57 50 c 0,51,-1
 58 51 l 0,52,-1
 59 51 l 0,53,54
 64 52 64 52 73 52 c 0,55,56
 102 52 102 52 119.5 58 c 128,-1,57
 137 64 137 64 143 70 c 0,58,59
 149 75 149 75 157 88 c 2,60,-1
 532 689 l 2,61,62
 543 708 543 708 554 712 c 0,63,64
 561 715 561 715 580 716.5 c 128,-1,65
 599 718 599 718 607 711 c 2,0,-1
EndSplineSet
Validated: 3073
EndChar

StartChar: Mu
Encoding: 924 924 64
Width: 1142
VWidth: 1000
Flags: W
HStem: -5 57<48.219 157.903 224.723 315.779 711.292 824.874 825 826 960 1052.78> 634 57<208.219 303 1104.69 1213.78>
LayerCount: 2
Fore
SplineSet
960 54 m 1,0,1
 997 52 997 52 1015 52 c 0,2,3
 1032 52 1032 52 1039 51 c 0,4,5
 1048 50 1048 50 1054 46 c 0,6,7
 1061 40 1061 40 1061 29 c 0,8,9
 1061 12 1061 12 1053 4 c 1,10,11
 1046 -5 1046 -5 1028 -5 c 0,12,13
 1017 -5 1017 -5 993 -4 c 128,-1,14
 969 -3 969 -3 957 -3 c 0,15,16
 944 -3 944 -3 918.5 -2.5 c 128,-1,17
 893 -2 893 -2 880 -2 c 0,18,19
 868 -2 868 -2 845 -2.5 c 128,-1,20
 822 -3 822 -3 810 -3 c 128,-1,21
 798 -3 798 -3 774 -4 c 0,22,23
 749 -5 749 -5 737 -5 c 0,24,25
 710 -5 710 -5 710 18 c 128,-1,26
 710 41 710 41 725 49 c 0,27,28
 726 49 726 49 727 50 c 2,29,-1
 728 50 l 2,30,31
 735 52 735 52 759 52 c 0,32,33
 798 52 798 52 812 53 c 0,34,35
 821 54 821 54 825 55 c 2,36,-1
 825 56 l 1,37,-1
 826 56 l 2,38,-1
 826 57 l 2,39,40
 828 60 828 60 830 68 c 2,41,-1
 967 616 l 1,42,-1
 548 20 l 2,43,44
 529 -5 529 -5 508 -5 c 0,45,46
 496 -5 496 -5 489 1 c 128,-1,47
 482 7 482 7 480 14 c 0,48,49
 479 19 479 19 476 29 c 2,50,-1
 359 604 l 1,51,-1
 224 60 l 1,52,53
 247 52 247 52 288 52 c 0,54,55
 323 52 323 52 323 29 c 0,56,57
 323 14 323 14 316 4.5 c 128,-1,58
 309 -5 309 -5 291 -5 c 0,59,60
 278 -5 278 -5 234 -3.5 c 128,-1,61
 190 -2 190 -2 177 -2 c 0,62,63
 158 -2 158 -2 121 -3 c 0,64,65
 84 -5 84 -5 66 -5 c 0,66,67
 54 -5 54 -5 47 3 c 0,68,69
 41 10 41 10 41 18 c 0,70,71
 41 34 41 34 48 42 c 128,-1,72
 55 50 55 50 63 51 c 0,73,74
 69 52 69 52 82 52 c 0,75,76
 114 52 114 52 138 58 c 0,77,78
 155 62 155 62 158 64 c 0,79,80
 161 67 161 67 164 80 c 2,81,-1
 303 632 l 1,82,83
 266 634 266 634 248 634 c 128,-1,84
 230 634 230 634 223 635 c 0,85,86
 214 636 214 636 208 640 c 0,87,88
 201 646 201 646 201 657 c 0,89,90
 201 673 201 673 208 681 c 128,-1,91
 215 689 215 689 223 690 c 0,92,93
 229 691 229 691 243 691 c 2,94,-1
 431 691 l 2,95,96
 453 691 453 691 462 686 c 0,97,98
 472 681 472 681 476 659 c 2,99,-1
 581 141 l 1,100,-1
 949 664 l 2,101,102
 961 682 961 682 970 687 c 0,103,104
 980 691 980 691 1004 691 c 2,105,-1
 1182 691 l 2,106,107
 1194 691 1194 691 1200 690 c 0,108,109
 1207 689 1207 689 1214 684 c 0,110,111
 1221 678 1221 678 1221 668 c 0,112,113
 1221 645 1221 645 1209 639 c 0,114,115
 1199 634 1199 634 1168 634 c 0,116,117
 1126 634 1126 634 1104 631 c 1,118,-1
 960 54 l 1,0,1
EndSplineSet
Validated: 19457
EndChar

StartChar: Nu
Encoding: 925 925 65
Width: 950
VWidth: 1000
Flags: W
HStem: -5 57<45.219 154.903 221.723 312.779> 634 57<205.219 300 751.266 849.277 916.158 1025.3>
LayerCount: 2
Fore
SplineSet
763 23 m 2,0,1
 759 5 759 5 754 0 c 0,2,3
 753 -1 753 -1 751 -1 c 0,4,5
 745 -5 745 -5 730 -5 c 0,6,7
 717 -5 717 -5 711 -2 c 128,-1,8
 705 1 705 1 696 15 c 2,9,-1
 353 589 l 1,10,-1
 221 60 l 1,11,12
 244 52 244 52 284 52 c 0,13,14
 320 52 320 52 320 29 c 0,15,16
 320 14 320 14 313 4.5 c 128,-1,17
 306 -5 306 -5 288 -5 c 0,18,19
 276 -5 276 -5 231 -3.5 c 128,-1,20
 186 -2 186 -2 174 -2 c 0,21,22
 155 -2 155 -2 118 -3 c 0,23,24
 81 -5 81 -5 63 -5 c 0,25,26
 53 -5 53 -5 47 0 c 0,27,28
 42 4 42 4 40 7 c 2,29,-1
 40 8 l 1,30,-1
 40 9 l 2,31,32
 40 10 40 10 39 10 c 0,33,34
 38 14 38 14 38 18 c 0,35,36
 38 34 38 34 45 42 c 128,-1,37
 52 50 52 50 60 51 c 0,38,39
 66 52 66 52 79 52 c 0,40,41
 111 52 111 52 135 58 c 0,42,43
 152 62 152 62 155 64 c 0,44,45
 158 67 158 67 161 80 c 2,46,-1
 297 621 l 2,47,48
 299 629 299 629 300 632 c 1,49,50
 291 634 291 634 261 634 c 2,51,-1
 237 634 l 2,52,53
 225 634 225 634 219 635 c 0,54,55
 212 636 212 636 205 641 c 0,56,57
 198 647 198 647 198 657 c 0,58,59
 198 673 198 673 205 681 c 128,-1,60
 212 689 212 689 220 690 c 0,61,62
 226 691 226 691 240 691 c 2,63,-1
 429 691 l 2,64,65
 449 691 449 691 456 688 c 128,-1,66
 463 685 463 685 470 672 c 2,67,-1
 746 211 l 1,68,-1
 850 626 l 1,69,70
 827 634 827 634 786 634 c 0,71,72
 750 634 750 634 750 657 c 0,73,74
 750 691 750 691 782 691 c 0,75,76
 794 691 794 691 839 689.5 c 128,-1,77
 884 688 884 688 896 688 c 0,78,79
 915 688 915 688 952 689 c 0,80,81
 989 691 989 691 1007 691 c 0,82,83
 1032 691 1032 691 1032 668 c 0,84,85
 1032 652 1032 652 1025.5 644 c 128,-1,86
 1019 636 1019 636 1011 635 c 0,87,88
 1005 634 1005 634 992 634 c 0,89,90
 960 634 960 634 935 629 c 0,91,92
 921 626 921 626 916 623 c 0,93,94
 913 620 913 620 910 607 c 2,95,-1
 763 23 l 2,0,1
EndSplineSet
Validated: 19457
EndChar

StartChar: Xi
Encoding: 926 926 66
Width: 841
VWidth: 1000
Flags: W
HStem: -5 120<138.032 694.505> 291 120<316 626> 560 120<245.975 792>
VStem: 89 58<119.109 205.872> 222 56<242.376 290.312> 262 59<411 452.81> 663 57<411.746 459.525> 711 59<126.488 205.81>
LayerCount: 2
Fore
SplineSet
843 505 m 2,0,1
 840 486 840 486 837 483 c 128,-1,2
 834 480 834 480 832 479 c 0,3,4
 826 474 826 474 813 474 c 0,5,6
 784 474 784 474 784 497 c 0,7,8
 784 501 784 501 786 511 c 0,9,10
 791 536 791 536 792 557 c 1,11,12
 766 560 766 560 725 560 c 2,13,-1
 333 560 l 2,14,15
 266 560 266 560 256 555 c 0,16,-1
 255 555 l 0,17,18
 251 551 251 551 243.5 531.5 c 128,-1,19
 236 512 236 512 233 501 c 2,20,-1
 233 500 l 1,21,-1
 229 491 l 2,22,23
 225 482 225 482 218.5 478 c 128,-1,24
 212 474 212 474 202 474 c 0,25,26
 173 474 173 474 173 497 c 2,27,-1
 173 498 l 1,28,-1
 177 514 l 1,29,-1
 221 656 l 2,30,31
 226 671 226 671 231 675 c 0,32,33
 232 676 232 676 236 678 c 128,-1,34
 240 680 240 680 261 680 c 2,35,-1
 833 680 l 2,36,37
 845 680 845 680 852 679.5 c 128,-1,38
 859 679 859 679 865.5 673 c 128,-1,39
 872 667 872 667 872 656 c 0,40,-1
 872 655 l 1,41,-1
 843 505 l 2,0,1
603 115 m 2,42,43
 674 115 674 115 685 120 c 1,44,45
 695 131 695 131 711 185 c 0,46,47
 716 200 716 200 721 206 c 0,48,49
 727 212 727 212 742 212 c 0,50,51
 770 212 770 212 770 189 c 2,52,-1
 770 188 l 2,53,54
 769 181 769 181 747 107 c 2,55,-1
 718 11 l 2,56,57
 714 -1 714 -1 705 -3 c 0,58,59
 698 -5 698 -5 680 -5 c 2,60,-1
 96 -5 l 2,61,62
 84 -5 84 -5 78 -4 c 0,63,64
 70 -3 70 -3 64 2 c 0,65,66
 57 8 57 8 57 19 c 0,67,68
 57 29 57 29 89 185 c 0,69,70
 92 202 92 202 97 206 c 0,71,72
 103 212 103 212 119 212 c 0,73,74
 147 212 147 212 147 189 c 0,75,76
 147 183 147 183 144 167 c 0,77,78
 138 137 138 137 138 126 c 0,79,80
 138 120 138 120 138 119 c 0,81,82
 139 118 139 118 144 118 c 0,83,84
 166 115 166 115 209 115 c 2,85,-1
 603 115 l 2,42,43
262 430 m 2,86,87
 266 447 266 447 272 453 c 0,88,89
 278 460 278 460 293 460 c 0,90,91
 321 460 321 460 321 436 c 0,92,93
 321 428 321 428 316 411 c 1,94,-1
 656 411 l 1,95,96
 662 435 662 435 663 441 c 0,97,-1
 663 442 l 1,98,99
 669 460 669 460 692 460 c 0,100,101
 720 460 720 460 720 436 c 0,102,-1
 720 435 l 0,103,104
 719 419 719 419 679 267 c 0,105,106
 677 261 677 261 675 256 c 128,-1,107
 673 251 673 251 666 246.5 c 128,-1,108
 659 242 659 242 649 242 c 0,109,110
 621 242 621 242 621 266 c 0,111,112
 621 271 621 271 626 291 c 1,113,-1
 285 291 l 1,114,115
 280 270 280 270 278 261 c 0,116,117
 272 242 272 242 250 242 c 0,118,119
 222 242 222 242 222 266 c 0,120,121
 222 275 222 275 224 281 c 2,122,-1
 262 430 l 2,86,87
720 435 m 1,123,-1
 720 435 l 1,123,-1
EndSplineSet
Validated: 19457
EndChar

StartChar: Omicron
Encoding: 927 927 67
Width: 836
VWidth: 1000
Flags: W
HStem: -22 52<270.196 454.271> 658 50<411.379 602.531>
VStem: 48 151<121.765 352.515> 674 146<351.401 560.955>
LayerCount: 2
Fore
SplineSet
788.5 283.5 m 128,-1,1
 757 202 757 202 699.5 133.5 c 128,-1,2
 642 65 642 65 549 21.5 c 128,-1,3
 456 -22 456 -22 345 -22 c 0,4,5
 211 -22 211 -22 129.5 44 c 128,-1,6
 48 110 48 110 48 238 c 0,7,8
 48 300 48 300 67 364.5 c 128,-1,9
 86 429 86 429 126 490.5 c 128,-1,10
 166 552 166 552 221 600.5 c 128,-1,11
 276 649 276 649 355 678.5 c 128,-1,12
 434 708 434 708 524 708 c 0,13,14
 659 708 659 708 739.5 640 c 128,-1,15
 820 572 820 572 820 445 c 0,16,0
 820 365 820 365 788.5 283.5 c 128,-1,1
355 30 m 0,17,18
 485 30 485 30 574 160 c 0,19,20
 618 224 618 224 646 328.5 c 128,-1,21
 674 433 674 433 674 491 c 0,22,23
 674 577 674 577 628 617.5 c 128,-1,24
 582 658 582 658 514 658 c 0,25,26
 393 658 393 658 310 555 c 0,27,28
 257 490 257 490 228 379.5 c 128,-1,29
 199 269 199 269 199 205 c 0,30,31
 199 118 199 118 242 75 c 0,32,33
 286 30 286 30 355 30 c 0,17,18
EndSplineSet
Validated: 19457
EndChar

StartChar: Pi
Encoding: 928 928 68
Width: 982
VWidth: 1000
Flags: W
HStem: -5 55<38.824 152.874 153 154 305 397.812 504.824 618.874 619 620 771 863.812> 628 57<208.253 298 449 765 915 916 916.095 1029.81>
LayerCount: 2
Fore
SplineSet
771 54 m 1,0,1
 808 52 808 52 826 52 c 0,2,3
 843 52 843 52 850 51 c 0,4,5
 858 50 858 50 864 46 c 0,6,7
 872 41 872 41 872 29 c 0,8,9
 872 14 872 14 865 4 c 0,10,11
 859 -5 859 -5 838 -5 c 0,12,13
 826 -5 826 -5 799.5 -4 c 128,-1,14
 773 -3 773 -3 760 -3 c 0,15,16
 748 -3 748 -3 722 -2.5 c 128,-1,17
 696 -2 696 -2 683 -2 c 128,-1,18
 670 -2 670 -2 645 -2.5 c 128,-1,19
 620 -3 620 -3 607 -3 c 128,-1,20
 594 -3 594 -3 569 -4 c 128,-1,21
 544 -5 544 -5 531 -5 c 0,22,23
 504 -5 504 -5 504 18 c 128,-1,24
 504 41 504 41 519 49 c 0,25,26
 520 49 520 49 521 50 c 2,27,-1
 522 50 l 2,28,29
 529 52 529 52 553 52 c 0,30,31
 592 52 592 52 606 53 c 0,32,33
 615 54 615 54 619 55 c 2,34,-1
 619 56 l 1,35,-1
 620 56 l 2,36,-1
 620 57 l 2,37,38
 622 60 622 60 624 68 c 2,39,-1
 765 628 l 1,40,-1
 449 628 l 1,41,-1
 305 54 l 1,42,43
 342 52 342 52 360 52 c 0,44,45
 377 52 377 52 384 51 c 0,46,47
 392 50 392 50 398 46 c 0,48,49
 406 41 406 41 406 29 c 0,50,51
 406 14 406 14 399 4 c 0,52,53
 393 -5 393 -5 372 -5 c 0,54,55
 360 -5 360 -5 333.5 -4 c 128,-1,56
 307 -3 307 -3 294 -3 c 0,57,58
 282 -3 282 -3 256 -2.5 c 128,-1,59
 230 -2 230 -2 217 -2 c 128,-1,60
 204 -2 204 -2 179 -2.5 c 128,-1,61
 154 -3 154 -3 141 -3 c 128,-1,62
 128 -3 128 -3 103 -4 c 128,-1,63
 78 -5 78 -5 65 -5 c 0,64,65
 38 -5 38 -5 38 18 c 128,-1,66
 38 41 38 41 53 49 c 0,67,68
 54 49 54 49 55 50 c 2,69,-1
 56 50 l 2,70,71
 63 52 63 52 87 52 c 0,72,73
 126 52 126 52 140 53 c 0,74,75
 149 54 149 54 153 55 c 2,76,-1
 153 56 l 1,77,-1
 154 56 l 2,78,-1
 154 57 l 2,79,80
 156 60 156 60 158 68 c 2,81,-1
 298 626 l 1,82,83
 261 628 261 628 243 628 c 0,84,85
 226 628 226 628 219 629 c 0,86,87
 211 630 211 630 205 634 c 0,88,89
 197 639 197 639 197 651 c 0,90,91
 197 671 197 671 208 679 c 0,92,93
 216 685 216 685 238 685 c 2,94,-1
 992 685 l 2,95,96
 1031 685 1031 685 1031 662 c 128,-1,97
 1031 639 1031 639 1016 631 c 0,98,99
 1015 631 1015 631 1014 630 c 0,100,-1
 1013 630 l 0,101,102
 1006 628 1006 628 982 628 c 0,103,104
 943 628 943 628 929 627 c 0,105,106
 919 626 919 626 916 625 c 2,107,-1
 916 624 l 1,108,-1
 915 624 l 1,109,-1
 915 623 l 2,110,111
 913 620 913 620 911 612 c 2,112,-1
 771 54 l 1,0,1
916 624 m 1,113,-1
 916 624 l 1,113,-1
1014 630 m 1,114,-1
 1014 630 l 1,114,-1
EndSplineSet
Validated: 19457
EndChar

StartChar: Rho
Encoding: 929 929 69
Width: 723
VWidth: 1000
Flags: W
HStem: -5 53<38.5273 54 55.1924 65 141 152.874 384 398.812> 297 51<372 615.608> 634 57<206.219 300 446.031 676.896>
VStem: 704 150<453.991 608.655>
LayerCount: 2
Fore
SplineSet
305 54 m 1,0,1
 342 52 342 52 360 52 c 0,2,3
 377 52 377 52 384 51 c 0,4,5
 393 50 393 50 399 45 c 0,6,7
 406 39 406 39 406 28 c 0,8,9
 406 -5 406 -5 372 -5 c 0,10,11
 360 -5 360 -5 333.5 -4 c 128,-1,12
 307 -3 307 -3 294 -3 c 0,13,14
 282 -3 282 -3 256 -2.5 c 128,-1,15
 230 -2 230 -2 217 -2 c 128,-1,16
 204 -2 204 -2 179 -2.5 c 128,-1,17
 154 -3 154 -3 141 -3 c 128,-1,18
 128 -3 128 -3 103 -4 c 128,-1,19
 78 -5 78 -5 65 -5 c 0,20,21
 38 -5 38 -5 38 18 c 128,-1,22
 38 41 38 41 53 48 c 0,23,-1
 54 48 l 0,24,25
 55 49 l 0,26,27
 61 52 61 52 87 52 c 0,28,29
 126 52 126 52 140 53 c 0,30,31
 149 54 149 54 153 55 c 2,32,-1
 153 56 l 1,33,-1
 154 56 l 2,34,-1
 154 57 l 2,35,36
 156 60 156 60 158 68 c 2,37,-1
 300 632 l 1,38,39
 263 634 263 634 245 634 c 0,40,41
 228 634 228 634 221 635 c 0,42,43
 213 636 213 636 206 640 c 0,44,45
 198 645 198 645 198 657 c 0,46,47
 198 673 198 673 205 681 c 128,-1,48
 212 689 212 689 220 690 c 0,49,50
 226 691 226 691 240 691 c 2,51,-1
 625 691 l 2,52,53
 728 691 728 691 791 651 c 0,54,55
 854 610 854 610 854 532 c 0,56,57
 854 438 854 438 764 367 c 0,58,59
 675 297 675 297 539 297 c 2,60,-1
 366 297 l 1,61,-1
 305 54 l 1,0,1
441 620 m 2,62,-1
 372 348 l 1,63,-1
 503 348 l 2,64,65
 614 348 614 348 655 401 c 0,66,67
 678 431 678 431 691 485.5 c 128,-1,68
 704 540 704 540 704 560 c 0,69,70
 704 634 704 634 578 634 c 2,71,-1
 474 634 l 2,72,73
 456 634 456 634 448 633 c 0,74,75
 447 633 447 633 446 632 c 0,76,77
 443 629 443 629 441 620 c 2,62,-1
EndSplineSet
Validated: 19457
EndChar

StartChar: Sigma
Encoding: 931 931 70
Width: 885
VWidth: 1000
Flags: W
HStem: -5 75<221 636.936> 634 57<419 778.956>
VStem: 771 60<193.172 258.903> 830 55<440.311 497.842>
LayerCount: 2
Fore
SplineSet
221 70 m 1,0,-1
 468 70 l 2,1,2
 530 70 530 70 570 75 c 128,-1,3
 610 80 610 80 651 98 c 0,4,5
 690 115 690 115 719 149 c 0,6,7
 749 184 749 184 771 239 c 0,8,9
 778 256 778 256 783 259 c 0,10,11
 789 264 789 264 803 264 c 0,12,13
 831 264 831 264 831 241 c 0,14,-1
 831 240 l 0,15,16
 828 225 828 225 747 18 c 0,17,18
 742 4 742 4 736 -0 c 0,19,20
 735 -1 735 -1 733 -2 c 0,21,22
 727 -5 727 -5 706 -5 c 2,23,-1
 103 -5 l 2,24,25
 91 -5 91 -5 85 -4 c 0,26,27
 78 -3 78 -3 71 2 c 0,28,29
 64 8 64 8 64 18 c 0,30,31
 64 31 64 31 81 43 c 2,32,-1
 424 293 l 1,33,-1
 232 637 l 2,34,35
 224 652 224 652 223 656 c 2,36,-1
 223 657 l 1,37,38
 223 677 223 677 235 685 c 0,39,40
 244 691 244 691 265 691 c 2,41,-1
 868 691 l 2,42,43
 892 691 892 691 900 685 c 0,44,45
 902 683 902 683 903 681 c 0,46,47
 906 675 906 675 906 662 c 0,48,49
 906 657 906 657 906 652 c 2,50,-1
 888 475 l 2,51,52
 887 463 887 463 885 457 c 128,-1,53
 883 451 883 451 877 445.5 c 128,-1,54
 871 440 871 440 858 440 c 0,55,56
 830 440 830 440 830 466 c 0,57,58
 830 471 830 471 831 482 c 128,-1,59
 832 493 832 493 832 498 c 0,60,61
 832 581 832 581 788 607 c 0,62,63
 743 634 743 634 629 634 c 2,64,-1
 419 634 l 1,65,-1
 571 361 l 2,66,67
 578 348 578 348 579 344 c 2,68,-1
 579 343 l 2,69,70
 579 341 579 341 579 340 c 0,71,72
 577 331 577 331 561 319 c 2,73,-1
 221 70 l 1,0,-1
EndSplineSet
Validated: 19457
EndChar

StartChar: Tau
Encoding: 932 932 71
Width: 636
VWidth: 1000
Flags: W
HStem: -5 57<49.1965 210 359 503.629> 623 57<170.25 351 503.096 680.585>
VStem: 20 61<435.159 511.501>
LayerCount: 2
Fore
SplineSet
359 54 m 1,0,1
 382 52 382 52 425 52 c 2,2,-1
 466 52 l 2,3,4
 505 52 505 52 505 29 c 0,5,6
 505 -5 505 -5 469 -5 c 0,7,8
 453 -5 453 -5 421 -4 c 128,-1,9
 389 -3 389 -3 373 -3 c 0,10,11
 356 -3 356 -3 322 -2.5 c 128,-1,12
 288 -2 288 -2 271 -2 c 128,-1,13
 254 -2 254 -2 221 -2.5 c 128,-1,14
 188 -3 188 -3 172 -3 c 128,-1,15
 156 -3 156 -3 124 -4 c 128,-1,16
 92 -5 92 -5 77 -5 c 0,17,18
 48 -5 48 -5 48 19 c 0,19,20
 48 34 48 34 55 42 c 128,-1,21
 62 50 62 50 70 51 c 0,22,23
 76 52 76 52 89 52 c 2,24,-1
 131 52 l 2,25,26
 181 52 181 52 210 56 c 1,27,-1
 351 622 l 1,28,29
 333 623 333 623 305 623 c 0,30,31
 200 623 200 623 159 594 c 0,32,33
 119 565 119 565 81 457 c 0,34,35
 75 440 75 440 69 435 c 0,36,37
 63 429 63 429 49 429 c 0,38,39
 20 429 20 429 20 452 c 0,40,41
 20 454 20 454 23 463 c 2,42,-1
 26 472 l 1,43,-1
 90 657 l 2,44,45
 96 673 96 673 104 676 c 0,46,47
 111 680 111 680 131 680 c 2,48,-1
 738 680 l 2,49,50
 751 680 751 680 757 679 c 0,51,52
 764 678 764 678 770.5 672 c 128,-1,53
 777 666 777 666 777 655 c 0,54,-1
 777 654 l 1,55,-1
 749 461 l 2,56,57
 747 444 747 444 741 437 c 0,58,59
 735 429 735 429 719 429 c 0,60,61
 690 429 690 429 690 453 c 0,62,63
 690 454 690 454 691 462 c 0,64,65
 692 469 692 469 692 471 c 0,66,-1
 692 472 l 1,67,68
 699 514 699 514 699 539 c 0,69,70
 699 594 699 594 670 608 c 0,71,72
 640 623 640 623 559 623 c 2,73,-1
 517 623 l 2,74,75
 506 622 506 622 503 621 c 0,76,-1
 502 620 l 2,77,78
 500 617 500 617 498 609 c 2,79,-1
 359 54 l 1,0,1
503 621 m 1,80,-1
 503 621 l 1,80,-1
EndSplineSet
Validated: 19457
EndChar

StartChar: YUpsilon
Encoding: 933 933 72
Width: 674
VWidth: 1000
Flags: W
HStem: -5 57<131 234.935 379 472.781> 634 57<58 133.874 307 383.686 623.125 689.468 755.754 878.768>
LayerCount: 2
Fore
SplineSet
434 272 m 1,0,-1
 379 54 l 1,1,2
 416 52 416 52 434 52 c 0,3,4
 451 52 451 52 458 51 c 0,5,6
 466 50 466 50 473 46 c 0,7,8
 481 41 481 41 481 29 c 0,9,10
 481 14 481 14 474 5.5 c 128,-1,11
 467 -3 467 -3 460 -4 c 0,12,13
 455 -5 455 -5 447 -5 c 0,14,15
 430 -5 430 -5 370.5 -3.5 c 128,-1,16
 311 -2 311 -2 294 -2 c 0,17,18
 282 -2 282 -2 257.5 -2.5 c 128,-1,19
 233 -3 233 -3 221 -3 c 0,20,21
 208 -3 208 -3 183 -4 c 128,-1,22
 158 -5 158 -5 145 -5 c 0,23,24
 118 -5 118 -5 118 18 c 0,25,26
 118 37 118 37 130 47 c 0,27,28
 131 48 l 0,29,30
 138 52 138 52 169 52 c 0,31,32
 202 52 202 52 221 54 c 0,33,34
 233 55 233 55 235 57 c 0,35,36
 237 60 237 60 239 69 c 2,37,-1
 291 274 l 1,38,-1
 139 621 l 2,39,40
 136 628 136 628 135 629 c 2,41,-1
 134 630 l 2,42,43
 130 632 130 632 123 633 c 0,44,45
 114 634 114 634 85 634 c 0,46,47
 68 634 68 634 61 635 c 0,48,49
 53 636 53 636 47 640 c 0,50,51
 39 645 39 645 39 657 c 0,52,53
 39 672 39 672 46 680 c 0,54,55
 51 687 51 687 56 689 c 0,56,57
 58 690 l 0,58,59
 63 691 63 691 72 691 c 0,60,61
 83 691 83 691 108 690 c 0,62,63
 132 689 132 689 144 689 c 0,64,65
 155 689 155 689 178 688.5 c 128,-1,66
 201 688 201 688 213 688 c 0,67,68
 230 688 230 688 290.5 689.5 c 128,-1,69
 351 691 351 691 368 691 c 0,70,71
 395 691 395 691 395 668 c 0,72,73
 395 646 395 646 384 640 c 0,74,75
 374 634 374 634 356 634 c 0,76,77
 332 634 332 634 307 631 c 1,78,-1
 430 351 l 1,79,-1
 690 630 l 1,80,81
 673 634 673 634 654 634 c 0,82,83
 622 634 622 634 622 657 c 0,84,85
 622 691 622 691 654 691 c 0,86,87
 672 691 672 691 709 689 c 0,88,89
 746 688 746 688 765 688 c 0,90,91
 780 688 780 688 811 689 c 0,92,93
 843 691 843 691 857 691 c 0,94,95
 868 691 868 691 874 683 c 0,96,97
 880 676 880 676 880 668 c 0,98,99
 880 653 880 653 873.5 644.5 c 128,-1,100
 867 636 867 636 860 635 c 0,101,102
 855 634 855 634 846 634 c 0,103,104
 801 633 801 633 778 624 c 0,105,106
 756 615 756 615 738 597 c 2,107,-1
 434 272 l 1,0,-1
EndSplineSet
Validated: 19457
EndChar

StartChar: Phi
Encoding: 934 934 73
Width: 766
VWidth: 1000
Flags: W
HStem: -5 52<97.4375 239.984 380.629 499.778> 147 47<207.539 264 416 490.188> 491 48<270.088 350 501 558.5> 634 55<264.219 385 525.324 660.781>
VStem: 23 147<239.233 385.99> 596 147<300.824 443.693>
LayerCount: 2
Fore
SplineSet
380 55 m 1,0,1
 400 52 400 52 437 52 c 2,2,-1
 470 52 l 2,3,4
 508 52 508 52 508 29 c 0,5,6
 508 14 508 14 500 4 c 0,7,8
 493 -5 493 -5 473 -5 c 0,9,10
 459 -5 459 -5 430.5 -4 c 128,-1,11
 402 -3 402 -3 387 -3 c 128,-1,12
 372 -3 372 -3 342 -2.5 c 128,-1,13
 312 -2 312 -2 297 -2 c 128,-1,14
 282 -2 282 -2 252 -2.5 c 128,-1,15
 222 -3 222 -3 207 -3 c 0,16,17
 194 -3 194 -3 166 -4 c 128,-1,18
 138 -5 138 -5 125 -5 c 0,19,20
 97 -5 97 -5 97 18 c 0,21,22
 97 36 97 36 107 47 c 2,23,-1
 108 47 l 1,24,25
 116 52 116 52 139 52 c 2,26,-1
 171 52 l 2,27,28
 230 52 230 52 239 56 c 0,29,-1
 240 56 l 1,30,31
 242 59 242 59 245 69 c 2,32,-1
 264 147 l 1,33,34
 158 156 158 156 92 197 c 0,35,36
 23 239 23 239 23 312 c 0,37,38
 23 340 23 340 38 372 c 128,-1,39
 53 404 53 404 87.5 439.5 c 128,-1,40
 122 475 122 475 195 503 c 0,41,42
 266 530 266 530 362 539 c 1,43,-1
 385 632 l 1,44,45
 361 634 361 634 328 634 c 2,46,-1
 296 634 l 2,47,48
 284 634 284 634 278 635 c 0,49,50
 271 636 271 636 264 641 c 0,51,52
 257 647 257 647 257 657 c 0,53,54
 257 691 257 691 292 691 c 0,55,56
 306 691 306 691 334.5 690 c 128,-1,57
 363 689 363 689 378 689 c 128,-1,58
 393 689 393 689 423 688.5 c 128,-1,59
 453 688 453 688 468 688 c 0,60,61
 482 688 482 688 510 688.5 c 128,-1,62
 538 689 538 689 552 689 c 128,-1,63
 566 689 566 689 596 690 c 128,-1,64
 626 691 626 691 640 691 c 0,65,66
 668 691 668 691 668 668 c 0,67,68
 668 652 668 652 661 644 c 128,-1,69
 654 636 654 636 646 635 c 0,70,71
 640 634 640 634 627 634 c 2,72,-1
 594 634 l 2,73,74
 535 634 535 634 525 630 c 1,75,76
 523 627 523 627 521 617 c 2,77,-1
 501 538 l 1,78,79
 624 527 624 527 683 483 c 0,80,81
 743 436 743 436 743 374 c 0,82,83
 743 338 743 338 721 300 c 0,84,85
 700 263 700 263 659 231 c 128,-1,86
 618 199 618 199 551 176 c 0,87,88
 485 154 485 154 403 147 c 1,89,-1
 380 55 l 1,0,1
275 194 m 1,90,-1
 350 491 l 1,91,92
 266 481 266 481 222 434 c 0,93,94
 199 409 199 409 184.5 365 c 128,-1,95
 170 321 170 321 170 289 c 0,96,97
 170 274 170 274 173 262.5 c 128,-1,98
 176 251 176 251 185 236 c 128,-1,99
 194 221 194 221 217.5 210 c 128,-1,100
 241 199 241 199 275 194 c 1,90,-1
490 492 m 1,101,-1
 416 195 l 1,102,103
 505 209 505 209 546 255 c 0,104,105
 569 281 569 281 582.5 325 c 128,-1,106
 596 369 596 369 596 398 c 0,107,108
 596 478 596 478 490 492 c 1,101,-1
EndSplineSet
Validated: 19457
EndChar

StartChar: Chi
Encoding: 935 935 74
Width: 947
VWidth: 1000
Flags: W
HStem: -5 57<40.7035 180.516 250.72 321.717 496.34 580 751.095 838.781> 634 57<216.188 315.25 475 558.805 662.16 739.973 813.469 956.627>
LayerCount: 2
Fore
SplineSet
744 66 m 2,0,1
 748 57 748 57 751 55.5 c 128,-1,2
 754 54 754 54 763 53 c 0,3,4
 776 52 776 52 802 52 c 0,5,6
 817 52 817 52 824 51 c 0,7,8
 832 50 832 50 839 46 c 0,9,10
 847 41 847 41 847 29 c 0,11,12
 847 -5 847 -5 814 -5 c 0,13,14
 802 -5 802 -5 779 -4 c 128,-1,15
 756 -3 756 -3 744 -3 c 128,-1,16
 732 -3 732 -3 709 -2.5 c 128,-1,17
 686 -2 686 -2 675 -2 c 0,18,19
 658 -2 658 -2 598.5 -3.5 c 128,-1,20
 539 -5 539 -5 522 -5 c 0,21,22
 495 -5 495 -5 495 18 c 0,23,24
 495 33 495 33 502 41 c 128,-1,25
 509 49 509 49 514 51 c 0,26,-1
 515 51 l 0,27,28
 520 52 520 52 529 52 c 0,29,30
 536 52 536 52 544 52.5 c 128,-1,31
 552 53 552 53 559 54 c 128,-1,32
 566 55 566 55 572 56 c 0,33,34
 576 57 576 57 580 57 c 1,35,-1
 473 280 l 1,36,-1
 250 59 l 1,37,38
 273 52 273 52 300 52 c 0,39,40
 331 52 331 52 331 29 c 0,41,42
 331 12 331 12 322 3.5 c 128,-1,43
 313 -5 313 -5 298 -5 c 0,44,45
 284 -5 284 -5 233 -3.5 c 128,-1,46
 182 -2 182 -2 168 -2 c 0,47,48
 156 -2 156 -2 113.5 -3.5 c 128,-1,49
 71 -5 71 -5 59 -5 c 128,-1,50
 47 -5 47 -5 40 2 c 0,51,52
 34 9 34 9 34 18 c 0,53,54
 34 34 34 34 40.5 42 c 128,-1,55
 47 50 47 50 55 51 c 0,56,57
 61 52 61 52 74 52 c 0,58,59
 114 52 114 52 141.5 59.5 c 128,-1,60
 169 67 169 67 177 72 c 0,61,62
 186 78 186 78 199 90 c 2,63,-1
 447 335 l 1,64,-1
 311 621 l 2,65,66
 306 629 306 629 304 631 c 0,67,-1
 303 631 l 0,68,69
 299 633 299 633 294 633 c 0,70,71
 282 634 282 634 255 634 c 0,72,73
 238 634 238 634 231 635 c 0,74,75
 222 636 222 636 216 641 c 0,76,77
 209 647 209 647 209 658 c 0,78,79
 209 673 209 673 216 681 c 128,-1,80
 223 689 223 689 229 690 c 0,81,82
 234 691 234 691 242 691 c 0,83,84
 254 691 254 691 277 690 c 128,-1,85
 300 689 300 689 312 689 c 128,-1,86
 324 689 324 689 347 688.5 c 128,-1,87
 370 688 370 688 381 688 c 0,88,89
 398 688 398 688 457 689.5 c 128,-1,90
 516 691 516 691 533 691 c 0,91,92
 560 691 560 691 560 667 c 0,93,94
 560 634 560 634 526 634 c 0,95,96
 501 634 501 634 475 629 c 1,97,-1
 561 449 l 1,98,-1
 741 626 l 1,99,100
 708 633 708 633 691 634 c 0,101,102
 661 635 661 635 661 658 c 0,103,104
 661 691 661 691 694 691 c 0,105,106
 708 691 708 691 759 689.5 c 128,-1,107
 810 688 810 688 824 688 c 0,108,109
 842 688 842 688 879 689 c 0,110,111
 916 691 916 691 933 691 c 0,112,113
 958 691 958 691 958 668 c 0,114,115
 958 664 958 664 957 658 c 0,116,117
 956 651 956 651 950 643 c 0,118,119
 944 634 944 634 932 634 c 0,120,121
 860 633 860 633 836 624 c 128,-1,122
 812 615 812 615 780 584 c 1,123,-1
 718 521 l 1,124,-1
 588 394 l 1,125,-1
 744 66 l 2,0,1
EndSplineSet
Validated: 19457
EndChar

StartChar: Psi
Encoding: 936 936 75
Width: 714
VWidth: 1000
Flags: W
HStem: -5 57<86.219 219.676 361 481.812> 149 50<217.436 246> 506 46<22.0095 54.8743 738.82 789.781> 634 57<239.371 366 506.324 641.781>
VStem: 47 133<246.49 469.216> 64 138<342.034 503.984>
LayerCount: 2
Fore
SplineSet
366 632 m 1,0,1
 342 634 342 634 309 634 c 2,2,-1
 277 634 l 2,3,4
 238 634 238 634 238 657 c 0,5,6
 238 691 238 691 273 691 c 0,7,8
 287 691 287 691 315.5 690 c 128,-1,9
 344 689 344 689 359 689 c 128,-1,10
 374 689 374 689 404 688.5 c 128,-1,11
 434 688 434 688 449 688 c 128,-1,12
 464 688 464 688 494 688.5 c 128,-1,13
 524 689 524 689 539 689 c 0,14,15
 552 689 552 689 580 690 c 128,-1,16
 608 691 608 691 621 691 c 0,17,18
 649 691 649 691 649 668 c 0,19,20
 649 652 649 652 642 644 c 128,-1,21
 635 636 635 636 627 635 c 0,22,23
 621 634 621 634 607 634 c 2,24,-1
 575 634 l 2,25,26
 516 634 516 634 506 630 c 1,27,28
 504 627 504 627 502 617 c 2,29,-1
 399 203 l 1,30,31
 521 240 521 240 567 415 c 0,32,33
 580 464 580 464 596 493 c 0,34,35
 613 524 613 524 633 535 c 0,36,37
 652 546 652 546 664 549 c 128,-1,38
 676 552 676 552 693 552 c 2,39,-1
 758 552 l 2,40,41
 770 552 770 552 776 551 c 0,42,43
 783 550 783 550 790 545 c 0,44,45
 797 539 797 539 797 529 c 0,46,47
 797 510 797 510 773 506 c 0,48,49
 730 499 730 499 705 411 c 0,50,51
 690 357 690 357 669 319 c 0,52,53
 647 278 647 278 611 240 c 0,54,55
 574 202 574 202 515 178 c 0,56,57
 458 155 458 155 384 147 c 1,58,-1
 361 55 l 1,59,60
 381 52 381 52 418 52 c 2,61,-1
 450 52 l 2,62,63
 462 52 462 52 468 51 c 0,64,65
 476 50 476 50 482 45 c 0,66,67
 489 39 489 39 489 28 c 0,68,69
 489 -5 489 -5 454 -5 c 0,70,71
 440 -5 440 -5 411.5 -4 c 128,-1,72
 383 -3 383 -3 368 -3 c 128,-1,73
 353 -3 353 -3 323 -2.5 c 128,-1,74
 293 -2 293 -2 278 -2 c 128,-1,75
 263 -2 263 -2 233 -2.5 c 128,-1,76
 203 -3 203 -3 188 -3 c 0,77,78
 174 -3 174 -3 147 -4 c 128,-1,79
 120 -5 120 -5 106 -5 c 0,80,81
 79 -5 79 -5 79 18 c 0,82,83
 79 34 79 34 86 42 c 128,-1,84
 93 50 93 50 101 51 c 0,85,86
 107 52 107 52 120 52 c 2,87,-1
 152 52 l 2,88,89
 210 52 210 52 220 56 c 0,90,-1
 221 57 l 2,91,92
 223 59 223 59 226 69 c 2,93,-1
 246 149 l 1,94,95
 151 162 151 162 102 205 c 0,96,97
 47 254 47 254 47 341 c 0,98,99
 47 374 47 374 57 418 c 0,100,101
 64 448 64 448 64 470 c 0,102,103
 64 487 64 487 60 496 c 0,104,105
 58 502 58 502 56 503 c 0,106,-1
 55 504 l 0,107,108
 51 505 51 505 44 506 c 0,109,110
 22 509 22 509 22 529 c 0,111,112
 22 552 22 552 61 552 c 2,113,-1
 126 552 l 2,114,115
 139 552 139 552 148 550 c 128,-1,116
 157 548 157 548 172 542 c 0,117,118
 187 535 187 535 195 516 c 0,119,120
 202 498 202 498 202 470 c 128,-1,121
 202 442 202 442 192 399 c 0,122,123
 180 349 180 349 180 316 c 0,124,125
 180 223 180 223 258 199 c 1,126,-1
 366 632 l 1,0,1
EndSplineSet
Validated: 19457
EndChar

StartChar: Omega
Encoding: 937 937 76
Width: 878
VWidth: 1000
Flags: W
HStem: -5 110<147.61 277 610 729.904> 662 46<475.025 684.278>
VStem: 89 58<108.195 194.779> 167 151<305.608 490.431> 739 152<427.601 590.579> 771 58<139.016 197.358>
LayerCount: 2
Fore
SplineSet
672 105 m 2,0,1
 700 105 700 105 714 107 c 0,2,3
 727 109 727 109 730 111 c 128,-1,4
 733 113 733 113 737 118 c 0,5,6
 747 132 747 132 771 182 c 0,7,8
 776 193 776 193 781.5 197.5 c 128,-1,9
 787 202 787 202 800 202 c 0,10,11
 829 202 829 202 829 179 c 1,12,-1
 829 178 l 2,13,14
 828 172 828 172 812 141 c 2,15,-1
 752 14 l 2,16,17
 746 2 746 2 741 -1 c 0,18,19
 740 -2 740 -2 739 -3 c 0,20,21
 733 -5 733 -5 713 -5 c 2,22,-1
 558 -5 l 2,23,24
 546 -5 546 -5 540 -4 c 0,25,26
 532 -3 532 -3 526 2 c 0,27,28
 519 8 519 8 519 19 c 0,29,30
 519 46 519 46 561 132 c 1,31,32
 586 179 586 179 633 259 c 0,33,34
 661 305 661 305 682 345 c 0,35,36
 699 378 699 378 719 434 c 128,-1,37
 739 490 739 490 739 535 c 0,38,39
 739 573 739 573 725 599 c 128,-1,40
 711 625 711 625 688 638 c 0,41,42
 664 651 664 651 639 656.5 c 128,-1,43
 614 662 614 662 586 662 c 0,44,45
 466 662 466 662 392 579 c 0,46,47
 318 495 318 495 318 349 c 0,48,49
 318 330 318 330 320 300 c 2,50,-1
 325 246 l 1,51,-1
 327 224 l 1,52,53
 333 174 333 174 333 126 c 0,54,55
 333 82 333 82 327 46 c 0,56,57
 321 11 321 11 314 3 c 128,-1,58
 307 -5 307 -5 282 -5 c 2,59,-1
 127 -5 l 2,60,61
 105 -5 105 -5 97 -0 c 0,62,63
 96 1 96 1 94 3 c 0,64,65
 93 4 93 4 92 5 c 0,66,-1
 92 6 l 0,67,68
 88 15 88 15 88 42 c 2,69,-1
 89 101 l 2,70,71
 89 150 89 150 90 163 c 0,72,73
 91 179 91 179 92 184 c 0,74,75
 93 191 93 191 99.5 196.5 c 128,-1,76
 106 202 106 202 119 202 c 0,77,78
 134 202 134 202 141 195 c 128,-1,79
 148 188 148 188 148 172 c 0,80,81
 148 168 148 168 147 162 c 0,82,83
 147 156 147 156 147 152 c 0,84,85
 147 114 147 114 151 108 c 1,86,87
 160 105 160 105 200 105 c 2,88,-1
 277 105 l 1,89,90
 268 150 268 150 224 232 c 0,91,92
 167 337 167 337 167 406 c 0,93,94
 167 461 167 461 194 514 c 0,95,96
 221 566 221 566 271 610 c 128,-1,97
 321 654 321 654 403 681 c 128,-1,98
 485 708 485 708 586 708 c 0,99,100
 742 708 742 708 816 650 c 0,101,102
 891 591 891 591 891 503 c 0,103,104
 891 461 891 461 876.5 422 c 128,-1,105
 862 383 862 383 828 340 c 0,106,107
 794 298 794 298 769.5 272 c 128,-1,108
 745 246 745 246 692 197 c 1,109,110
 637 142 637 142 610 105 c 1,111,-1
 672 105 l 2,0,1
EndSplineSet
Validated: 19457
EndChar

StartChar: alpha
Encoding: 945 945 77
Width: 760
VWidth: 1000
Flags: W
HStem: -13 46<191.383 367.131 596.907 649.693> 411 46<281.86 418.059>
VStem: 41 125<74.7607 240.026> 465 124<96.2812 188.268 243 334.431> 653 56<39.1758 77.7727>
LayerCount: 2
Fore
SplineSet
611 33 m 0,0,1
 614 33 614 33 620.5 34.5 c 128,-1,2
 627 36 627 36 638 43 c 128,-1,3
 649 50 649 50 653 62 c 0,4,5
 656 70 656 70 659 73 c 0,6,7
 661 75 661 75 665 76.5 c 128,-1,8
 669 78 669 78 681 78 c 0,9,10
 709 78 709 78 709 59 c 0,11,12
 709 37 709 37 679.5 12 c 128,-1,13
 650 -13 650 -13 604 -13 c 0,14,15
 559 -13 559 -13 528.5 9.5 c 128,-1,16
 498 32 498 32 482 63 c 1,17,18
 373 -13 373 -13 253 -13 c 0,19,20
 156 -13 156 -13 98.5 34 c 128,-1,21
 41 81 41 81 41 165 c 0,22,23
 41 216 41 216 62.5 266.5 c 128,-1,24
 84 317 84 317 122.5 360 c 128,-1,25
 161 403 161 403 223.5 430 c 128,-1,26
 286 457 286 457 360 457 c 0,27,28
 464 457 464 457 528 393 c 0,29,30
 554 367 554 367 567 334 c 128,-1,31
 580 301 580 301 582 283.5 c 128,-1,32
 584 266 584 266 584 243 c 1,33,34
 624 303 624 303 646 382 c 0,35,36
 650 396 650 396 654 401 c 0,37,38
 655 402 655 402 656 403 c 128,-1,39
 657 404 657 404 658 405 c 0,40,41
 663 407 663 407 676 407 c 0,42,43
 705 407 705 407 705 388 c 0,44,45
 705 380 705 380 697 351.5 c 128,-1,46
 689 323 689 323 659 265.5 c 128,-1,47
 629 208 629 208 589 161 c 1,48,49
 589 33 589 33 611 33 c 0,0,1
258 33 m 0,50,51
 318 33 318 33 384 62 c 0,52,53
 406 72 406 72 438 91 c 0,54,55
 466 109 466 109 467 115 c 0,56,57
 467 125 467 125 465 164 c 0,58,59
 463 192 463 192 462 208 c 0,60,61
 461 248 461 248 456 282 c 0,62,63
 452 312 452 312 442 346 c 0,64,65
 432 379 432 379 411 395 c 128,-1,66
 390 411 390 411 359 411 c 0,67,68
 319 411 319 411 280 388 c 128,-1,69
 241 365 241 365 218 321 c 0,70,71
 197 280 197 280 182 215 c 0,72,73
 166 149 166 149 166 121 c 0,74,75
 166 76 166 76 191 55 c 0,76,77
 216 33 216 33 258 33 c 0,50,51
EndSplineSet
Validated: 19457
EndChar

StartChar: beta
Encoding: 946 946 78
Width: 659
VWidth: 1000
Flags: W
HStem: -199 21G<25.5 45.5> -17 46<234.285 408.495> 343 46<367.212 460.318> 403 46<368.329 460.351> 661 46<395.274 540.934>
VStem: 522 125<195.507 359.908> 548 112<499.112 647.445>
LayerCount: 2
Fore
SplineSet
167 447 m 2,0,1
 194 557 194 557 291.5 632 c 128,-1,2
 389 707 389 707 499 707 c 0,3,4
 573 707 573 707 616.5 670.5 c 128,-1,5
 660 634 660 634 660 569 c 0,6,7
 660 520 660 520 637 475 c 128,-1,8
 614 430 614 430 586 405 c 1,9,10
 647 356 647 356 647 272 c 0,11,12
 647 203 647 203 611.5 138 c 128,-1,13
 576 73 576 73 500.5 28 c 128,-1,14
 425 -17 425 -17 329 -17 c 0,15,16
 193 -17 193 -17 132 75 c 1,17,-1
 104 -38 l 2,18,19
 76 -151 76 -151 71 -172 c 0,20,21
 69 -184 69 -184 66 -189 c 128,-1,22
 63 -194 63 -194 57 -196.5 c 128,-1,23
 51 -199 51 -199 40 -199 c 0,24,25
 11 -199 11 -199 11 -180 c 0,26,27
 11 -171 11 -171 15 -163 c 1,28,-1
 167 447 l 2,0,1
461 399 m 1,29,30
 446 403 446 403 424 403 c 0,31,32
 379 403 379 403 369 395 c 0,33,34
 368 394 368 394 367 393 c 0,35,36
 372 389 372 389 410 389 c 0,37,38
 440 389 440 389 461 399 c 1,29,30
504 442 m 1,39,40
 519 470 519 470 533.5 527.5 c 128,-1,41
 548 585 548 585 548 609 c 0,42,43
 548 661 548 661 494 661 c 0,44,45
 409 661 409 661 330 598.5 c 128,-1,46
 251 536 251 536 227 454 c 1,47,-1
 219 422 l 1,48,-1
 198 342 l 1,49,-1
 168 220 l 1,50,51
 161 186 161 186 161 170 c 0,52,53
 161 106 161 106 209 67.5 c 128,-1,54
 257 29 257 29 327 29 c 0,55,56
 415 29 415 29 466 109 c 1,57,58
 487 144 487 144 504.5 214.5 c 128,-1,59
 522 285 522 285 522 313.5 c 128,-1,60
 522 342 522 342 514 361 c 1,61,62
 469 343 469 343 409 343 c 0,63,64
 390 343 390 343 378 344 c 128,-1,65
 366 345 366 345 348 348.5 c 128,-1,66
 330 352 330 352 319.5 362.5 c 128,-1,67
 309 373 309 373 309 390 c 0,68,69
 309 449 309 449 427 449 c 0,70,71
 472 449 472 449 504 442 c 1,39,40
EndSplineSet
Validated: 3073
EndChar

StartChar: gamma
Encoding: 947 947 79
Width: 590
VWidth: 1000
Flags: W
HStem: 337 120<143.038 319.809> 429 20G<586.5 608>
VStem: 7 57<251.366 300.321> 334 75<-205.323 -85.8594> 571 51<405.082 444>
LayerCount: 2
Fore
SplineSet
509.5 329.5 m 128,-1,1
 539 388 539 388 554 414 c 128,-1,2
 569 440 569 440 571 443 c 2,3,-1
 571 444 l 1,4,5
 572 444 l 2,6,7
 579 449 579 449 594 449 c 0,8,9
 622 449 622 449 622 430 c 0,10,11
 622 429 622 429 622 428 c 0,12,13
 621 422 621 422 604 394 c 0,14,15
 516 235 516 235 459 75 c 0,16,17
 457 69 457 69 455 55 c 0,18,19
 442 -63 442 -63 409 -164 c 0,20,21
 392 -216 392 -216 363 -216 c 128,-1,22
 334 -216 334 -216 334 -176 c 0,23,24
 334 -123 334 -123 392 52 c 0,25,26
 401 78 401 78 401 118 c 0,27,28
 401 229 401 229 367 278 c 0,29,30
 326 337 326 337 216 337 c 0,31,32
 89 337 89 337 64 266 c 0,33,34
 59 251 59 251 35 251 c 0,35,36
 7 251 7 251 7 271 c 0,37,38
 7 289 7 289 23.5 319 c 128,-1,39
 40 349 40 349 67.5 380 c 128,-1,40
 95 411 95 411 141 434 c 128,-1,41
 187 457 187 457 237 457 c 0,42,43
 282 457 282 457 319.5 435 c 128,-1,44
 357 413 357 413 379.5 383 c 128,-1,45
 402 353 402 353 419.5 313.5 c 128,-1,46
 437 274 437 274 443 249.5 c 128,-1,47
 449 225 449 225 451 208 c 1,48,0
 480 271 480 271 509.5 329.5 c 128,-1,1
EndSplineSet
Validated: 19457
EndChar

StartChar: delta
Encoding: 948 948 80
Width: 522
VWidth: 1000
Flags: W
HStem: -17 46<183.227 296.17> 598 108<408.062 504.038> 666 57<273.37 375.047>
VStem: 41 114<70.2342 244.796> 219 53<594.314 662.357> 357 124<170.623 342.286>
LayerCount: 2
Fore
SplineSet
219 608 m 0,0,1
 219 661 219 661 255 692 c 128,-1,2
 291 723 291 723 337 723 c 0,3,4
 366 723 366 723 444 706 c 0,5,6
 491 696 491 696 504.5 688.5 c 128,-1,7
 518 681 518 681 518 657 c 0,8,9
 518 635 518 635 501 616.5 c 128,-1,10
 484 598 484 598 460 598 c 0,11,12
 454 598 454 598 447 600 c 128,-1,13
 440 602 440 602 433.5 605.5 c 128,-1,14
 427 609 427 609 420 612.5 c 128,-1,15
 413 616 413 616 407 620.5 c 128,-1,16
 401 625 401 625 396.5 628 c 128,-1,17
 392 631 392 631 388 634 c 0,18,-1
 385 637 l 0,19,20
 345 666 345 666 314 666 c 0,21,22
 298 666 298 666 288 659.5 c 128,-1,23
 278 653 278 653 275 647.5 c 128,-1,24
 272 642 272 642 272 639 c 0,25,26
 272 628 272 628 283.5 609.5 c 128,-1,27
 295 591 295 591 309 577 c 2,28,-1
 349 536 l 2,29,30
 376 509 376 509 402 484 c 0,31,32
 441 448 441 448 461 409 c 128,-1,33
 481 370 481 370 481 308 c 0,34,35
 481 181 481 181 414.5 82 c 128,-1,36
 348 -17 348 -17 249 -17 c 0,37,38
 160 -17 160 -17 100.5 28.5 c 128,-1,39
 41 74 41 74 41 162 c 0,40,41
 41 199 41 199 54 239.5 c 128,-1,42
 67 280 67 280 93.5 323 c 128,-1,43
 120 366 120 366 168 399 c 128,-1,44
 216 432 216 432 276 447 c 1,45,46
 219 551 219 551 219 608 c 0,0,1
304 401 m 1,47,48
 237 378 237 378 200 309 c 0,49,50
 187 283 187 283 171 221.5 c 128,-1,51
 155 160 155 160 155 125 c 0,52,53
 155 76 155 76 178 55 c 0,54,55
 206 29 206 29 252 29 c 0,56,57
 287 29 287 29 313 75 c 128,-1,58
 339 121 339 121 348 166.5 c 128,-1,59
 357 212 357 212 357 242 c 0,60,61
 357 317 357 317 304 401 c 1,47,48
EndSplineSet
Validated: 19457
EndChar

StartChar: varepsilon
Encoding: 949 949 81
Width: 528
VWidth: 1000
Flags: W
HStem: -22 86<107.21 348.216> 183 46<194.41 295.33> 243 46<195.802 296.944> 342 104<389.866 470.397> 380 86<199.709 401.994>
VStem: 30 59<87.4859 180.929> 74 57<265.224 339.732>
LayerCount: 2
Fore
SplineSet
414 114 m 2,0,1
 418 116 418 116 422 116 c 0,2,3
 431 116 431 116 437.5 109.5 c 128,-1,4
 444 103 444 103 444 94 c 0,5,6
 444 87 444 87 437 74 c 128,-1,7
 430 61 430 61 413.5 44.5 c 128,-1,8
 397 28 397 28 373 13 c 128,-1,9
 349 -2 349 -2 310 -12 c 128,-1,10
 271 -22 271 -22 224 -22 c 0,11,12
 127 -22 127 -22 78.5 16.5 c 128,-1,13
 30 55 30 55 30 113 c 0,14,15
 30 182 30 182 93 237 c 1,16,17
 74 261 74 261 74 294 c 0,18,19
 74 357 74 357 143 411.5 c 128,-1,20
 212 466 212 466 333 466 c 0,21,22
 388 466 388 466 432 446 c 0,23,24
 461 433 461 433 474.5 420 c 128,-1,25
 488 407 488 407 488 392 c 0,26,27
 488 373 488 373 472 357.5 c 128,-1,28
 456 342 456 342 438 342 c 0,29,30
 426 342 426 342 413 351 c 0,31,32
 370 380 370 380 314 380 c 0,33,34
 227 380 227 380 179 356.5 c 128,-1,35
 131 333 131 333 131 294 c 0,36,37
 131 278 131 278 140 265 c 1,38,39
 193 289 193 289 265 289 c 0,40,41
 282 289 282 289 293 288 c 128,-1,42
 304 287 304 287 320.5 284 c 128,-1,43
 337 281 337 281 346 270 c 128,-1,44
 355 259 355 259 355 243 c 0,45,46
 355 183 355 183 247 183 c 0,47,48
 176 183 176 183 134 204 c 1,49,50
 112 187 112 187 100.5 165 c 128,-1,51
 89 143 89 143 89 126 c 0,52,53
 89 104 89 104 101.5 91 c 128,-1,54
 114 78 114 78 142 72.5 c 128,-1,55
 170 67 170 67 189 65.5 c 128,-1,56
 208 64 208 64 241 64 c 0,57,58
 316 64 316 64 354.5 72.5 c 128,-1,59
 393 81 393 81 408 110 c 2,60,-1
 408 112 l 1,61,-1
 414 114 l 2,0,1
194 235 m 1,62,63
 217 229 217 229 248 229 c 0,64,65
 270 229 270 229 280.5 231 c 128,-1,66
 291 233 291 233 294 235 c 0,67,68
 294 236 l 0,69,70
 294 237 294 237 297 240 c 1,71,72
 283 243 283 243 261 243 c 0,73,74
 224 243 224 243 194 235 c 1,62,63
EndSplineSet
Validated: 19457
EndChar

StartChar: zeta
Encoding: 950 950 82
Width: 508
VWidth: 1000
Flags: W
HStem: -207 46<250.014 358.169> 517 46<383.759 466.419> 577 46<383.72 466.586>
VStem: 43 102<126.633 292.154> 314 56<615.06 681.843> 361 96<-143.689 -55.5>
LayerCount: 2
Fore
SplineSet
345 46 m 2,0,1
 367 40 367 40 381 34 c 128,-1,2
 395 28 395 28 415.5 15 c 128,-1,3
 436 2 436 2 446.5 -19.5 c 128,-1,4
 457 -41 457 -41 457 -70 c 0,5,6
 457 -119 457 -119 420.5 -163 c 128,-1,7
 384 -207 384 -207 330 -207 c 0,8,9
 292 -207 292 -207 249 -189.5 c 128,-1,10
 206 -172 206 -172 206 -154 c 0,11,12
 206 -146 206 -146 213 -138.5 c 128,-1,13
 220 -131 220 -131 230 -131 c 0,14,15
 238 -131 238 -131 247 -137 c 0,16,17
 290 -161 290 -161 330 -161 c 0,18,19
 343 -161 343 -161 350.5 -152 c 128,-1,20
 358 -143 358 -143 359.5 -136.5 c 128,-1,21
 361 -130 361 -130 361 -125 c 0,22,23
 361 -102 361 -102 345.5 -92 c 128,-1,24
 330 -82 330 -82 289 -70 c 0,25,26
 193 -42 193 -42 157 -26.5 c 128,-1,27
 121 -11 121 -11 93 20 c 0,28,29
 43 76 43 76 43 163 c 0,30,31
 43 290 43 290 125 409.5 c 128,-1,32
 207 529 207 529 317 591 c 1,33,34
 314 606 314 606 314 627 c 0,35,36
 314 708 314 708 352 708 c 0,37,38
 355 708 355 708 359.5 707 c 128,-1,39
 364 706 364 706 371 699.5 c 128,-1,40
 378 693 378 693 378 682 c 0,41,42
 378 677 378 677 376 669 c 0,43,44
 370 644 370 644 370 620 c 0,45,46
 370 617 370 617 370 615 c 1,47,48
 397 623 397 623 430 623 c 0,49,50
 450 623 450 623 464 622 c 128,-1,51
 478 621 478 621 494 616.5 c 128,-1,52
 510 612 510 612 518.5 602 c 128,-1,53
 527 592 527 592 527 576 c 0,54,55
 527 517 527 517 414 517 c 0,56,57
 362 517 362 517 338 545 c 1,58,59
 266 499 266 499 205.5 403 c 128,-1,60
 145 307 145 307 145 212 c 0,61,62
 145 175 145 175 155.5 148.5 c 128,-1,63
 166 122 166 122 186.5 107 c 128,-1,64
 207 92 207 92 221 86 c 128,-1,65
 235 80 235 80 257 73 c 2,66,-1
 345 46 l 2,0,1
383 569 m 1,67,68
 392 563 392 563 414 563 c 0,69,70
 438 563 438 563 450 565 c 0,71,72
 460 567 460 567 467 573 c 1,73,74
 452 577 452 577 427 577 c 0,75,76
 401 577 401 577 383 569 c 1,67,68
EndSplineSet
Validated: 19457
EndChar

StartChar: eta
Encoding: 951 951 83
Width: 600
VWidth: 1000
Flags: W
HStem: -13 21G<130 151.5> 411 46<117.846 169.343 360.261 476.188>
VStem: 27 53<277.297 357> 90 109<2.46973 79.1875> 482 117<245.641 406.25>
LayerCount: 2
Fore
SplineSet
483 -151 m 2,0,1
 467 -216 467 -216 411 -216 c 0,2,3
 391 -216 391 -216 375 -204 c 0,4,5
 359 -191 359 -191 359 -167 c 0,6,7
 359 -156 359 -156 363 -140 c 2,8,-1
 474 301 l 1,9,10
 482 336 482 336 482 357 c 0,11,12
 482 411 482 411 437 411 c 0,13,14
 385 411 385 411 337 373 c 0,15,16
 316 357 316 357 297 330 c 0,17,18
 279 305 279 305 277 298 c 0,19,-1
 277 297 l 1,20,-1
 276 295 l 2,21,22
 269 270 l 2,23,-1
 255 213 l 2,24,25
 253 204 253 204 249.5 192 c 128,-1,26
 246 180 246 180 246 179 c 0,27,28
 221 77 221 77 218 67 c 0,29,30
 214 51 214 51 210 41 c 128,-1,31
 206 31 206 31 199 17 c 0,32,33
 191 2 191 2 176 -5 c 0,34,35
 161 -13 161 -13 142 -13 c 0,36,37
 118 -13 118 -13 104 2 c 128,-1,38
 90 17 90 17 90 36 c 0,39,40
 90 40 90 40 98 77 c 1,41,-1
 134 217 l 2,42,43
 139 239 139 239 156 307 c 0,44,45
 170 362 170 362 170 379 c 0,46,47
 170 411 170 411 152 411 c 0,48,49
 113 411 113 411 89 315 c 0,50,51
 83 289 83 289 81 285 c 0,52,53
 80 284 80 284 80 283 c 0,54,55
 74 277 74 277 56 277 c 0,56,57
 27 277 27 277 27 296 c 0,58,59
 27 301 27 301 31 316 c 128,-1,60
 35 331 35 331 45 355 c 0,61,62
 54 378 54 378 66 398 c 0,63,64
 101 457 101 457 157 457 c 0,65,66
 201 457 201 457 237 436 c 0,67,68
 270 417 270 417 282 385 c 1,69,70
 353 457 353 457 445 457 c 0,71,72
 510 457 510 457 554 430 c 0,73,74
 599 402 599 402 599 336 c 0,75,76
 599 308 599 308 591 279 c 2,77,-1
 483 -151 l 2,0,1
EndSplineSet
Validated: 19457
EndChar

StartChar: theta
Encoding: 952 952 84
Width: 561
VWidth: 1000
Flags: W
HStem: -13 46<175.939 267.575> 318 58<204 389> 661 46<327.21 419.6>
VStem: 41 117<83.0521 276.695> 435 117<416.333 610.603>
CounterMasks: 1 e0
LayerCount: 2
Fore
SplineSet
525 317 m 128,-1,1
 498 216 498 216 440 130 c 0,2,3
 390 56 390 56 329 21.5 c 128,-1,4
 268 -13 268 -13 212 -13 c 0,5,6
 138 -13 138 -13 89.5 42 c 128,-1,7
 41 97 41 97 41 203 c 0,8,9
 41 268 41 268 64 358.5 c 128,-1,10
 87 449 87 449 124 516 c 0,11,12
 177 613 177 613 246 660 c 128,-1,13
 315 707 315 707 382 707 c 0,14,15
 409 707 409 707 435.5 697.5 c 128,-1,16
 462 688 462 688 490 666 c 128,-1,17
 518 644 518 644 535 598.5 c 128,-1,18
 552 553 552 553 552 490 c 0,19,0
 552 418 552 418 525 317 c 128,-1,1
204 376 m 1,20,-1
 403 376 l 1,21,22
 435 499 435 499 435 563 c 0,23,24
 435 661 435 661 380 661 c 128,-1,25
 325 661 325 661 272 570 c 0,26,27
 236 506 236 506 204 376 c 1,20,-1
389 318 m 1,28,-1
 190 318 l 1,29,30
 158 192 158 192 158 130 c 0,31,32
 158 91 158 91 170 65 c 0,33,34
 184 33 184 33 214 33 c 0,35,36
 226 33 226 33 238.5 37 c 128,-1,37
 251 41 251 41 271.5 58.5 c 128,-1,38
 292 76 292 76 311 105.5 c 128,-1,39
 330 135 330 135 351 190.5 c 128,-1,40
 372 246 372 246 389 318 c 1,28,-1
EndSplineSet
Validated: 19457
EndChar

StartChar: iota
Encoding: 953 953 85
Width: 412
VWidth: 1000
Flags: W
HStem: -13 46<159 245.461>
VStem: 41 112<33.1753 127.19> 134 123<367.034 436.205> 326 57<105.95 166.664>
LayerCount: 2
Fore
SplineSet
377 124.5 m 128,-1,1
 371 109 371 109 353 83 c 0,2,3
 334 56 334 56 306 36 c 0,4,5
 239 -13 239 -13 162 -13 c 0,6,7
 110 -13 110 -13 76 13 c 0,8,9
 41 40 41 40 41 82 c 0,10,11
 41 101 41 101 56 138 c 0,12,13
 70 174 70 174 71 178 c 2,14,-1
 76 195 l 2,15,16
 78 200 78 200 78 202 c 0,17,18
 78 203 78 203 79 203 c 0,19,20
 79 204 79 204 81 211 c 0,21,22
 84 221 84 221 86 226 c 0,23,24
 98 268 98 268 104 285 c 1,25,-1
 113 320 l 2,26,27
 122 356 122 356 126 367 c 0,28,-1
 127 367 l 2,29,30
 128 368 128 368 130 382 c 0,31,32
 132 395 132 395 134 401 c 0,33,34
 157 457 157 457 205 457 c 0,35,36
 229 457 229 457 243 442 c 128,-1,37
 257 427 257 427 257 408 c 0,38,39
 257 401 257 401 246 359 c 128,-1,40
 235 317 235 317 214 244.5 c 128,-1,41
 193 172 193 172 169 111 c 1,42,43
 153 67 153 67 153 49 c 0,44,45
 153 41 153 41 156 37 c 0,46,47
 157 35 157 35 158 34 c 0,48,49
 159 33 l 0,50,51
 162 33 162 33 167 33 c 0,52,53
 189 33 189 33 218 42 c 0,54,55
 246 51 246 51 279.5 79.5 c 128,-1,56
 313 108 313 108 326 150 c 0,57,58
 331 167 331 167 354 167 c 0,59,60
 383 167 383 167 383 148 c 0,61,0
 383 140 383 140 377 124.5 c 128,-1,1
EndSplineSet
Validated: 19457
EndChar

StartChar: kappa
Encoding: 954 954 86
Width: 667
VWidth: 1000
Flags: W
HStem: -13 46<486.573 541.11> 322 127<466.986 557.433>
VStem: 45 118<2.46973 114.219> 364 117<34.0944 130.201> 368 124<118.031 183.626>
LayerCount: 2
Fore
SplineSet
99 259 m 1,0,-1
 134 400 l 2,1,2
 143 431 143 431 164.5 444 c 128,-1,3
 186 457 186 457 205 457 c 0,4,5
 229 457 229 457 243 442 c 128,-1,6
 257 427 257 427 257 408 c 0,7,8
 257 399 257 399 241 335 c 2,9,-1
 237 318 l 1,10,-1
 227 278 l 1,11,12
 269 300 269 300 338 356 c 0,13,14
 381 390 381 390 397 401.5 c 128,-1,15
 413 413 413 413 452 431 c 128,-1,16
 491 449 491 449 524 449 c 0,17,18
 547 449 547 449 560.5 438.5 c 128,-1,19
 574 428 574 428 577.5 417.5 c 128,-1,20
 581 407 581 407 581 397 c 0,21,22
 581 370 581 370 559 346 c 128,-1,23
 537 322 537 322 505 322 c 0,24,25
 482 322 482 322 466.5 336 c 128,-1,26
 451 350 451 350 451 374 c 0,27,28
 451 378 451 378 452 383 c 1,29,30
 414 363 414 363 356 316 c 0,31,32
 314 282 314 282 278 258 c 1,33,34
 371 249 371 249 407 238 c 0,35,36
 492 212 492 212 492 143 c 0,37,38
 492 130 492 130 487 109 c 0,39,40
 481 85 481 85 481 68 c 128,-1,41
 481 51 481 51 485 44 c 128,-1,42
 489 37 489 37 491 35 c 0,43,-1
 494 34 l 0,44,45
 496 33 496 33 502 33 c 0,46,47
 550 33 550 33 580 143 c 0,48,49
 584 156 584 156 588 161 c 0,50,51
 589 162 589 162 592 164.5 c 128,-1,52
 595 167 595 167 610 167 c 0,53,54
 639 167 639 167 639 148 c 0,55,56
 639 141 639 141 631 118 c 128,-1,57
 623 95 623 95 608 65 c 128,-1,58
 593 35 593 35 563 11 c 128,-1,59
 533 -13 533 -13 497 -13 c 0,60,61
 443 -13 443 -13 403.5 17 c 128,-1,62
 364 47 364 47 364 95 c 0,63,64
 364 112 364 112 367 118 c 0,65,66
 368 119 368 119 368 120 c 0,67,68
 368 121 l 0,69,70
 371 133 371 133 371 142 c 0,71,72
 371 207 371 207 210 212 c 1,73,-1
 172 63 l 2,74,75
 168 44 168 44 163 30.5 c 128,-1,76
 158 17 158 17 140.5 2 c 128,-1,77
 123 -13 123 -13 97 -13 c 0,78,79
 73 -13 73 -13 59 2 c 128,-1,80
 45 17 45 17 45 36 c 0,81,82
 45 45 45 45 55 83 c 2,83,-1
 99 259 l 1,0,-1
EndSplineSet
Validated: 19457
EndChar

StartChar: lambda
Encoding: 955 955 87
Width: 670
VWidth: 1000
Flags: W
HStem: -13 21G<84.5 102 538 622.5> 653 46<166.031 223.09>
LayerCount: 2
Fore
SplineSet
620 63 m 2,0,1
 635 30 635 30 643 22 c 2,2,-1
 643 21 l 1,3,4
 649 12 649 12 649 7 c 2,5,-1
 649 6 l 2,6,7
 649 2 649 2 648 -1 c 0,8,9
 646 -9 646 -9 638.5 -11 c 128,-1,10
 631 -13 631 -13 614 -13 c 2,11,-1
 564 -13 l 2,12,13
 512 -13 512 -13 497 18 c 2,14,-1
 496 18 l 1,15,-1
 496 19 l 2,16,17
 495 23 495 23 489 36 c 128,-1,18
 483 49 483 49 481 53 c 2,19,-1
 388 262 l 1,20,21
 364 239 364 239 303.5 173.5 c 128,-1,22
 243 108 243 108 230 94 c 0,23,24
 181 45 181 45 175 37 c 0,25,26
 157 17 157 17 148 8.5 c 128,-1,27
 139 -0 139 -0 124 -8.5 c 128,-1,28
 109 -17 109 -17 95 -17 c 0,29,30
 74 -17 74 -17 58 -1.5 c 128,-1,31
 42 14 42 14 42 36 c 0,32,33
 42 67 42 67 76 93 c 1,34,-1
 362 323 l 1,35,36
 233 615 233 615 225 628 c 0,37,38
 210 650 210 650 186 653 c 0,39,40
 182 653 182 653 179 654.5 c 128,-1,41
 176 656 176 656 171 661 c 128,-1,42
 166 666 166 666 166 675 c 0,43,44
 166 692 166 692 177.5 695.5 c 128,-1,45
 189 699 189 699 211 699 c 0,46,47
 255 699 255 699 285 694.5 c 128,-1,48
 315 690 315 690 330 680 c 128,-1,49
 345 670 345 670 351 662.5 c 128,-1,50
 357 655 357 655 364 640 c 2,51,-1
 620 63 l 2,0,1
EndSplineSet
Validated: 19457
EndChar

StartChar: mu
Encoding: 956 956 88
Width: 707
VWidth: 1000
Flags: W
HStem: -13 46<244.702 367.883 536.772 588.154> 429 20G<552 574>
VStem: 35 116<-201.962 -106.812>
LayerCount: 2
Fore
SplineSet
240 175 m 1,0,1
 230 131 230 131 230 107 c 0,2,3
 230 33 230 33 299 33 c 0,4,5
 344 33 344 33 385 68 c 0,6,7
 418 96 418 96 422 115 c 2,8,-1
 491 392 l 2,9,10
 498 422 498 422 520 435.5 c 128,-1,11
 542 449 542 449 562 449 c 0,12,13
 586 449 586 449 600 434 c 128,-1,14
 614 419 614 419 614 400 c 0,15,16
 614 389 614 389 598 329 c 0,17,18
 584 277 584 277 576 239 c 1,19,-1
 550 137 l 2,20,21
 536 82 536 82 536 65 c 0,22,23
 536 33 536 33 554 33 c 0,24,25
 593 33 593 33 617 129 c 0,26,27
 623 155 623 155 625 159 c 0,28,29
 626 160 626 160 626 161 c 0,30,31
 632 167 632 167 650 167 c 0,32,33
 679 167 679 167 679 148 c 0,34,35
 679 143 679 143 675 128 c 128,-1,36
 671 113 671 113 661.5 89.5 c 128,-1,37
 652 66 652 66 640 46 c 0,38,39
 605 -13 605 -13 549 -13 c 0,40,41
 514 -13 514 -13 480.5 1.5 c 128,-1,42
 447 16 447 16 431 44 c 1,43,44
 365 -13 365 -13 292 -13 c 0,45,46
 237 -13 237 -13 197 1 c 1,47,48
 162 -154 162 -154 151 -174 c 0,49,50
 130 -216 130 -216 87 -216 c 0,51,52
 67 -216 67 -216 51 -203.5 c 128,-1,53
 35 -191 35 -191 35 -167 c 0,54,55
 35 -156 35 -156 39 -140 c 2,56,-1
 172 391 l 2,57,58
 188 457 188 457 245 457 c 0,59,60
 269 457 269 457 283 442 c 128,-1,61
 297 427 297 427 297 408 c 0,62,63
 297 407 l 0,64,65
 296 402 296 402 280 331 c 1,66,-1
 240 175 l 1,0,1
EndSplineSet
Validated: 19457
EndChar

StartChar: nu
Encoding: 957 957 89
Width: 576
VWidth: 1000
Flags: W
HStem: -5 21G<54 197> 392 56<65.125 131.376>
LayerCount: 2
Fore
SplineSet
172 62 m 1,0,1
 270 97 270 97 364 188 c 1,2,3
 448 274 448 274 485 400 c 0,4,5
 494 432 494 432 516 444.5 c 128,-1,6
 538 457 538 457 556 457 c 0,7,8
 580 457 580 457 594 442.5 c 128,-1,9
 608 428 608 428 608 408 c 0,10,11
 608 394 608 394 598.5 362.5 c 128,-1,12
 589 331 589 331 550.5 269 c 128,-1,13
 512 207 512 207 451 156 c 0,14,15
 297 27 297 27 97 -5 c 2,16,-1
 96 -5 l 1,17,-1
 68 -5 l 2,18,19
 40 -5 40 -5 40 18 c 2,20,-1
 40 19 l 1,21,-1
 132 390 l 1,22,23
 112 392 112 392 96 392 c 0,24,25
 64 392 64 392 64 415 c 0,26,27
 64 430 64 430 71 438.5 c 128,-1,28
 78 447 78 447 84.5 448 c 128,-1,29
 91 449 91 449 102 450 c 2,30,-1
 227 456 l 2,31,32
 230 456 230 456 233 456 c 0,33,34
 264 456 264 456 264 434 c 2,35,-1
 264 433 l 1,36,-1
 172 62 l 1,0,1
EndSplineSet
Validated: 19457
EndChar

StartChar: xi
Encoding: 958 958 90
Width: 508
VWidth: 1000
Flags: W
HStem: -207 46<233.413 353.348> -191 60<197.031 270.746> 246 46<270.717 368.375> 306 46<270.462 368.216> 517 46<350.437 435.869> 577 46<350.47 437>
VStem: 19 94<44 176.114> 96 133<340.651 472.02> 282 55<620.312 681.843> 354 100<-150.906 -67.5>
LayerCount: 2
Fore
SplineSet
329 352 m 0,0,1
 429 352 429 352 429 305 c 0,2,3
 429 246 429 246 311 246 c 0,4,5
 251 246 251 246 201 263 c 0,6,7
 196 265 l 0,8,9
 184 265 184 265 149 221 c 0,10,11
 113 177 113 177 113 140 c 0,12,13
 113 124 113 124 121 112 c 128,-1,14
 129 100 129 100 145 90 c 0,15,16
 162 80 162 80 173 75.5 c 128,-1,17
 184 71 184 71 203 65 c 2,18,-1
 269 43 l 2,19,20
 280 39 280 39 337 19 c 0,21,22
 394 0 394 0 401 -3 c 0,23,24
 421 -12 421 -12 437 -32 c 0,25,26
 454 -52 454 -52 454 -83 c 0,27,28
 454 -126 454 -126 420 -166 c 0,29,30
 386 -207 386 -207 329 -207 c 0,31,32
 288 -207 288 -207 240 -191 c 0,33,34
 190 -174 190 -174 190 -154 c 0,35,36
 190 -146 190 -146 197 -138.5 c 128,-1,37
 204 -131 204 -131 215 -131 c 0,38,39
 220 -131 220 -131 230 -137 c 0,40,41
 276 -161 276 -161 328 -161 c 0,42,43
 339 -161 339 -161 345 -155 c 0,44,45
 352 -148 352 -148 353 -144 c 0,46,47
 354 -139 354 -139 354 -136 c 0,48,49
 354 -125 354 -125 344 -119 c 0,50,51
 332 -112 332 -112 269 -93 c 1,52,-1
 154 -54 l 1,53,54
 19 -6 19 -6 19 94 c 0,55,56
 19 135 19 135 50 194 c 0,57,58
 80 250 80 250 146 296 c 1,59,60
 127 312 127 312 112 337 c 0,61,62
 96 366 96 366 96 400 c 0,63,64
 96 463 96 463 146 522 c 0,65,66
 195 580 195 580 283 607 c 1,67,68
 282 614 282 614 282 626 c 0,69,70
 282 708 282 708 320 708 c 0,71,72
 323 708 323 708 327 707 c 0,73,74
 332 706 332 706 339 700 c 128,-1,75
 346 694 346 694 346 682 c 0,76,77
 346 677 346 677 344 669 c 2,78,-1
 342 662 l 2,79,80
 341 655 341 655 339 641 c 0,81,82
 337 631 337 631 337 620 c 1,83,84
 363 623 363 623 395 623 c 0,85,86
 416 623 416 623 429 622 c 128,-1,87
 442 621 442 621 459 617 c 0,88,89
 478 613 478 613 487 603 c 128,-1,90
 496 593 496 593 496 576 c 0,91,92
 496 517 496 517 383 517 c 0,93,94
 331 517 331 517 307 545 c 1,95,96
 273 519 273 519 252 474 c 0,97,98
 229 427 229 427 229 385 c 0,99,100
 229 361 229 361 236 340 c 1,101,102
 281 352 281 352 329 352 c 0,0,1
350 571 m 1,103,104
 360 563 360 563 383 563 c 0,105,106
 427 563 427 563 437 572 c 1,107,108
 420 577 420 577 394 577 c 128,-1,109
 368 577 368 577 350 571 c 1,103,104
270 300 m 1,110,111
 286 292 286 292 314 292 c 0,112,113
 360 292 360 292 369 301 c 1,114,115
 352 306 352 306 325 306 c 0,116,117
 294 306 294 306 270 300 c 1,110,111
EndSplineSet
Validated: 3073
EndChar

StartChar: omicron
Encoding: 959 959 91
Width: 584
VWidth: 1000
Flags: W
HStem: -13 46<189.841 334.038> 411 46<280.962 424.768>
VStem: 41 125<75.1631 239.177> 449 125<204.823 369.012>
LayerCount: 2
Fore
SplineSet
553 178.5 m 128,-1,1
 532 128 532 128 493.5 85 c 128,-1,2
 455 42 455 42 392.5 14.5 c 128,-1,3
 330 -13 330 -13 254 -13 c 0,4,5
 154 -13 154 -13 97.5 34.5 c 128,-1,6
 41 82 41 82 41 165 c 0,7,8
 41 215 41 215 62 265.5 c 128,-1,9
 83 316 83 316 121.5 359 c 128,-1,10
 160 402 160 402 222.5 429.5 c 128,-1,11
 285 457 285 457 361 457 c 0,12,13
 461 457 461 457 517.5 409.5 c 128,-1,14
 574 362 574 362 574 279 c 0,15,0
 574 229 574 229 553 178.5 c 128,-1,1
256.5 33 m 128,-1,17
 294 33 294 33 331.5 53.5 c 128,-1,18
 369 74 369 74 394 117 c 0,19,20
 414 153 414 153 431.5 223.5 c 128,-1,21
 449 294 449 294 449 323 c 0,22,23
 449 371 449 371 422.5 391 c 128,-1,24
 396 411 396 411 358.5 411 c 128,-1,25
 321 411 321 411 283.5 390.5 c 128,-1,26
 246 370 246 370 221 327 c 0,27,28
 201 291 201 291 183.5 220.5 c 128,-1,29
 166 150 166 150 166 121 c 0,30,31
 166 72 166 72 192.5 52.5 c 128,-1,16
 219 33 219 33 256.5 33 c 128,-1,17
EndSplineSet
Validated: 19457
EndChar

StartChar: pi
Encoding: 960 960 92
Width: 682
VWidth: 1000
Flags: W
HStem: -13 21G<161 184 439 470.5> 343 106<138.863 255 316 418 475.472 651.495>
VStem: 119 122<5.57031 76.1941> 386 87<105.5 299.483>
LayerCount: 2
Fore
SplineSet
241 48 m 2,0,1
 235 22 235 22 218 5 c 1,2,3
 196 -13 196 -13 172 -13 c 0,4,5
 150 -13 150 -13 134.5 1 c 128,-1,6
 119 15 119 15 119 37 c 0,7,8
 119 52 119 52 139 88 c 0,9,10
 224 248 224 248 255 343 c 1,11,-1
 202 343 l 2,12,13
 120 343 120 343 83 298 c 0,14,15
 76 290 76 290 71 287 c 128,-1,16
 66 284 66 284 54 284 c 0,17,18
 26 284 26 284 26 303 c 0,19,20
 26 304 26 304 26 306 c 0,21,22
 28 316 28 316 52.5 346.5 c 128,-1,23
 77 377 77 377 102 400 c 0,24,25
 156 449 156 449 222 449 c 2,26,-1
 615 449 l 2,27,28
 673 449 673 449 673 405 c 0,29,30
 673 381 673 381 652 359 c 0,31,32
 636 343 636 343 598 343 c 2,33,-1
 478 343 l 1,34,35
 473 306 473 306 473 274 c 0,36,37
 473 171 473 171 518 92 c 0,38,39
 531 70 531 70 531 56 c 0,40,41
 531 30 531 30 507.5 8 c 128,-1,42
 484 -14 484 -14 457 -14 c 0,43,44
 421 -14 421 -14 403.5 31 c 128,-1,45
 386 76 386 76 386 135 c 0,46,47
 386 207 386 207 418 343 c 1,48,-1
 316 343 l 1,49,-1
 241 48 l 2,0,1
EndSplineSet
Validated: 19457
EndChar

StartChar: rho
Encoding: 961 961 93
Width: 611
VWidth: 1000
Flags: W
HStem: -13 46<239.985 372.156> 411 46<341.601 462.983>
VStem: 478 124<213.043 376.691>
LayerCount: 2
Fore
SplineSet
132 230 m 2,0,1
 156 330 156 330 233 393.5 c 128,-1,2
 310 457 310 457 412 457 c 0,3,4
 499 457 499 457 550.5 412 c 128,-1,5
 602 367 602 367 602 285 c 0,6,7
 602 234 602 234 581.5 182 c 128,-1,8
 561 130 561 130 525 86.5 c 128,-1,9
 489 43 489 43 431.5 15 c 128,-1,10
 374 -13 374 -13 306 -13 c 0,11,12
 243 -13 243 -13 202 22 c 1,13,14
 155 -165 155 -165 152 -173 c 0,15,16
 133 -216 133 -216 87 -216 c 0,17,18
 67 -216 67 -216 51 -203.5 c 128,-1,19
 35 -191 35 -191 35 -167 c 0,20,21
 35 -156 35 -156 39 -140 c 2,22,-1
 132 230 l 2,0,1
260 254 m 1,23,-1
 231 136 l 1,24,25
 221 97 221 97 218 85 c 0,26,-1
 218 84 l 2,27,28
 223 76 l 0,29,30
 228 68 228 68 238 57 c 0,31,32
 247 47 247 47 265 40 c 128,-1,33
 283 33 283 33 305 33 c 0,34,35
 340 33 340 33 374 56 c 0,36,37
 409 80 409 80 429 129 c 0,38,39
 442 160 442 160 461 233 c 0,40,41
 478 302 478 302 478 335 c 0,42,43
 478 411 478 411 410 411 c 0,44,45
 359 411 359 411 324 373 c 1,46,47
 283 335 283 335 260 254 c 1,23,-1
EndSplineSet
Validated: 3073
EndChar

StartChar: sigmafinal
Encoding: 962 962 94
Width: 423
VWidth: 1000
Flags: W
HStem: -110 46<204.214 296.178> -98.5 46.5<196.704 269.344> 411 46<230.781 410.138>
VStem: 30 95<209.968 301.104> 297 101<-49.6685 45>
LayerCount: 2
Fore
SplineSet
360.5 -69 m 128,-1,1
 323 -110 323 -110 271 -110 c 0,2,3
 263 -110 263 -110 247 -108.5 c 128,-1,4
 231 -107 231 -107 210.5 -98.5 c 128,-1,5
 190 -90 190 -90 190 -76 c 0,6,7
 190 -67 190 -67 196.5 -60 c 128,-1,8
 203 -53 203 -53 214 -52 c 0,9,10
 221 -52 221 -52 227 -55 c 0,11,12
 249 -64 249 -64 270 -64 c 0,13,14
 282 -64 282 -64 288.5 -56 c 128,-1,15
 295 -48 295 -48 296 -43 c 128,-1,16
 297 -38 297 -38 297 -34 c 0,17,18
 297 -14 297 -14 279 -4 c 128,-1,19
 261 6 261 6 206 30 c 0,20,21
 106 76 106 76 82 99 c 0,22,23
 30 147 30 147 30 214 c 0,24,25
 30 309 30 309 122.5 383 c 128,-1,26
 215 457 215 457 346 457 c 0,27,28
 467 457 467 457 467 413 c 0,29,30
 467 401 467 401 457.5 390.5 c 128,-1,31
 448 380 448 380 434 380 c 0,32,33
 425 380 425 380 410 389 c 0,34,35
 369 411 369 411 335 411 c 0,36,37
 255 411 255 411 190 367 c 128,-1,38
 125 323 125 323 125 264 c 0,39,40
 125 227 125 227 156 202 c 0,41,42
 171 190 171 190 257 150 c 128,-1,43
 343 110 343 110 356 100 c 0,44,45
 398 69 398 69 398 21 c 0,46,0
 398 -28 398 -28 360.5 -69 c 128,-1,1
EndSplineSet
Validated: 19457
EndChar

StartChar: sigma
Encoding: 963 963 95
Width: 685
VWidth: 1000
Flags: W
HStem: -13 46<169.655 308.407> 343 106<232.479 388.975 512 654.495>
VStem: 37 113<64.3679 228.947> 406 118<166.597 328.11>
LayerCount: 2
Fore
SplineSet
618 449 m 2,0,1
 676 449 676 449 676 405 c 0,2,3
 676 381 676 381 655 359 c 0,4,5
 639 343 639 343 601 343 c 2,6,-1
 512 343 l 1,7,8
 524 311 524 311 524 272 c 0,9,10
 524 157 524 157 443.5 72 c 128,-1,11
 363 -13 363 -13 230 -13 c 0,12,13
 144 -13 144 -13 90.5 29 c 128,-1,14
 37 71 37 71 37 151 c 0,15,16
 37 185 37 185 48 223 c 128,-1,17
 59 261 59 261 83.5 301.5 c 128,-1,18
 108 342 108 342 142 374.5 c 128,-1,19
 176 407 176 407 227.5 428 c 128,-1,20
 279 449 279 449 339 449 c 2,21,-1
 618 449 l 2,0,1
232 33 m 0,22,23
 309 33 309 33 355 102 c 0,24,25
 377 135 377 135 391.5 193 c 128,-1,26
 406 251 406 251 406 278 c 0,27,28
 406 309 406 309 389.5 326 c 128,-1,29
 373 343 373 343 319 343 c 0,30,31
 231 343 231 343 194 281 c 0,32,33
 178 254 178 254 164 198.5 c 128,-1,34
 150 143 150 143 150 114 c 0,35,36
 150 33 150 33 232 33 c 0,22,23
EndSplineSet
Validated: 19457
EndChar

StartChar: tau
Encoding: 964 964 96
Width: 520
VWidth: 1000
Flags: W
HStem: -17 21G<223 237.5> 343 106<138.863 285 353 586.433>
LayerCount: 2
Fore
SplineSet
307 53 m 2,0,1
 304 29 304 29 293 13 c 128,-1,2
 282 -3 282 -3 268 -8.5 c 128,-1,3
 254 -14 254 -14 247.5 -15.5 c 128,-1,4
 241 -17 241 -17 234 -17 c 0,5,6
 212 -17 212 -17 197 -3.5 c 128,-1,7
 182 10 182 10 182 32 c 0,8,9
 182 43 182 43 212 129 c 1,10,11
 226 175 226 175 251 244 c 1,12,-1
 285 343 l 1,13,-1
 202 343 l 2,14,15
 120 343 120 343 83 298 c 0,16,17
 76 290 76 290 71 287 c 128,-1,18
 66 284 66 284 54 284 c 0,19,20
 26 284 26 284 26 303 c 0,21,22
 26 304 26 304 26 306 c 0,23,24
 28 316 28 316 52.5 346.5 c 128,-1,25
 77 377 77 377 102 400 c 0,26,27
 156 449 156 449 222 449 c 2,28,-1
 551 449 l 2,29,30
 609 449 609 449 609 405 c 0,31,32
 609 379 609 379 587 359 c 0,33,34
 569 343 569 343 534 343 c 2,35,-1
 353 343 l 1,36,-1
 307 53 l 2,0,1
EndSplineSet
Validated: 19457
EndChar

StartChar: upsilon
Encoding: 965 965 97
Width: 630
VWidth: 1000
Flags: W
HStem: -13 46<260.241 404.054> 411 46<134.884 193.828>
VStem: 27 57<277.336 351.325> 119 118<55.6704 218.689> 194 112<318.636 410.978> 536 74<237.121 375>
LayerCount: 2
Fore
SplineSet
604.5 302 m 128,-1,1
 599 265 599 265 575 202 c 0,2,3
 551 140 551 140 512 91 c 0,4,5
 429 -13 429 -13 326 -13 c 0,6,7
 119 -13 119 -13 119 133 c 0,8,9
 119 165 119 165 131 205 c 0,10,11
 141 239 141 239 179 337 c 0,12,13
 194 375 194 375 194 395 c 0,14,15
 194 404 194 404 192 407 c 128,-1,16
 190 410 190 410 189 411 c 0,17,18
 186 411 186 411 182 411 c 0,19,20
 174 411 174 411 165 407 c 0,21,22
 155 403 155 403 140 393 c 128,-1,23
 125 383 125 383 110 358 c 128,-1,24
 95 333 95 333 84 294 c 0,25,26
 79 277 79 277 56 277 c 0,27,28
 27 277 27 277 27 296 c 0,29,30
 27 307 27 307 37 331 c 128,-1,31
 47 355 47 355 66 384 c 128,-1,32
 85 413 85 413 117 435 c 0,33,34
 150 457 150 457 188 457 c 0,35,36
 235 457 235 457 270 432 c 0,37,38
 306 406 306 406 306 362 c 0,39,40
 306 346 306 346 289 301 c 0,41,42
 237 167 237 167 237 117 c 0,43,44
 237 33 237 33 333 33 c 0,45,46
 376 33 376 33 416 63 c 0,47,48
 456 94 456 94 481 136 c 128,-1,49
 506 178 506 178 521 215 c 128,-1,50
 536 252 536 252 536 269 c 0,51,52
 536 300 536 300 489 328 c 1,53,54
 456 344 456 344 456 377 c 0,55,56
 456 405 456 405 481.5 431.5 c 128,-1,57
 507 458 507 458 537 458 c 0,58,59
 540 458 540 458 545 457 c 128,-1,60
 550 456 550 456 563 452 c 0,61,62
 576 447 576 447 585 437.5 c 128,-1,63
 594 428 594 428 602 408 c 128,-1,64
 610 388 610 388 610 362 c 0,65,0
 610 339 610 339 604.5 302 c 128,-1,1
EndSplineSet
Validated: 19457
EndChar

StartChar: varphi
Encoding: 966 966 98
Width: 747
VWidth: 1000
Flags: W
HStem: -13 106<345.278 478.203> -1 98<179.213 241> 351 106<483.109 619.098> 429 20G<171.5 192>
VStem: 47 59<149.886 294.718> 184 126<-199.833 -101.984> 648 61<197.704 322.44>
LayerCount: 2
Fore
SplineSet
310 -146 m 0,0,1
 299 -221 299 -221 236 -221 c 0,2,3
 219 -221 219 -221 201.5 -210 c 128,-1,4
 184 -199 184 -199 184 -172 c 0,5,6
 184 -162 184 -162 201 -114 c 0,7,8
 221 -60 221 -60 241 -1 c 1,9,10
 153 18 153 18 100 68.5 c 128,-1,11
 47 119 47 119 47 190 c 0,12,13
 47 230 47 230 71.5 303 c 128,-1,14
 96 376 96 376 140 428 c 0,15,16
 151 441 151 441 158 445 c 128,-1,17
 165 449 165 449 178 449 c 0,18,19
 206 449 206 449 206 430 c 0,20,21
 206 428 206 428 205 426 c 0,22,23
 203 421 203 421 191 407 c 0,24,25
 152 364 152 364 129 297.5 c 128,-1,26
 106 231 106 231 106 204 c 0,27,28
 106 117 106 117 276 97 c 1,29,30
 290 138 290 138 299 163 c 128,-1,31
 308 188 308 188 327 231 c 128,-1,32
 346 274 346 274 361 301 c 128,-1,33
 376 328 376 328 399.5 361 c 128,-1,34
 423 394 423 394 446.5 412 c 128,-1,35
 470 430 470 430 501 443.5 c 128,-1,36
 532 457 532 457 566 457 c 0,37,38
 633 457 633 457 671 410.5 c 128,-1,39
 709 364 709 364 709 295 c 0,40,41
 709 169 709 169 599.5 78 c 128,-1,42
 490 -13 490 -13 349 -13 c 0,43,44
 338 -13 338 -13 329 -12 c 1,45,46
 328 -17 328 -17 310 -146 c 0,0,1
345 93 m 1,47,48
 474 94 474 94 549 132 c 0,49,50
 604 160 604 160 626 197 c 128,-1,51
 648 234 648 234 648 266 c 0,52,53
 648 305 648 305 620 328 c 128,-1,54
 592 351 592 351 549 351 c 0,55,56
 468 351 468 351 405 270 c 0,57,58
 384 243 384 243 371.5 211.5 c 128,-1,59
 359 180 359 180 354.5 157.5 c 128,-1,60
 350 135 350 135 345 93 c 1,47,48
EndSplineSet
Validated: 19457
EndChar

StartChar: chi
Encoding: 967 967 99
Width: 718
VWidth: 1000
Flags: W
HStem: -207 46<542.804 609.939> -199 21G<53 63.5> 411 46<106.947 174.12> 429 20G<652 663>
LayerCount: 2
Fore
SplineSet
418 145 m 1,0,1
 454 11 454 11 486 -55 c 0,2,3
 495 -73 495 -73 504 -87 c 0,4,5
 515 -106 515 -106 538 -134 c 0,6,7
 559 -161 559 -161 572 -161 c 0,8,9
 583 -161 583 -161 598 -151 c 0,10,11
 611 -142 611 -142 617 -124 c 0,12,13
 621 -114 621 -114 626 -110 c 0,14,15
 627 -109 l 0,16,17
 628 -108 628 -108 629 -108 c 2,18,-1
 630 -108 l 2,19,20
 635 -106 635 -106 646 -106 c 0,21,22
 674 -106 674 -106 674 -125 c 0,23,24
 674 -129 674 -129 671 -137 c 128,-1,25
 668 -145 668 -145 660.5 -157.5 c 128,-1,26
 653 -170 653 -170 640.5 -180.5 c 128,-1,27
 628 -191 628 -191 606 -199 c 128,-1,28
 584 -207 584 -207 556 -207 c 0,29,30
 423 -207 423 -207 385 -140 c 0,31,32
 347 -74 347 -74 314 42 c 1,33,-1
 206 -65 l 1,34,-1
 113 -158 l 1,35,-1
 76 -192 l 2,36,-1
 75 -194 l 0,37,38
 74 -196 74 -196 72 -197 c 0,39,40
 68 -199 68 -199 59 -199 c 0,41,42
 47 -199 47 -199 39.5 -191 c 128,-1,43
 32 -183 32 -183 32 -173 c 0,44,45
 32 -162 32 -162 47 -146 c 2,46,-1
 298 104 l 1,47,-1
 276 189 l 2,48,49
 270 212 270 212 259 240 c 0,50,51
 250 266 250 266 234 296 c 0,52,53
 225 315 225 315 217 330 c 0,54,55
 206 349 206 349 182 381 c 0,56,57
 159 411 159 411 145 411 c 0,58,59
 133 411 133 411 119 401 c 128,-1,60
 105 391 105 391 99 374 c 0,61,62
 95 364 95 364 93 361 c 0,63,64
 92 360 92 360 90 359 c 0,65,66
 89 358 89 358 88 358 c 0,67,68
 83 356 83 356 70 356 c 0,69,70
 42 356 42 356 42 375 c 0,71,72
 42 385 42 385 50.5 402 c 128,-1,73
 59 419 59 419 88.5 438 c 128,-1,74
 118 457 118 457 161 457 c 0,75,76
 286 457 286 457 325 402 c 0,77,78
 360 354 360 354 402 207 c 1,79,-1
 629 433 l 2,80,81
 646 449 646 449 658 449 c 0,82,83
 668 449 668 449 676 441.5 c 128,-1,84
 684 434 684 434 684 422 c 0,85,86
 684 411 684 411 669 395 c 2,87,-1
 418 145 l 1,0,1
EndSplineSet
Validated: 19457
EndChar

StartChar: psi
Encoding: 968 968 100
Width: 758
VWidth: 1000
Flags: W
HStem: -13 46<401 491.234> 411 46<134.647 193.913> 679 20G<528 548>
VStem: 27 57<277.336 349.582> 120 120<69.6198 228.013> 194 112<317.407 410.992> 289 49<-206.773 -130.75> 664 74<241.745 375>
LayerCount: 2
Fore
SplineSet
401 33 m 1,0,1
 453 35 453 35 504 61 c 0,2,3
 557 90 557 90 590 129 c 0,4,5
 624 169 624 169 644 207 c 128,-1,6
 664 245 664 245 664 269 c 0,7,8
 664 300 664 300 617 328 c 0,9,10
 584 347 584 347 584 377 c 0,11,12
 584 406 584 406 609.5 432 c 128,-1,13
 635 458 635 458 665 458 c 0,14,15
 668 458 668 458 673 457 c 128,-1,16
 678 456 678 456 691 452 c 0,17,18
 704 447 704 447 713 437.5 c 128,-1,19
 722 428 722 428 730 408 c 128,-1,20
 738 388 738 388 738 362 c 0,21,22
 738 327 738 327 725 277 c 0,23,24
 711 222 711 222 703 202 c 0,25,26
 664 116 664 116 578 51 c 0,27,28
 495 -12 495 -12 390 -13 c 1,29,-1
 347 -183 l 2,30,31
 343 -196 343 -196 339 -201 c 0,32,33
 338 -202 338 -202 338 -203 c 0,34,35
 337 -204 337 -204 335 -205 c 0,36,37
 330 -207 330 -207 317 -207 c 0,38,39
 289 -207 289 -207 289 -188 c 0,40,-1
 289 -187 l 0,41,42
 290 -181 290 -181 312 -91 c 2,43,-1
 318 -67 l 1,44,-1
 328 -28 l 2,45,46
 331 -14 331 -14 332 -12 c 1,47,48
 330 -11 330 -11 327 -11 c 0,49,50
 120 7 120 7 120 144 c 0,51,52
 120 185 120 185 172 318 c 0,53,54
 194 373 194 373 194 395 c 0,55,56
 194 411 194 411 182 411 c 0,57,58
 174 411 174 411 165 407 c 128,-1,59
 156 403 156 403 140 393 c 0,60,61
 125 383 125 383 111 358 c 0,62,63
 96 332 96 332 84 294 c 0,64,65
 79 277 79 277 56 277 c 0,66,67
 27 277 27 277 27 296 c 0,68,69
 27 307 27 307 37 331 c 128,-1,70
 47 355 47 355 66 384 c 128,-1,71
 85 413 85 413 117 435 c 0,72,73
 150 457 150 457 188 457 c 0,74,75
 235 457 235 457 270 432 c 0,76,77
 306 406 306 406 306 362 c 0,78,79
 306 344 306 344 289 300 c 0,80,81
 240 177 240 177 240 134 c 0,82,83
 240 118 240 118 243 104 c 0,84,85
 246 91 246 91 257 76 c 0,86,87
 267 61 267 61 290 51 c 0,88,89
 312 41 312 41 344 36 c 1,90,-1
 503 672 l 2,91,92
 507 687 507 687 510 692 c 0,93,-1
 511 693 l 2,94,-1
 512 694 l 2,95,96
 514 696 514 696 516 697 c 0,97,98
 522 699 522 699 534 699 c 0,99,100
 562 699 562 699 562 679 c 0,101,102
 562 672 562 672 558 658 c 2,103,-1
 401 33 l 1,0,1
EndSplineSet
Validated: 19457
EndChar

StartChar: omega
Encoding: 969 969 101
Width: 717
VWidth: 1000
Flags: W
HStem: -13 120<111.049 245.961 377.029 506.814> 429 20G<149.5 157>
VStem: 17 63<138.857 279.584> 300 106<171.633 283.322> 621 76<246.868 386.5>
LayerCount: 2
Fore
SplineSet
436 107 m 0,0,1
 508 107 508 107 565 157 c 0,2,3
 621 207 621 207 621 258 c 0,4,5
 621 297 621 297 575 327 c 1,6,7
 544 352 544 352 544 377 c 0,8,9
 544 406 544 406 569.5 432 c 128,-1,10
 595 458 595 458 625 458 c 0,11,12
 650 458 650 458 673.5 435.5 c 128,-1,13
 697 413 697 413 697 360 c 0,14,15
 697 345 697 345 693 313 c 128,-1,16
 689 281 689 281 671 223 c 0,17,18
 653 163 653 163 626 120 c 0,19,20
 590 64 590 64 534 25 c 0,21,22
 478 -13 478 -13 415 -13 c 0,23,24
 338 -13 338 -13 306 55 c 1,25,26
 240 -13 240 -13 158 -13 c 0,27,28
 93 -13 93 -13 55 34 c 128,-1,29
 17 81 17 81 17 159 c 0,30,31
 17 200 17 200 28.5 243.5 c 128,-1,32
 40 287 40 287 56 319.5 c 128,-1,33
 72 352 72 352 89.5 381 c 128,-1,34
 107 410 107 410 117.5 424 c 128,-1,35
 128 438 128 438 131 442 c 2,36,-1
 132 442 l 1,37,-1
 135 444 l 2,38,39
 138 446 138 446 142 447 c 0,40,41
 147 449 147 449 152 449 c 0,42,43
 162 449 162 449 170 441.5 c 128,-1,44
 178 434 178 434 178 423 c 128,-1,45
 178 412 178 412 166 398 c 1,46,47
 121 336 121 336 100 283 c 0,48,49
 80 230 80 230 80 201 c 0,50,51
 80 160 80 160 106.5 133.5 c 128,-1,52
 133 107 133 107 179 107 c 0,53,54
 213 107 213 107 242 121 c 0,55,56
 273 136 273 136 286 149 c 0,57,58
 287 151 287 151 288 163 c 0,59,60
 289 180 289 180 291 197 c 128,-1,61
 293 214 293 214 300 240 c 0,62,63
 307 267 307 267 322 283 c 0,64,65
 338 301 338 301 363 301 c 0,66,67
 383 301 383 301 395 286 c 0,68,69
 406 272 406 272 406 252 c 0,70,71
 406 211 406 211 368 140 c 1,72,73
 389 107 389 107 436 107 c 0,0,1
EndSplineSet
Validated: 19457
EndChar

StartChar: vartheta
Encoding: 977 977 102
Width: 691
VWidth: 1000
Flags: W
HStem: -13 46<245.369 355.556> 317 51<615 659.689> 411 46<117.846 168.743> 661 46<408.677 506.983>
VStem: 115 117<46.1387 209.911> 170 117<271.881 410.786> 297 57<465.325 604.552> 521 110<421.281 616.522>
LayerCount: 2
Fore
SplineSet
260 231 m 1,0,1
 232 129 232 129 232 97 c 0,2,3
 232 33 232 33 301 33 c 0,4,5
 359 33 359 33 409 127 c 0,6,7
 442 190 442 190 482 350 c 1,8,9
 457 358 457 358 437 365 c 128,-1,10
 417 372 417 372 388.5 387.5 c 128,-1,11
 360 403 360 403 342 421 c 128,-1,12
 324 439 324 439 310.5 466.5 c 128,-1,13
 297 494 297 494 297 527 c 0,14,15
 297 605 297 605 352.5 656 c 128,-1,16
 408 707 408 707 472 707 c 0,17,18
 499 707 499 707 524.5 697 c 128,-1,19
 550 687 550 687 575 665.5 c 128,-1,20
 600 644 600 644 615.5 600 c 128,-1,21
 631 556 631 556 631 496 c 0,22,23
 631 427 631 427 615 368 c 1,24,25
 637 365 637 365 640 364 c 0,26,27
 655 359 655 359 658 351 c 0,28,29
 660 348 660 348 660 340.5 c 128,-1,30
 660 333 660 333 653.5 325 c 128,-1,31
 647 317 647 317 638 317 c 0,32,33
 635 317 635 317 628 318 c 128,-1,34
 621 319 621 319 617 320 c 2,35,-1
 604 322 l 1,36,37
 566 179 566 179 484.5 83 c 128,-1,38
 403 -13 403 -13 293 -13 c 0,39,40
 115 -13 115 -13 115 114 c 0,41,42
 115 143 115 143 127 193 c 0,43,44
 128 196 128 196 130 204 c 2,45,-1
 138 235 l 2,46,47
 144 258 144 258 147 269 c 0,48,49
 170 365 170 365 170 379 c 0,50,51
 170 411 170 411 152 411 c 0,52,53
 113 411 113 411 89 315 c 0,54,55
 83 289 83 289 81 285 c 0,56,57
 80 284 80 284 80 283 c 0,58,59
 74 277 74 277 56 277 c 0,60,61
 27 277 27 277 27 296 c 0,62,63
 27 301 27 301 31 316 c 128,-1,64
 35 331 35 331 44.5 354.5 c 128,-1,65
 54 378 54 378 66 398 c 0,66,67
 101 457 101 457 157 457 c 0,68,69
 208 457 208 457 247.5 430.5 c 128,-1,70
 287 404 287 404 287 354 c 0,71,72
 287 344 287 344 274 289 c 2,73,-1
 260 231 l 1,0,1
493 396 m 1,74,75
 521 514 521 514 521 566 c 0,76,77
 521 661 521 661 469 661 c 0,78,79
 427 661 427 661 390.5 622.5 c 128,-1,80
 354 584 354 584 354 529 c 0,81,82
 354 439 354 439 493 396 c 1,74,75
EndSplineSet
Validated: 19457
EndChar

StartChar: Upsilon
Encoding: 978 978 103
Width: 670
VWidth: 1000
Flags: W
HStem: -5 57<80.219 216.737 366 486.812> 528 1<785.969 786> 588 120<134.689 259.08 584.478 737.36>
VStem: 27 64<527.74 572.578> 302 97<490.219 541.036> 740 67<532.157 570.812>
LayerCount: 2
Fore
SplineSet
366 55 m 1,0,1
 377 52 377 52 423 52 c 2,2,-1
 455 52 l 2,3,4
 467 52 467 52 473 51 c 0,5,6
 481 50 481 50 487 45 c 0,7,8
 494 39 494 39 494 28 c 0,9,10
 494 -5 494 -5 459 -5 c 0,11,12
 444 -5 444 -5 413.5 -4 c 128,-1,13
 383 -3 383 -3 368 -3 c 128,-1,14
 353 -3 353 -3 323 -2.5 c 128,-1,15
 293 -2 293 -2 278 -2 c 0,16,17
 264 -2 264 -2 234 -2.5 c 128,-1,18
 204 -3 204 -3 190 -3 c 0,19,20
 175 -3 175 -3 145 -4 c 128,-1,21
 115 -5 115 -5 101 -5 c 0,22,23
 73 -5 73 -5 73 18 c 0,24,25
 73 34 73 34 80 42 c 128,-1,26
 87 50 87 50 95 51 c 0,27,28
 101 52 101 52 114 52 c 2,29,-1
 146 52 l 2,30,31
 209 52 209 52 217 58 c 1,32,33
 225 89 225 89 226 97 c 0,34,-1
 275 290 l 2,35,36
 293 362 293 362 298 387 c 0,37,38
 302 412 302 412 302 443 c 0,39,40
 302 510 302 510 276 547 c 0,41,42
 248 588 248 588 190 588 c 0,43,44
 104 588 104 588 91 548 c 0,45,46
 83 526 83 526 55 526 c 128,-1,47
 27 526 27 526 27 545 c 0,48,49
 27 586 27 586 84.5 647 c 128,-1,50
 142 708 142 708 225 708 c 0,51,52
 266 708 266 708 298 694 c 0,53,54
 330 679 330 679 349 653 c 0,55,56
 367 628 367 628 378 604 c 0,57,58
 390 579 390 579 394 548 c 128,-1,59
 398 517 398 517 399 503 c 0,60,61
 399 497 399 497 400 490 c 1,62,63
 449 581 449 581 507 633 c 0,64,65
 591 708 591 708 682 708 c 0,66,67
 739 708 739 708 773 673.5 c 128,-1,68
 807 639 807 639 807 586 c 0,69,70
 807 559 807 559 801 545 c 0,71,72
 795 533 795 533 788 529 c 0,73,-1
 787 529 l 2,74,-1
 786 529 l 0,75,76
 785 529 785 529 786 528 c 0,77,78
 779 526 779 526 767 526 c 0,79,80
 759 526 759 526 754 527 c 0,81,82
 748 528 748 528 744 532 c 0,83,84
 739 537 739 537 739 546 c 0,85,86
 739 553 739 553 740 556 c 2,87,-1
 740 557 l 1,88,-1
 740 558 l 1,89,90
 740 565 740 565 737 571 c 0,91,-1
 736 571 l 0,92,93
 732 575 732 575 716 581 c 0,94,95
 697 588 697 588 661 588 c 0,96,97
 621 588 621 588 585.5 569.5 c 128,-1,98
 550 551 550 551 525 519 c 0,99,100
 499 487 499 487 482 456 c 0,101,102
 463 421 463 421 452 389 c 0,103,104
 438 348 438 348 371 75 c 0,105,106
 367 59 367 59 366 55 c 1,0,1
786 529 m 1,107,-1
 786 529 l 1,107,-1
787 529 m 1,108,-1
 787 529 l 1,108,-1
EndSplineSet
Validated: 19457
EndChar

StartChar: phi
Encoding: 981 981 104
Width: 712
VWidth: 1000
Flags: W
HStem: -16 46<212.366 283> 413 47<305.657 389.867 460 530.634> 679 20G<480 500>
VStem: 51 113<86.9771 259.144> 241 58<-204.422 -157.816> 579 113<184.567 357.023>
LayerCount: 2
Fore
SplineSet
460 460 m 1,0,1
 566 455 566 455 629 404 c 128,-1,2
 692 353 692 353 692 270 c 0,3,4
 692 165 692 165 598.5 79 c 128,-1,5
 505 -7 505 -7 358 -16 c 0,6,7
 344 -17 344 -17 341 -17 c 1,8,9
 339 -23 339 -23 334 -45 c 2,10,-1
 299 -185 l 2,11,12
 296 -197 296 -197 291 -201 c 0,13,14
 290 -202 290 -202 287 -204.5 c 128,-1,15
 284 -207 284 -207 269 -207 c 0,16,17
 241 -207 241 -207 241 -188 c 2,18,-1
 241 -187 l 1,19,-1
 283 -16 l 1,20,21
 177 -11 177 -11 114 40 c 128,-1,22
 51 91 51 91 51 174 c 0,23,24
 51 278 51 278 143.5 364.5 c 128,-1,25
 236 451 236 451 385 460 c 0,26,27
 397 461 397 461 401 462 c 1,28,29
 402 466 402 466 405 474 c 2,30,-1
 455 672 l 2,31,32
 459 687 459 687 462 692 c 0,33,34
 463 693 l 0,35,36
 464 694 464 694 465 695 c 128,-1,37
 466 696 466 696 468 697 c 0,38,39
 474 699 474 699 486 699 c 0,40,41
 514 699 514 699 514 680 c 0,42,43
 514 676 514 676 511 664 c 2,44,-1
 460 460 l 1,0,1
294 30 m 1,45,-1
 390 413 l 1,46,47
 282 402 282 402 226 331 c 0,48,49
 193 289 193 289 178.5 235 c 128,-1,50
 164 181 164 181 164 148 c 0,51,52
 164 39 164 39 294 30 c 1,45,-1
449 414 m 1,53,-1
 353 31 l 1,54,55
 461 42 461 42 517 113 c 0,56,57
 550 155 550 155 564.5 209 c 128,-1,58
 579 263 579 263 579 296 c 0,59,60
 579 405 579 405 449 414 c 1,53,-1
EndSplineSet
Validated: 19457
EndChar

